  0
SECTION
  2
HEADER
  9
$ACADVER
  1
AC1014
  9
$HANDSEED
  5
FFFF
  9
$MEASUREMENT
 70
     1
  0
ENDSEC
  0
SECTION
  2
TABLES
  0
TABLE
  2
VPORT
  5
8
330
0
100
AcDbSymbolTable
 70
     4
  0
VPORT
  5
2E
330
8
100
AcDbSymbolTableRecord
100
AcDbViewportTableRecord
  2
*ACTIVE
 70
     0
 10
0.0
 20
0.0
 11
1.0
 21
1.0
 12
210.0
 22
148.5
 13
0.0
 23
0.0
 14
10.0
 24
10.0
 15
10.0
 25
10.0
 16
0.0
 26
0.0
 36
1.0
 17
0.0
 27
0.0
 37
0.0
 40
341.0
 41
1.24
 42
50.0
 43
0.0
 44
0.0
 50
0.0
 51
0.0
 71
     0
 72
   100
 73
     1
 74
     3
 75
     0
 76
     0
 77
     0
 78
     0
  0
ENDTAB
  0
TABLE
  2
LTYPE
  5
5
330
0
100
AcDbSymbolTable
 70
     1
  0
LTYPE
  5
14
330
5
100
AcDbSymbolTableRecord
100
AcDbLinetypeTableRecord
  2
BYBLOCK
 70
     0
  3

 72
    65
 73
     0
 40
0.0
  0
LTYPE
  5
15
330
5
100
AcDbSymbolTableRecord
100
AcDbLinetypeTableRecord
  2
BYLAYER
 70
     0
  3

 72
    65
 73
     0
 40
0.0
  0
LTYPE
  5
16
330
5
100
AcDbSymbolTableRecord
100
AcDbLinetypeTableRecord
  2
CONTINUOUS
 70
     0
  3
Solid line
 72
    65
 73
     0
 40
0.0
  0
ENDTAB
  0
TABLE
  2
LAYER
  5
2
100
AcDbSymbolTable
 70
1
  0
LAYER
  5
50
100
AcDbSymbolTableRecord
100
AcDbLayerTableRecord
  2
0
 70
0
  6
CONTINUOUS
  0
ENDTAB
  0
TABLE
  2
STYLE
  5
3
330
0
100
AcDbSymbolTable
 70
     1
  0
STYLE
  5
11
330
3
100
AcDbSymbolTableRecord
100
AcDbTextStyleTableRecord
  2
STANDARD
 70
     0
 40
0.0
 41
1.0
 50
0.0
 71
     0
 42
2.5
  3
txt
  4

  0
ENDTAB
  0
TABLE
  2
VIEW
  5
6
330
0
100
AcDbSymbolTable
 70
     0
  0
ENDTAB
  0
TABLE
  2
UCS
  5
7
330
0
100
AcDbSymbolTable
 70
     0
  0
ENDTAB
  0
TABLE
  2
APPID
  5
9
330
0
100
AcDbSymbolTable
 70
     2
  0
APPID
  5
12
330
9
100
AcDbSymbolTableRecord
100
AcDbRegAppTableRecord
  2
ACAD
 70
     0
  0
ENDTAB
  0
TABLE
  2
DIMSTYLE
  5
A
330
0
100
AcDbSymbolTable
 70
     1
  0
DIMSTYLE
105
27
330
A
100
AcDbSymbolTableRecord
100
AcDbDimStyleTableRecord
  2
ISO-25
 70
     0
  3

  4

  5

  6

  7

 40
1.0
 41
2.5
 42
0.625
 43
3.75
 44
1.25
 45
0.0
 46
0.0
 47
0.0
 48
0.0
140
2.5
141
2.5
142
0.0
143
0.03937007874016
144
1.0
145
0.0
146
1.0
147
0.625
 71
     0
 72
     0
 73
     0
 74
     0
 75
     0
 76
     0
 77
     1
 78
     8
170
     0
171
     3
172
     1
173
     0
174
     0
175
     0
176
     0
177
     0
178
     0
270
     2
271
     2
272
     2
273
     2
274
     3
340
11
275
     0
280
     0
281
     0
282
     0
283
     0
284
     8
285
     0
286
     0
287
     3
288
     0
  0
ENDTAB
  0
TABLE
  2
BLOCK_RECORD
  5
1
330
0
100
AcDbSymbolTable
 70
     1
  0
BLOCK_RECORD
  5
1F
330
1
100
AcDbSymbolTableRecord
100
AcDbBlockTableRecord
  2
*MODEL_SPACE
  0
BLOCK_RECORD
  5
1B
330
1
100
AcDbSymbolTableRecord
100
AcDbBlockTableRecord
  2
*PAPER_SPACE
  0
ENDTAB
  0
ENDSEC
  0
SECTION
  2
BLOCKS
  0
BLOCK
  5
20
330
1F
100
AcDbEntity
  8
0
100
AcDbBlockBegin
  2
*MODEL_SPACE
 70
     0
 10
0.0
 20
0.0
 30
0.0
  3
*MODEL_SPACE
  1

  0
ENDBLK
  5
21
330
1F
100
AcDbEntity
  8
0
100
AcDbBlockEnd
  0
BLOCK
  5
1C
330
1B
100
AcDbEntity
 67
     1
  8
0
100
AcDbBlockBegin
  2
*PAPER_SPACE
  1

  0
ENDBLK
  5
1D
330
1B
100
AcDbEntity
 67
     1
  8
0
100
AcDbBlockEnd
  0
ENDSEC
  0
SECTION
  2
ENTITIES
  0
LWPOLYLINE
  5
100
100
AcDbEntity
  8
0
 62
7
100
AcDbPolyline
 90
2
 70
0
 10
226.668333
 20
-72.814193
 30
0.0
 10
229.082034
 20
-86.503034
 30
0.0
  0
LWPOLYLINE
  5
101
100
AcDbEntity
  8
0
 62
7
100
AcDbPolyline
 90
2
 70
0
 10
84.897394
 20
-79.291387
 30
0.0
 10
98.586236
 20
-81.705109
 30
0.0
  0
LWPOLYLINE
  5
102
100
AcDbEntity
  8
0
 62
7
100
AcDbPolyline
 90
2
 70
0
 10
82.483694
 20
-92.980229
 30
0.0
 10
84.897394
 20
-79.291387
 30
0.0
  0
LWPOLYLINE
  5
103
100
AcDbEntity
  8
0
 62
7
100
AcDbPolyline
 90
2
 70
0
 10
104.679152
 20
-108.697394
 30
0.0
 10
101.081564
 20
-122.123784
 30
0.0
  0
LWPOLYLINE
  5
104
100
AcDbEntity
  8
0
 62
7
100
AcDbPolyline
 90
2
 70
0
 10
91.252783
 20
-105.099806
 30
0.0
 10
104.679152
 20
-108.697394
 30
0.0
  0
LWPOLYLINE
  5
105
100
AcDbEntity
  8
0
 62
7
100
AcDbPolyline
 90
2
 70
0
 10
87.655195
 20
-118.526196
 30
0.0
 10
91.252783
 20
-105.099806
 30
0.0
  0
LWPOLYLINE
  5
106
100
AcDbEntity
  8
0
 62
7
100
AcDbPolyline
 90
2
 70
0
 10
206.405662
 20
-67.603589
 30
0.0
 10
192.716821
 20
-70.017289
 30
0.0
  0
LWPOLYLINE
  5
107
100
AcDbEntity
  8
0
 62
7
100
AcDbPolyline
 90
2
 70
0
 10
203.991961
 20
-53.914747
 30
0.0
 10
206.405662
 20
-67.603589
 30
0.0
  0
LWPOLYLINE
  5
108
100
AcDbEntity
  8
0
 62
7
100
AcDbPolyline
 90
2
 70
0
 10
158.503609
 20
-95.393886
 30
0.0
 10
156.089909
 20
-81.705045
 30
0.0
  0
LWPOLYLINE
  5
109
100
AcDbEntity
  8
0
 62
7
100
AcDbPolyline
 90
2
 70
0
 10
190.345666
 20
-86.226392
 30
0.0
 10
176.656825
 20
-88.640115
 30
0.0
  0
LWPOLYLINE
  5
10a
100
AcDbEntity
  8
0
 62
7
100
AcDbPolyline
 90
2
 70
0
 10
187.931966
 20
-72.537551
 30
0.0
 10
190.345666
 20
-86.226392
 30
0.0
  0
LWPOLYLINE
  5
10b
100
AcDbEntity
  8
0
 62
7
100
AcDbPolyline
 90
2
 70
0
 10
174.243124
 20
-74.951274
 30
0.0
 10
187.931966
 20
-72.537551
 30
0.0
  0
LWPOLYLINE
  5
10c
100
AcDbEntity
  8
0
 62
7
100
AcDbPolyline
 90
2
 70
0
 10
190.303119
 20
-56.328448
 30
0.0
 10
203.991961
 20
-53.914747
 30
0.0
  0
LWPOLYLINE
  5
10d
100
AcDbEntity
  8
0
 62
7
100
AcDbPolyline
 90
2
 70
0
 10
209.713667
 20
-86.364197
 30
0.0
 10
196.024826
 20
-88.777897
 30
0.0
  0
LWPOLYLINE
  5
10e
100
AcDbEntity
  8
0
 62
7
100
AcDbPolyline
 90
2
 70
0
 10
176.656825
 20
-88.640115
 30
0.0
 10
174.243124
 20
-74.951274
 30
0.0
  0
LWPOLYLINE
  5
10f
100
AcDbEntity
  8
0
 62
7
100
AcDbPolyline
 90
2
 70
0
 10
192.716821
 20
-70.017289
 30
0.0
 10
190.303119
 20
-56.328448
 30
0.0
  0
LWPOLYLINE
  5
110
100
AcDbEntity
  8
0
 62
7
100
AcDbPolyline
 90
2
 70
0
 10
207.299966
 20
-72.675354
 30
0.0
 10
209.713667
 20
-86.364197
 30
0.0
  0
LWPOLYLINE
  5
111
100
AcDbEntity
  8
0
 62
7
100
AcDbPolyline
 90
2
 70
0
 10
193.611124
 20
-75.089056
 30
0.0
 10
207.299966
 20
-72.675354
 30
0.0
  0
LWPOLYLINE
  5
112
100
AcDbEntity
  8
0
 62
7
100
AcDbPolyline
 90
2
 70
0
 10
101.081564
 20
-122.123784
 30
0.0
 10
87.655195
 20
-118.526196
 30
0.0
  0
LWPOLYLINE
  5
113
100
AcDbEntity
  8
0
 62
7
100
AcDbPolyline
 90
2
 70
0
 10
114.325364
 20
-102.148778
 30
0.0
 10
100.636522
 20
-99.735055
 30
0.0
  0
LWPOLYLINE
  5
114
100
AcDbEntity
  8
0
 62
7
100
AcDbPolyline
 90
2
 70
0
 10
116.739086
 20
-88.459937
 30
0.0
 10
114.325364
 20
-102.148778
 30
0.0
  0
LWPOLYLINE
  5
115
100
AcDbEntity
  8
0
 62
7
100
AcDbPolyline
 90
2
 70
0
 10
103.050244
 20
-86.046214
 30
0.0
 10
116.739086
 20
-88.459937
 30
0.0
  0
LWPOLYLINE
  5
116
100
AcDbEntity
  8
0
 62
7
100
AcDbPolyline
 90
2
 70
0
 10
100.636522
 20
-99.735055
 30
0.0
 10
103.050244
 20
-86.046214
 30
0.0
  0
LWPOLYLINE
  5
117
100
AcDbEntity
  8
0
 62
7
100
AcDbPolyline
 90
2
 70
0
 10
143.813600
 20
-109.451656
 30
0.0
 10
143.813557
 20
-123.351681
 30
0.0
  0
LWPOLYLINE
  5
118
100
AcDbEntity
  8
0
 62
7
100
AcDbPolyline
 90
2
 70
0
 10
110.863556
 20
-109.451656
 30
0.0
 10
143.813600
 20
-109.451656
 30
0.0
  0
LWPOLYLINE
  5
119
100
AcDbEntity
  8
0
 62
7
100
AcDbPolyline
 90
2
 70
0
 10
110.863535
 20
-123.351660
 30
0.0
 10
110.863556
 20
-109.451656
 30
0.0
  0
LWPOLYLINE
  5
11a
100
AcDbEntity
  8
0
 62
7
100
AcDbPolyline
 90
2
 70
0
 10
143.813557
 20
-123.351681
 30
0.0
 10
110.863535
 20
-123.351660
 30
0.0
  0
LWPOLYLINE
  5
11b
100
AcDbEntity
  8
0
 62
7
100
AcDbPolyline
 90
2
 70
0
 10
154.039601
 20
-99.735012
 30
0.0
 10
140.350759
 20
-102.148714
 30
0.0
  0
LWPOLYLINE
  5
11c
100
AcDbEntity
  8
0
 62
7
100
AcDbPolyline
 90
2
 70
0
 10
151.625900
 20
-86.046171
 30
0.0
 10
154.039601
 20
-99.735012
 30
0.0
  0
LWPOLYLINE
  5
11d
100
AcDbEntity
  8
0
 62
7
100
AcDbPolyline
 90
2
 70
0
 10
137.937058
 20
-88.459872
 30
0.0
 10
151.625900
 20
-86.046171
 30
0.0
  0
LWPOLYLINE
  5
11e
100
AcDbEntity
  8
0
 62
7
100
AcDbPolyline
 90
2
 70
0
 10
140.350759
 20
-102.148714
 30
0.0
 10
137.937058
 20
-88.459872
 30
0.0
  0
LWPOLYLINE
  5
11f
100
AcDbEntity
  8
0
 62
7
100
AcDbPolyline
 90
2
 70
0
 10
167.010914
 20
-118.526196
 30
0.0
 10
153.584524
 20
-122.123784
 30
0.0
  0
LWPOLYLINE
  5
120
100
AcDbEntity
  8
0
 62
7
100
AcDbPolyline
 90
2
 70
0
 10
163.413349
 20
-105.099806
 30
0.0
 10
167.010914
 20
-118.526196
 30
0.0
  0
LWPOLYLINE
  5
121
100
AcDbEntity
  8
0
 62
7
100
AcDbPolyline
 90
2
 70
0
 10
149.986959
 20
-108.697394
 30
0.0
 10
163.413349
 20
-105.099806
 30
0.0
  0
LWPOLYLINE
  5
122
100
AcDbEntity
  8
0
 62
7
100
AcDbPolyline
 90
2
 70
0
 10
153.584524
 20
-122.123784
 30
0.0
 10
149.986959
 20
-108.697394
 30
0.0
  0
LWPOLYLINE
  5
123
100
AcDbEntity
  8
0
 62
7
100
AcDbPolyline
 90
2
 70
0
 10
172.192451
 20
-92.980186
 30
0.0
 10
158.503609
 20
-95.393886
 30
0.0
  0
LWPOLYLINE
  5
124
100
AcDbEntity
  8
0
 62
7
100
AcDbPolyline
 90
2
 70
0
 10
169.778750
 20
-79.291344
 30
0.0
 10
172.192451
 20
-92.980186
 30
0.0
  0
LWPOLYLINE
  5
125
100
AcDbEntity
  8
0
 62
7
100
AcDbPolyline
 90
2
 70
0
 10
156.089909
 20
-81.705045
 30
0.0
 10
169.778750
 20
-79.291344
 30
0.0
  0
LWPOLYLINE
  5
126
100
AcDbEntity
  8
0
 62
7
100
AcDbPolyline
 90
2
 70
0
 10
58.651319
 20
-88.777941
 30
0.0
 10
44.962477
 20
-86.364240
 30
0.0
  0
LWPOLYLINE
  5
127
100
AcDbEntity
  8
0
 62
7
100
AcDbPolyline
 90
2
 70
0
 10
61.959324
 20
-70.017332
 30
0.0
 10
48.270482
 20
-67.603632
 30
0.0
  0
LWPOLYLINE
  5
128
100
AcDbEntity
  8
0
 62
7
100
AcDbPolyline
 90
2
 70
0
 10
64.373024
 20
-56.328491
 30
0.0
 10
61.959324
 20
-70.017332
 30
0.0
  0
LWPOLYLINE
  5
129
100
AcDbEntity
  8
0
 62
7
100
AcDbPolyline
 90
2
 70
0
 10
50.684183
 20
-53.914790
 30
0.0
 10
64.373024
 20
-56.328491
 30
0.0
  0
LWPOLYLINE
  5
12a
100
AcDbEntity
  8
0
 62
7
100
AcDbPolyline
 90
2
 70
0
 10
48.270482
 20
-67.603632
 30
0.0
 10
50.684183
 20
-53.914790
 30
0.0
  0
LWPOLYLINE
  5
12b
100
AcDbEntity
  8
0
 62
7
100
AcDbPolyline
 90
2
 70
0
 10
78.017295
 20
-88.638027
 30
0.0
 10
64.328453
 20
-86.224325
 30
0.0
  0
LWPOLYLINE
  5
12c
100
AcDbEntity
  8
0
 62
7
100
AcDbPolyline
 90
2
 70
0
 10
80.431018
 20
-74.949185
 30
0.0
 10
78.017295
 20
-88.638027
 30
0.0
  0
LWPOLYLINE
  5
12d
100
AcDbEntity
  8
0
 62
7
100
AcDbPolyline
 90
2
 70
0
 10
66.742176
 20
-72.535484
 30
0.0
 10
80.431018
 20
-74.949185
 30
0.0
  0
LWPOLYLINE
  5
12e
100
AcDbEntity
  8
0
 62
7
100
AcDbPolyline
 90
2
 70
0
 10
64.328453
 20
-86.224325
 30
0.0
 10
66.742176
 20
-72.535484
 30
0.0
  0
LWPOLYLINE
  5
12f
100
AcDbEntity
  8
0
 62
7
100
AcDbPolyline
 90
2
 70
0
 10
96.172536
 20
-95.393951
 30
0.0
 10
82.483694
 20
-92.980229
 30
0.0
  0
LWPOLYLINE
  5
130
100
AcDbEntity
  8
0
 62
7
100
AcDbPolyline
 90
2
 70
0
 10
98.586236
 20
-81.705109
 30
0.0
 10
96.172536
 20
-95.393951
 30
0.0
  0
LWPOLYLINE
  5
131
100
AcDbEntity
  8
0
 62
7
100
AcDbPolyline
 90
2
 70
0
 10
212.979492
 20
-75.227893
 30
0.0
 10
226.668333
 20
-72.814193
 30
0.0
  0
LWPOLYLINE
  5
132
100
AcDbEntity
  8
0
 62
7
100
AcDbPolyline
 90
2
 70
0
 10
215.393192
 20
-88.916735
 30
0.0
 10
212.979492
 20
-75.227893
 30
0.0
  0
LWPOLYLINE
  5
133
100
AcDbEntity
  8
0
 62
7
100
AcDbPolyline
 90
2
 70
0
 10
196.024826
 20
-88.777897
 30
0.0
 10
193.611124
 20
-75.089056
 30
0.0
  0
SPLINE
  5
134
100
AcDbEntity
  8
0
 62
7
100
AcDbSpline
 70
8
 71
3
 72
8
 73
4
 74
0
 40
0
 40
0
 40
0
 40
0
 40
1
 40
1
 40
1
 40
1
 10
107.837058
 20
-38.815675
 30
0.0
 10
107.685087
 20
-38.607268
 30
0.0
 10
107.458441
 20
-38.465632
 30
0.0
 10
107.204495
 20
-38.420394
 30
0.0
  0
LWPOLYLINE
  5
135
100
AcDbEntity
  8
0
 62
7
100
AcDbPolyline
 90
2
 70
0
 10
229.082034
 20
-86.503034
 30
0.0
 10
215.393192
 20
-88.916735
 30
0.0
  0
SPLINE
  5
136
100
AcDbEntity
  8
0
 62
7
100
AcDbSpline
 70
8
 71
3
 72
8
 73
4
 74
0
 40
0
 40
0
 40
0
 40
0
 40
1
 40
1
 40
1
 40
1
 10
109.036405
 20
-39.986513
 30
0.0
 10
108.781920
 20
-39.941555
 30
0.0
 10
108.554715
 20
-39.799789
 30
0.0
 10
108.402442
 20
-39.590995
 30
0.0
  0
LWPOLYLINE
  5
137
100
AcDbEntity
  8
0
 62
7
100
AcDbPolyline
 90
2
 70
0
 10
108.402442
 20
-39.590995
 30
0.0
 10
107.837058
 20
-38.815675
 30
0.0
  0
SPLINE
  5
138
100
AcDbEntity
  8
0
 62
7
100
AcDbSpline
 70
8
 71
3
 72
8
 73
4
 74
0
 40
0
 40
0
 40
0
 40
0
 40
1
 40
1
 40
1
 40
1
 10
72.122947
 20
-101.509066
 30
0.0
 10
72.852231
 20
-101.789303
 30
0.0
 10
73.443431
 20
-102.342974
 30
0.0
 10
73.770802
 20
-103.052341
 30
0.0
  0
LWPOLYLINE
  5
139
100
AcDbEntity
  8
0
 62
7
100
AcDbPolyline
 90
2
 70
0
 10
142.141155
 20
-45.836959
 30
0.0
 10
109.036405
 20
-39.986513
 30
0.0
  0
SPLINE
  5
13a
100
AcDbEntity
  8
0
 62
7
100
AcDbSpline
 70
8
 71
3
 72
8
 73
4
 74
0
 40
0
 40
0
 40
0
 40
0
 40
1
 40
1
 40
1
 40
1
 10
52.410414
 20
-94.184463
 30
0.0
 10
52.808646
 20
-94.172405
 30
0.0
 10
53.205307
 20
-94.239800
 30
0.0
 10
53.577205
 20
-94.382707
 30
0.0
  0
LWPOLYLINE
  5
13b
100
AcDbEntity
  8
0
 62
7
100
AcDbPolyline
 90
2
 70
0
 10
53.577205
 20
-94.382707
 30
0.0
 10
72.122947
 20
-101.509066
 30
0.0
  0
SPLINE
  5
13c
100
AcDbEntity
  8
0
 62
7
100
AcDbSpline
 70
8
 71
3
 72
8
 73
4
 74
0
 40
0
 40
0
 40
0
 40
0
 40
1
 40
1
 40
1
 40
1
 10
180.913266
 20
-103.051156
 30
0.0
 10
181.240723
 20
-102.342522
 30
0.0
 10
181.831492
 20
-101.789411
 30
0.0
 10
182.560174
 20
-101.509303
 30
0.0
  0
LWPOLYLINE
  5
13d
100
AcDbEntity
  8
0
 62
7
100
AcDbPolyline
 90
2
 70
0
 10
42.283891
 20
-94.490883
 30
0.0
 10
52.410414
 20
-94.184463
 30
0.0
  0
SPLINE
  5
13e
100
AcDbEntity
  8
0
 62
7
100
AcDbSpline
 70
8
 71
3
 72
8
 73
4
 74
0
 40
0
 40
0
 40
0
 40
0
 40
1
 40
1
 40
1
 40
1
 10
171.505304
 20
-122.558081
 30
0.0
 10
171.813555
 20
-122.475550
 30
0.0
 10
172.063905
 20
-122.250843
 30
0.0
 10
172.179165
 20
-121.953272
 30
0.0
  0
LWPOLYLINE
  5
13f
100
AcDbEntity
  8
0
 62
7
100
AcDbPolyline
 90
2
 70
0
 10
172.179165
 20
-121.953272
 30
0.0
 10
180.913266
 20
-103.051156
 30
0.0
  0
LWPOLYLINE
  5
140
100
AcDbEntity
  8
0
 62
7
100
AcDbPolyline
 90
2
 70
0
 10
149.114617
 20
-128.557764
 30
0.0
 10
171.505304
 20
-122.558081
 30
0.0
  0
LWPOLYLINE
  5
141
100
AcDbEntity
  8
0
 62
7
100
AcDbPolyline
 90
2
 70
0
 10
105.551171
 20
-128.557764
 30
0.0
 10
149.114617
 20
-128.557764
 30
0.0
  0
SPLINE
  5
142
100
AcDbEntity
  8
0
 62
7
100
AcDbSpline
 70
8
 71
3
 72
8
 73
4
 74
0
 40
0
 40
0
 40
0
 40
0
 40
1
 40
1
 40
1
 40
1
 10
82.504171
 20
-121.976010
 30
0.0
 10
82.619625
 20
-122.273387
 30
0.0
 10
82.870018
 20
-122.497857
 30
0.0
 10
83.178204
 20
-122.580216
 30
0.0
  0
LWPOLYLINE
  5
143
100
AcDbEntity
  8
0
 62
7
100
AcDbPolyline
 90
2
 70
0
 10
83.178204
 20
-122.580216
 30
0.0
 10
105.551171
 20
-128.557764
 30
0.0
  0
SPLINE
  5
144
100
AcDbEntity
  8
0
 62
7
100
AcDbSpline
 70
8
 71
3
 72
8
 73
4
 74
0
 40
0
 40
0
 40
0
 40
0
 40
1
 40
1
 40
1
 40
1
 10
143.299656
 20
-45.027770
 30
0.0
 10
143.202805
 20
-45.570890
 30
0.0
 10
142.684405
 20
-45.932948
 30
0.0
 10
142.141155
 20
-45.836959
 30
0.0
  0
LWPOLYLINE
  5
145
100
AcDbEntity
  8
0
 62
7
100
AcDbPolyline
 90
2
 70
0
 10
73.770802
 20
-103.052341
 30
0.0
 10
82.504171
 20
-121.976010
 30
0.0
  0
SPLINE
  5
146
100
AcDbEntity
  8
0
 62
7
100
AcDbSpline
 70
8
 71
3
 72
8
 73
4
 74
0
 40
0
 40
0
 40
0
 40
0
 40
1
 40
1
 40
1
 40
1
 10
147.453304
 20
-27.415111
 30
0.0
 10
146.910507
 20
-27.320070
 30
0.0
 10
146.393096
 20
-27.682042
 30
0.0
 10
146.296353
 20
-28.224559
 30
0.0
  0
LWPOLYLINE
  5
147
100
AcDbEntity
  8
0
 62
7
100
AcDbPolyline
 90
2
 70
0
 10
146.296353
 20
-28.224559
 30
0.0
 10
143.299656
 20
-45.027770
 30
0.0
  0
LWPOLYLINE
  5
148
100
AcDbEntity
  8
0
 62
7
100
AcDbPolyline
 90
2
 70
0
 10
161.967720
 20
-29.956863
 30
0.0
 10
147.453304
 20
-27.415111
 30
0.0
  0
LWPOLYLINE
  5
149
100
AcDbEntity
  8
0
 62
7
100
AcDbPolyline
 90
2
 70
0
 10
61.065041
 20
-75.089099
 30
0.0
 10
58.651319
 20
-88.777941
 30
0.0
  0
LWPOLYLINE
  5
14a
100
AcDbEntity
  8
0
 62
7
100
AcDbPolyline
 90
2
 70
0
 10
47.376199
 20
-72.675398
 30
0.0
 10
61.065041
 20
-75.089099
 30
0.0
  0
SPLINE
  5
14b
100
AcDbEntity
  8
0
 62
7
100
AcDbSpline
 70
8
 71
3
 72
8
 73
4
 74
0
 40
0
 40
0
 40
0
 40
0
 40
1
 40
1
 40
1
 40
1
 10
41.679384
 20
-94.447948
 30
0.0
 10
41.878920
 20
-94.482615
 30
0.0
 10
42.081448
 20
-94.497019
 30
0.0
 10
42.283891
 20
-94.490883
 30
0.0
  0
LWPOLYLINE
  5
14c
100
AcDbEntity
  8
0
 62
7
100
AcDbPolyline
 90
2
 70
0
 10
44.962477
 20
-86.364240
 30
0.0
 10
47.376199
 20
-72.675398
 30
0.0
  0
SPLINE
  5
14d
100
AcDbEntity
  8
0
 62
7
100
AcDbSpline
 70
8
 71
3
 72
8
 73
4
 74
0
 40
0
 40
0
 40
0
 40
0
 40
1
 40
1
 40
1
 40
1
 10
20.208473
 20
-87.661858
 30
0.0
 10
19.919796
 20
-89.294339
 30
0.0
 10
21.009889
 20
-90.851481
 30
0.0
 10
22.642587
 20
-91.138866
 30
0.0
  0
LWPOLYLINE
  5
14e
100
AcDbEntity
  8
0
 62
7
100
AcDbPolyline
 90
2
 70
0
 10
22.642587
 20
-91.138866
 30
0.0
 10
41.679384
 20
-94.447948
 30
0.0
  0
SPLINE
  5
14f
100
AcDbEntity
  8
0
 62
7
100
AcDbSpline
 70
8
 71
3
 72
8
 73
4
 74
0
 40
0
 40
0
 40
0
 40
0
 40
1
 40
1
 40
1
 40
1
 10
32.935938
 20
-29.956733
 30
0.0
 10
31.480621
 20
-29.956733
 30
0.0
 10
30.235197
 20
-31.001223
 30
0.0
 10
29.981767
 20
-32.434319
 30
0.0
  0
LWPOLYLINE
  5
150
100
AcDbEntity
  8
0
 62
7
100
AcDbPolyline
 90
2
 70
0
 10
29.981767
 20
-32.434319
 30
0.0
 10
20.208473
 20
-87.661858
 30
0.0
  0
LWPOLYLINE
  5
151
100
AcDbEntity
  8
0
 62
7
100
AcDbPolyline
 90
2
 70
0
 10
74.585352
 20
-29.956863
 30
0.0
 10
32.935938
 20
-29.956733
 30
0.0
  0
SPLINE
  5
152
100
AcDbEntity
  8
0
 62
7
100
AcDbSpline
 70
8
 71
3
 72
8
 73
4
 74
0
 40
0
 40
0
 40
0
 40
0
 40
1
 40
1
 40
1
 40
1
 10
93.284186
 20
-33.724551
 30
0.0
 10
93.150538
 20
-33.417033
 30
0.0
 10
92.871656
 20
-33.196935
 30
0.0
 10
92.541487
 20
-33.138433
 30
0.0
  0
LWPOLYLINE
  5
153
100
AcDbEntity
  8
0
 62
7
100
AcDbPolyline
 90
2
 70
0
 10
92.541487
 20
-33.138433
 30
0.0
 10
74.585352
 20
-29.956863
 30
0.0
  0
SPLINE
  5
154
100
AcDbEntity
  8
0
 62
7
100
AcDbSpline
 70
8
 71
3
 72
8
 73
4
 74
0
 40
0
 40
0
 40
0
 40
0
 40
1
 40
1
 40
1
 40
1
 10
94.855753
 20
-36.220160
 30
0.0
 10
94.525972
 20
-36.161399
 30
0.0
 10
94.247522
 20
-35.941430
 30
0.0
 10
94.114024
 20
-35.634213
 30
0.0
  0
LWPOLYLINE
  5
155
100
AcDbEntity
  8
0
 62
7
100
AcDbPolyline
 90
2
 70
0
 10
94.114024
 20
-35.634213
 30
0.0
 10
93.284186
 20
-33.724551
 30
0.0
  0
SPLINE
  5
156
100
AcDbEntity
  8
0
 62
7
100
AcDbSpline
 70
8
 71
3
 72
8
 73
4
 74
0
 40
0
 40
0
 40
0
 40
0
 40
1
 40
1
 40
1
 40
1
 10
232.007569
 20
-91.144163
 30
0.0
 10
233.639491
 20
-90.856670
 30
0.0
 10
234.729262
 20
-89.300540
 30
0.0
 10
234.441509
 20
-87.668683
 30
0.0
  0
LWPOLYLINE
  5
157
100
AcDbEntity
  8
0
 62
7
100
AcDbPolyline
 90
2
 70
0
 10
107.204495
 20
-38.420394
 30
0.0
 10
94.855753
 20
-36.220160
 30
0.0
  0
SPLINE
  5
158
100
AcDbEntity
  8
0
 62
7
100
AcDbSpline
 70
8
 71
3
 72
8
 73
4
 74
0
 40
0
 40
0
 40
0
 40
0
 40
1
 40
1
 40
1
 40
1
 10
212.392080
 20
-94.491959
 30
0.0
 10
212.594631
 20
-94.498096
 30
0.0
 10
212.797289
 20
-94.483713
 30
0.0
 10
212.996933
 20
-94.449003
 30
0.0
  0
LWPOLYLINE
  5
159
100
AcDbEntity
  8
0
 62
7
100
AcDbPolyline
 90
2
 70
0
 10
212.996933
 20
-94.449003
 30
0.0
 10
232.007569
 20
-91.144163
 30
0.0
  0
SPLINE
  5
15a
100
AcDbEntity
  8
0
 62
7
100
AcDbSpline
 70
8
 71
3
 72
8
 73
4
 74
0
 40
0
 40
0
 40
0
 40
0
 40
1
 40
1
 40
1
 40
1
 10
224.703916
 20
-32.435869
 30
0.0
 10
224.451089
 20
-31.002127
 30
0.0
 10
223.205363
 20
-29.956863
 30
0.0
 10
221.749486
 20
-29.956863
 30
0.0
  0
LWPOLYLINE
  5
15b
100
AcDbEntity
  8
0
 62
7
100
AcDbPolyline
 90
2
 70
0
 10
221.749486
 20
-29.956863
 30
0.0
 10
161.967720
 20
-29.956863
 30
0.0
  0
LWPOLYLINE
  5
15c
100
AcDbEntity
  8
0
 62
7
100
AcDbPolyline
 90
2
 70
0
 10
234.441509
 20
-87.668683
 30
0.0
 10
224.703916
 20
-32.435869
 30
0.0
  0
LWPOLYLINE
  5
15d
100
AcDbEntity
  8
0
 62
7
100
AcDbPolyline
 90
2
 70
0
 10
223.360328
 20
-54.053584
 30
0.0
 10
225.774050
 20
-67.742426
 30
0.0
  0
LWPOLYLINE
  5
15e
100
AcDbEntity
  8
0
 62
7
100
AcDbPolyline
 90
2
 70
0
 10
209.671487
 20
-56.467285
 30
0.0
 10
223.360328
 20
-54.053584
 30
0.0
  0
LWPOLYLINE
  5
15f
100
AcDbEntity
  8
0
 62
7
100
AcDbPolyline
 90
2
 70
0
 10
212.085209
 20
-70.156126
 30
0.0
 10
209.671487
 20
-56.467285
 30
0.0
  0
LWPOLYLINE
  5
160
100
AcDbEntity
  8
0
 62
7
100
AcDbPolyline
 90
2
 70
0
 10
225.774050
 20
-67.742426
 30
0.0
 10
212.085209
 20
-70.156126
 30
0.0
  0
LWPOLYLINE
  5
161
100
AcDbEntity
  8
0
 62
7
100
AcDbPolyline
 90
2
 70
0
 10
206.363503
 20
-37.706676
 30
0.0
 10
220.052344
 20
-35.292976
 30
0.0
  0
LWPOLYLINE
  5
162
100
AcDbEntity
  8
0
 62
7
100
AcDbPolyline
 90
2
 70
0
 10
208.777203
 20
-51.395518
 30
0.0
 10
206.363503
 20
-37.706676
 30
0.0
  0
LWPOLYLINE
  5
163
100
AcDbEntity
  8
0
 62
7
100
AcDbPolyline
 90
2
 70
0
 10
222.466045
 20
-48.981817
 30
0.0
 10
208.777203
 20
-51.395518
 30
0.0
  0
LWPOLYLINE
  5
164
100
AcDbEntity
  8
0
 62
7
100
AcDbPolyline
 90
2
 70
0
 10
220.052344
 20
-35.292976
 30
0.0
 10
222.466045
 20
-48.981817
 30
0.0
  0
LWPOLYLINE
  5
165
100
AcDbEntity
  8
0
 62
7
100
AcDbPolyline
 90
2
 70
0
 10
186.995135
 20
-37.567861
 30
0.0
 10
200.683977
 20
-35.154139
 30
0.0
  0
LWPOLYLINE
  5
166
100
AcDbEntity
  8
0
 62
7
100
AcDbPolyline
 90
2
 70
0
 10
189.408836
 20
-51.256702
 30
0.0
 10
186.995135
 20
-37.567861
 30
0.0
  0
LWPOLYLINE
  5
167
100
AcDbEntity
  8
0
 62
7
100
AcDbPolyline
 90
2
 70
0
 10
203.097678
 20
-48.842980
 30
0.0
 10
189.408836
 20
-51.256702
 30
0.0
  0
LWPOLYLINE
  5
168
100
AcDbEntity
  8
0
 62
7
100
AcDbPolyline
 90
2
 70
0
 10
200.683977
 20
-35.154139
 30
0.0
 10
203.097678
 20
-48.842980
 30
0.0
  0
LWPOLYLINE
  5
169
100
AcDbEntity
  8
0
 62
7
100
AcDbPolyline
 90
2
 70
0
 10
184.623960
 20
-53.776942
 30
0.0
 10
187.037682
 20
-67.465785
 30
0.0
  0
LWPOLYLINE
  5
16a
100
AcDbEntity
  8
0
 62
7
100
AcDbPolyline
 90
2
 70
0
 10
170.935119
 20
-56.190665
 30
0.0
 10
184.623960
 20
-53.776942
 30
0.0
  0
LWPOLYLINE
  5
16b
100
AcDbEntity
  8
0
 62
7
100
AcDbPolyline
 90
2
 70
0
 10
173.348841
 20
-69.879507
 30
0.0
 10
170.935119
 20
-56.190665
 30
0.0
  0
LWPOLYLINE
  5
16c
100
AcDbEntity
  8
0
 62
7
100
AcDbPolyline
 90
2
 70
0
 10
187.037682
 20
-67.465785
 30
0.0
 10
173.348841
 20
-69.879507
 30
0.0
  0
LWPOLYLINE
  5
16d
100
AcDbEntity
  8
0
 62
7
100
AcDbPolyline
 90
2
 70
0
 10
167.627135
 20
-37.430057
 30
0.0
 10
181.315977
 20
-35.016356
 30
0.0
  0
LWPOLYLINE
  5
16e
100
AcDbEntity
  8
0
 62
7
100
AcDbPolyline
 90
2
 70
0
 10
170.040836
 20
-51.118898
 30
0.0
 10
167.627135
 20
-37.430057
 30
0.0
  0
LWPOLYLINE
  5
16f
100
AcDbEntity
  8
0
 62
7
100
AcDbPolyline
 90
2
 70
0
 10
183.729677
 20
-48.705198
 30
0.0
 10
170.040836
 20
-51.118898
 30
0.0
  0
LWPOLYLINE
  5
170
100
AcDbEntity
  8
0
 62
7
100
AcDbPolyline
 90
2
 70
0
 10
181.315977
 20
-35.016356
 30
0.0
 10
183.729677
 20
-48.705198
 30
0.0
  0
LWPOLYLINE
  5
171
100
AcDbEntity
  8
0
 62
7
100
AcDbPolyline
 90
2
 70
0
 10
166.470745
 20
-60.530736
 30
0.0
 10
168.884445
 20
-74.219577
 30
0.0
  0
LWPOLYLINE
  5
172
100
AcDbEntity
  8
0
 62
7
100
AcDbPolyline
 90
2
 70
0
 10
152.781903
 20
-62.944436
 30
0.0
 10
166.470745
 20
-60.530736
 30
0.0
  0
LWPOLYLINE
  5
173
100
AcDbEntity
  8
0
 62
7
100
AcDbPolyline
 90
2
 70
0
 10
155.195604
 20
-76.633278
 30
0.0
 10
152.781903
 20
-62.944436
 30
0.0
  0
LWPOLYLINE
  5
174
100
AcDbEntity
  8
0
 62
7
100
AcDbPolyline
 90
2
 70
0
 10
168.884445
 20
-74.219577
 30
0.0
 10
155.195604
 20
-76.633278
 30
0.0
  0
LWPOLYLINE
  5
175
100
AcDbEntity
  8
0
 62
7
100
AcDbPolyline
 90
2
 70
0
 10
149.473919
 20
-44.183850
 30
0.0
 10
163.162760
 20
-41.770127
 30
0.0
  0
LWPOLYLINE
  5
176
100
AcDbEntity
  8
0
 62
7
100
AcDbPolyline
 90
2
 70
0
 10
151.887620
 20
-57.872691
 30
0.0
 10
149.473919
 20
-44.183850
 30
0.0
  0
LWPOLYLINE
  5
177
100
AcDbEntity
  8
0
 62
7
100
AcDbPolyline
 90
2
 70
0
 10
165.576462
 20
-55.458969
 30
0.0
 10
151.887620
 20
-57.872691
 30
0.0
  0
LWPOLYLINE
  5
178
100
AcDbEntity
  8
0
 62
7
100
AcDbPolyline
 90
2
 70
0
 10
163.162760
 20
-41.770127
 30
0.0
 10
165.576462
 20
-55.458969
 30
0.0
  0
LWPOLYLINE
  5
179
100
AcDbEntity
  8
0
 62
7
100
AcDbPolyline
 90
2
 70
0
 10
134.629074
 20
-69.699264
 30
0.0
 10
148.317916
 20
-67.285562
 30
0.0
  0
LWPOLYLINE
  5
17a
100
AcDbEntity
  8
0
 62
7
100
AcDbPolyline
 90
2
 70
0
 10
137.042776
 20
-83.388105
 30
0.0
 10
134.629074
 20
-69.699264
 30
0.0
  0
LWPOLYLINE
  5
17b
100
AcDbEntity
  8
0
 62
7
100
AcDbPolyline
 90
2
 70
0
 10
150.731617
 20
-80.974404
 30
0.0
 10
137.042776
 20
-83.388105
 30
0.0
  0
LWPOLYLINE
  5
17c
100
AcDbEntity
  8
0
 62
7
100
AcDbPolyline
 90
2
 70
0
 10
148.317916
 20
-67.285562
 30
0.0
 10
150.731617
 20
-80.974404
 30
0.0
  0
LWPOLYLINE
  5
17d
100
AcDbEntity
  8
0
 62
7
100
AcDbPolyline
 90
2
 70
0
 10
131.321069
 20
-50.938655
 30
0.0
 10
145.009911
 20
-48.524954
 30
0.0
  0
LWPOLYLINE
  5
17e
100
AcDbEntity
  8
0
 62
7
100
AcDbPolyline
 90
2
 70
0
 10
133.734791
 20
-64.627497
 30
0.0
 10
131.321069
 20
-50.938655
 30
0.0
  0
LWPOLYLINE
  5
17f
100
AcDbEntity
  8
0
 62
7
100
AcDbPolyline
 90
2
 70
0
 10
147.423633
 20
-62.213796
 30
0.0
 10
133.734791
 20
-64.627497
 30
0.0
  0
LWPOLYLINE
  5
180
100
AcDbEntity
  8
0
 62
7
100
AcDbPolyline
 90
2
 70
0
 10
145.009911
 20
-48.524954
 30
0.0
 10
147.423633
 20
-62.213796
 30
0.0
  0
LWPOLYLINE
  5
181
100
AcDbEntity
  8
0
 62
7
100
AcDbPolyline
 90
2
 70
0
 10
107.252532
 20
-62.213861
 30
0.0
 10
109.666233
 20
-48.525018
 30
0.0
  0
LWPOLYLINE
  5
182
100
AcDbEntity
  8
0
 62
7
100
AcDbPolyline
 90
2
 70
0
 10
120.941374
 20
-64.627561
 30
0.0
 10
107.252532
 20
-62.213861
 30
0.0
  0
LWPOLYLINE
  5
183
100
AcDbEntity
  8
0
 62
7
100
AcDbPolyline
 90
2
 70
0
 10
123.355074
 20
-50.938720
 30
0.0
 10
120.941374
 20
-64.627561
 30
0.0
  0
LWPOLYLINE
  5
184
100
AcDbEntity
  8
0
 62
7
100
AcDbPolyline
 90
2
 70
0
 10
109.666233
 20
-48.525018
 30
0.0
 10
123.355074
 20
-50.938720
 30
0.0
  0
LWPOLYLINE
  5
185
100
AcDbEntity
  8
0
 62
7
100
AcDbPolyline
 90
2
 70
0
 10
106.358228
 20
-67.285627
 30
0.0
 10
120.047069
 20
-69.699328
 30
0.0
  0
LWPOLYLINE
  5
186
100
AcDbEntity
  8
0
 62
7
100
AcDbPolyline
 90
2
 70
0
 10
103.944527
 20
-80.974468
 30
0.0
 10
106.358228
 20
-67.285627
 30
0.0
  0
LWPOLYLINE
  5
187
100
AcDbEntity
  8
0
 62
7
100
AcDbPolyline
 90
2
 70
0
 10
117.633369
 20
-83.388170
 30
0.0
 10
103.944527
 20
-80.974468
 30
0.0
  0
LWPOLYLINE
  5
188
100
AcDbEntity
  8
0
 62
7
100
AcDbPolyline
 90
2
 70
0
 10
120.047069
 20
-69.699328
 30
0.0
 10
117.633369
 20
-83.388170
 30
0.0
  0
LWPOLYLINE
  5
189
100
AcDbEntity
  8
0
 62
7
100
AcDbPolyline
 90
2
 70
0
 10
89.099683
 20
-55.459012
 30
0.0
 10
91.513405
 20
-41.770192
 30
0.0
  0
LWPOLYLINE
  5
18a
100
AcDbEntity
  8
0
 62
7
100
AcDbPolyline
 90
2
 70
0
 10
102.788524
 20
-57.872734
 30
0.0
 10
89.099683
 20
-55.459012
 30
0.0
  0
LWPOLYLINE
  5
18b
100
AcDbEntity
  8
0
 62
7
100
AcDbPolyline
 90
2
 70
0
 10
105.202246
 20
-44.183893
 30
0.0
 10
102.788524
 20
-57.872734
 30
0.0
  0
LWPOLYLINE
  5
18c
100
AcDbEntity
  8
0
 62
7
100
AcDbPolyline
 90
2
 70
0
 10
91.513405
 20
-41.770192
 30
0.0
 10
105.202246
 20
-44.183893
 30
0.0
  0
LWPOLYLINE
  5
18d
100
AcDbEntity
  8
0
 62
7
100
AcDbPolyline
 90
2
 70
0
 10
88.205400
 20
-60.530779
 30
0.0
 10
101.894241
 20
-62.944501
 30
0.0
  0
LWPOLYLINE
  5
18e
100
AcDbEntity
  8
0
 62
7
100
AcDbPolyline
 90
2
 70
0
 10
85.791699
 20
-74.219621
 30
0.0
 10
88.205400
 20
-60.530779
 30
0.0
  0
LWPOLYLINE
  5
18f
100
AcDbEntity
  8
0
 62
7
100
AcDbPolyline
 90
2
 70
0
 10
99.480541
 20
-76.633343
 30
0.0
 10
85.791699
 20
-74.219621
 30
0.0
  0
LWPOLYLINE
  5
190
100
AcDbEntity
  8
0
 62
7
100
AcDbPolyline
 90
2
 70
0
 10
101.894241
 20
-62.944501
 30
0.0
 10
99.480541
 20
-76.633343
 30
0.0
  0
LWPOLYLINE
  5
191
100
AcDbEntity
  8
0
 62
7
100
AcDbPolyline
 90
2
 70
0
 10
70.944465
 20
-48.703109
 30
0.0
 10
73.358165
 20
-35.014268
 30
0.0
  0
LWPOLYLINE
  5
192
100
AcDbEntity
  8
0
 62
7
100
AcDbPolyline
 90
2
 70
0
 10
84.633306
 20
-51.116831
 30
0.0
 10
70.944465
 20
-48.703109
 30
0.0
  0
LWPOLYLINE
  5
193
100
AcDbEntity
  8
0
 62
7
100
AcDbPolyline
 90
2
 70
0
 10
87.047007
 20
-37.427990
 30
0.0
 10
84.633306
 20
-51.116831
 30
0.0
  0
LWPOLYLINE
  5
194
100
AcDbEntity
  8
0
 62
7
100
AcDbPolyline
 90
2
 70
0
 10
73.358165
 20
-35.014268
 30
0.0
 10
87.047007
 20
-37.427990
 30
0.0
  0
LWPOLYLINE
  5
195
100
AcDbEntity
  8
0
 62
7
100
AcDbPolyline
 90
2
 70
0
 10
70.050182
 20
-53.774875
 30
0.0
 10
83.739023
 20
-56.188577
 30
0.0
  0
LWPOLYLINE
  5
196
100
AcDbEntity
  8
0
 62
7
100
AcDbPolyline
 90
2
 70
0
 10
67.636459
 20
-67.463718
 30
0.0
 10
70.050182
 20
-53.774875
 30
0.0
  0
LWPOLYLINE
  5
197
100
AcDbEntity
  8
0
 62
7
100
AcDbPolyline
 90
2
 70
0
 10
81.325300
 20
-69.877418
 30
0.0
 10
67.636459
 20
-67.463718
 30
0.0
  0
LWPOLYLINE
  5
198
100
AcDbEntity
  8
0
 62
7
100
AcDbPolyline
 90
2
 70
0
 10
83.739023
 20
-56.188577
 30
0.0
 10
81.325300
 20
-69.877418
 30
0.0
  0
LWPOLYLINE
  5
199
100
AcDbEntity
  8
0
 62
7
100
AcDbPolyline
 90
2
 70
0
 10
51.578488
 20
-48.843023
 30
0.0
 10
53.992188
 20
-35.154182
 30
0.0
  0
LWPOLYLINE
  5
19a
100
AcDbEntity
  8
0
 62
7
100
AcDbPolyline
 90
2
 70
0
 10
65.267329
 20
-51.256724
 30
0.0
 10
51.578488
 20
-48.843023
 30
0.0
  0
LWPOLYLINE
  5
19b
100
AcDbEntity
  8
0
 62
7
100
AcDbPolyline
 90
2
 70
0
 10
67.681030
 20
-37.567882
 30
0.0
 10
65.267329
 20
-51.256724
 30
0.0
  0
LWPOLYLINE
  5
19c
100
AcDbEntity
  8
0
 62
7
100
AcDbPolyline
 90
2
 70
0
 10
53.992188
 20
-35.154182
 30
0.0
 10
67.681030
 20
-37.567882
 30
0.0
  0
LWPOLYLINE
  5
19d
100
AcDbEntity
  8
0
 62
7
100
AcDbPolyline
 90
2
 70
0
 10
32.210100
 20
-48.981861
 30
0.0
 10
34.623822
 20
-35.293019
 30
0.0
  0
LWPOLYLINE
  5
19e
100
AcDbEntity
  8
0
 62
7
100
AcDbPolyline
 90
2
 70
0
 10
45.898941
 20
-51.395561
 30
0.0
 10
32.210100
 20
-48.981861
 30
0.0
  0
LWPOLYLINE
  5
19f
100
AcDbEntity
  8
0
 62
7
100
AcDbPolyline
 90
2
 70
0
 10
48.312663
 20
-37.706719
 30
0.0
 10
45.898941
 20
-51.395561
 30
0.0
  0
LWPOLYLINE
  5
1a0
100
AcDbEntity
  8
0
 62
7
100
AcDbPolyline
 90
2
 70
0
 10
34.623822
 20
-35.293019
 30
0.0
 10
48.312663
 20
-37.706719
 30
0.0
  0
LWPOLYLINE
  5
1a1
100
AcDbEntity
  8
0
 62
7
100
AcDbPolyline
 90
2
 70
0
 10
28.902094
 20
-67.742447
 30
0.0
 10
31.315816
 20
-54.053606
 30
0.0
  0
LWPOLYLINE
  5
1a2
100
AcDbEntity
  8
0
 62
7
100
AcDbPolyline
 90
2
 70
0
 10
42.590936
 20
-70.156169
 30
0.0
 10
28.902094
 20
-67.742447
 30
0.0
  0
LWPOLYLINE
  5
1a3
100
AcDbEntity
  8
0
 62
7
100
AcDbPolyline
 90
2
 70
0
 10
45.004658
 20
-56.467328
 30
0.0
 10
42.590936
 20
-70.156169
 30
0.0
  0
LWPOLYLINE
  5
1a4
100
AcDbEntity
  8
0
 62
7
100
AcDbPolyline
 90
2
 70
0
 10
31.315816
 20
-54.053606
 30
0.0
 10
45.004658
 20
-56.467328
 30
0.0
  0
LWPOLYLINE
  5
1a5
100
AcDbEntity
  8
0
 62
7
100
AcDbPolyline
 90
2
 70
0
 10
39.282951
 20
-88.916778
 30
0.0
 10
25.594110
 20
-86.503056
 30
0.0
  0
LWPOLYLINE
  5
1a6
100
AcDbEntity
  8
0
 62
7
100
AcDbPolyline
 90
2
 70
0
 10
41.696653
 20
-75.227936
 30
0.0
 10
39.282951
 20
-88.916778
 30
0.0
  0
LWPOLYLINE
  5
1a7
100
AcDbEntity
  8
0
 62
7
100
AcDbPolyline
 90
2
 70
0
 10
28.007811
 20
-72.814214
 30
0.0
 10
41.696653
 20
-75.227936
 30
0.0
  0
LWPOLYLINE
  5
1a8
100
AcDbEntity
  8
0
 62
7
100
AcDbPolyline
 90
2
 70
0
 10
25.594110
 20
-86.503056
 30
0.0
 10
28.007811
 20
-72.814214
 30
0.0
  0
SPLINE
  5
1a9
100
AcDbEntity
  8
0
 62
7
100
AcDbSpline
 70
8
 71
3
 72
8
 73
4
 74
0
 40
0
 40
0
 40
0
 40
0
 40
1
 40
1
 40
1
 40
1
 10
201.098617
 20
-94.382922
 30
0.0
 10
201.470730
 20
-94.239886
 30
0.0
 10
201.867627
 20
-94.172427
 30
0.0
 10
202.266096
 20
-94.184528
 30
0.0
  0
LWPOLYLINE
  5
1aa
100
AcDbEntity
  8
0
 62
7
100
AcDbPolyline
 90
2
 70
0
 10
202.266096
 20
-94.184528
 30
0.0
 10
212.392080
 20
-94.491959
 30
0.0
  0
SPLINE
  5
1ab
100
AcDbEntity
  8
0
 62
7
100
AcDbSpline
 70
8
 71
3
 72
8
 73
4
 74
0
 40
0
 40
0
 40
0
 40
0
 40
1
 40
1
 40
1
 40
1
 10
122.004860
 20
-73.314004
 30
0.0
 10
121.600398
 20
-73.314004
 30
0.0
 10
121.235761
 20
-73.557647
 30
0.0
 10
121.080980
 20
-73.931321
 30
0.0
  0
SPLINE
  5
1ac
100
AcDbEntity
  8
0
 62
7
100
AcDbSpline
 70
8
 71
3
 72
8
 73
4
 74
0
 40
0
 40
0
 40
0
 40
0
 40
1
 40
1
 40
1
 40
1
 10
121.080980
 20
-73.931321
 30
0.0
 10
120.926199
 20
-74.304996
 30
0.0
 10
121.011754
 20
-74.735114
 30
0.0
 10
121.297753
 20
-75.021112
 30
0.0
  0
SPLINE
  5
1ad
100
AcDbEntity
  8
0
 62
7
100
AcDbSpline
 70
8
 71
3
 72
8
 73
4
 74
0
 40
0
 40
0
 40
0
 40
0
 40
1
 40
1
 40
1
 40
1
 10
121.297753
 20
-75.021112
 30
0.0
 10
121.583751
 20
-75.307111
 30
0.0
 10
122.013869
 20
-75.392667
 30
0.0
 10
122.387544
 20
-75.237885
 30
0.0
  0
SPLINE
  5
1ae
100
AcDbEntity
  8
0
 62
7
100
AcDbSpline
 70
8
 71
3
 72
8
 73
4
 74
0
 40
0
 40
0
 40
0
 40
0
 40
1
 40
1
 40
1
 40
1
 10
122.387544
 20
-75.237885
 30
0.0
 10
122.761219
 20
-75.083104
 30
0.0
 10
123.004861
 20
-74.718468
 30
0.0
 10
123.004861
 20
-74.314005
 30
0.0
  0
SPLINE
  5
1af
100
AcDbEntity
  8
0
 62
7
100
AcDbSpline
 70
8
 71
3
 72
8
 73
4
 74
0
 40
0
 40
0
 40
0
 40
0
 40
1
 40
1
 40
1
 40
1
 10
123.004861
 20
-74.314005
 30
0.0
 10
123.004861
 20
-74.048788
 30
0.0
 10
122.899504
 20
-73.794434
 30
0.0
 10
122.711968
 20
-73.606898
 30
0.0
  0
SPLINE
  5
1b0
100
AcDbEntity
  8
0
 62
7
100
AcDbSpline
 70
8
 71
3
 72
8
 73
4
 74
0
 40
0
 40
0
 40
0
 40
0
 40
1
 40
1
 40
1
 40
1
 10
122.711968
 20
-73.606898
 30
0.0
 10
122.524431
 20
-73.419361
 30
0.0
 10
122.270077
 20
-73.314004
 30
0.0
 10
122.004860
 20
-73.314004
 30
0.0
  0
LWPOLYLINE
  5
1b1
100
AcDbEntity
  8
0
 62
7
100
AcDbPolyline
 90
2
 70
0
 10
182.560174
 20
-101.509303
 30
0.0
 10
201.098617
 20
-94.382922
 30
0.0
  0
SPLINE
  5
1b2
100
AcDbEntity
  8
0
 62
7
100
AcDbSpline
 70
8
 71
3
 72
8
 73
4
 74
0
 40
0
 40
0
 40
0
 40
0
 40
1
 40
1
 40
1
 40
1
 10
127.342705
 20
-73.310172
 30
0.0
 10
126.938243
 20
-73.310172
 30
0.0
 10
126.573606
 20
-73.553814
 30
0.0
 10
126.418825
 20
-73.927489
 30
0.0
  0
SPLINE
  5
1b3
100
AcDbEntity
  8
0
 62
7
100
AcDbSpline
 70
8
 71
3
 72
8
 73
4
 74
0
 40
0
 40
0
 40
0
 40
0
 40
1
 40
1
 40
1
 40
1
 10
126.418825
 20
-73.927489
 30
0.0
 10
126.264044
 20
-74.301164
 30
0.0
 10
126.349600
 20
-74.731282
 30
0.0
 10
126.635598
 20
-75.017280
 30
0.0
  0
SPLINE
  5
1b4
100
AcDbEntity
  8
0
 62
7
100
AcDbSpline
 70
8
 71
3
 72
8
 73
4
 74
0
 40
0
 40
0
 40
0
 40
0
 40
1
 40
1
 40
1
 40
1
 10
126.635598
 20
-75.017280
 30
0.0
 10
126.921596
 20
-75.303279
 30
0.0
 10
127.351714
 20
-75.388835
 30
0.0
 10
127.725389
 20
-75.234053
 30
0.0
  0
SPLINE
  5
1b5
100
AcDbEntity
  8
0
 62
7
100
AcDbSpline
 70
8
 71
3
 72
8
 73
4
 74
0
 40
0
 40
0
 40
0
 40
0
 40
1
 40
1
 40
1
 40
1
 10
127.725389
 20
-75.234053
 30
0.0
 10
128.099064
 20
-75.079272
 30
0.0
 10
128.342706
 20
-74.714636
 30
0.0
 10
128.342706
 20
-74.310173
 30
0.0
  0
SPLINE
  5
1b6
100
AcDbEntity
  8
0
 62
7
100
AcDbSpline
 70
8
 71
3
 72
8
 73
4
 74
0
 40
0
 40
0
 40
0
 40
0
 40
1
 40
1
 40
1
 40
1
 10
128.342706
 20
-74.310173
 30
0.0
 10
128.342706
 20
-74.044956
 30
0.0
 10
128.237349
 20
-73.790602
 30
0.0
 10
128.049813
 20
-73.603066
 30
0.0
  0
SPLINE
  5
1b7
100
AcDbEntity
  8
0
 62
7
100
AcDbSpline
 70
8
 71
3
 72
8
 73
4
 74
0
 40
0
 40
0
 40
0
 40
0
 40
1
 40
1
 40
1
 40
1
 10
128.049813
 20
-73.603066
 30
0.0
 10
127.862276
 20
-73.415529
 30
0.0
 10
127.607922
 20
-73.310172
 30
0.0
 10
127.342705
 20
-73.310172
 30
0.0
  0
LWPOLYLINE
  5
1b8
100
AcDbEntity
  8
0
 62
7
100
AcDbPolyline
 90
1
 70
1
 10
122.004860
 20
-73.314004
 30
0.0
  0
SPLINE
  5
1b9
100
AcDbEntity
  8
0
 62
7
100
AcDbSpline
 70
8
 71
3
 72
8
 73
4
 74
0
 40
0
 40
0
 40
0
 40
0
 40
1
 40
1
 40
1
 40
1
 10
132.644758
 20
-73.321620
 30
0.0
 10
132.240296
 20
-73.321620
 30
0.0
 10
131.875659
 20
-73.565263
 30
0.0
 10
131.720878
 20
-73.938937
 30
0.0
  0
SPLINE
  5
1ba
100
AcDbEntity
  8
0
 62
7
100
AcDbSpline
 70
8
 71
3
 72
8
 73
4
 74
0
 40
0
 40
0
 40
0
 40
0
 40
1
 40
1
 40
1
 40
1
 10
131.720878
 20
-73.938937
 30
0.0
 10
131.566097
 20
-74.312612
 30
0.0
 10
131.651653
 20
-74.742730
 30
0.0
 10
131.937651
 20
-75.028729
 30
0.0
  0
SPLINE
  5
1bb
100
AcDbEntity
  8
0
 62
7
100
AcDbSpline
 70
8
 71
3
 72
8
 73
4
 74
0
 40
0
 40
0
 40
0
 40
0
 40
1
 40
1
 40
1
 40
1
 10
131.937651
 20
-75.028729
 30
0.0
 10
132.223649
 20
-75.314727
 30
0.0
 10
132.653767
 20
-75.400283
 30
0.0
 10
133.027442
 20
-75.245501
 30
0.0
  0
SPLINE
  5
1bc
100
AcDbEntity
  8
0
 62
7
100
AcDbSpline
 70
8
 71
3
 72
8
 73
4
 74
0
 40
0
 40
0
 40
0
 40
0
 40
1
 40
1
 40
1
 40
1
 10
133.027442
 20
-75.245501
 30
0.0
 10
133.401117
 20
-75.090720
 30
0.0
 10
133.644759
 20
-74.726084
 30
0.0
 10
133.644759
 20
-74.321621
 30
0.0
  0
SPLINE
  5
1bd
100
AcDbEntity
  8
0
 62
7
100
AcDbSpline
 70
8
 71
3
 72
8
 73
4
 74
0
 40
0
 40
0
 40
0
 40
0
 40
1
 40
1
 40
1
 40
1
 10
133.644759
 20
-74.321621
 30
0.0
 10
133.644759
 20
-74.056404
 30
0.0
 10
133.539402
 20
-73.802050
 30
0.0
 10
133.351866
 20
-73.614514
 30
0.0
  0
SPLINE
  5
1be
100
AcDbEntity
  8
0
 62
7
100
AcDbSpline
 70
8
 71
3
 72
8
 73
4
 74
0
 40
0
 40
0
 40
0
 40
0
 40
1
 40
1
 40
1
 40
1
 10
133.351866
 20
-73.614514
 30
0.0
 10
133.164329
 20
-73.426977
 30
0.0
 10
132.909975
 20
-73.321620
 30
0.0
 10
132.644758
 20
-73.321620
 30
0.0
  0
LWPOLYLINE
  5
1bf
100
AcDbEntity
  8
0
 62
7
100
AcDbPolyline
 90
1
 70
1
 10
127.342705
 20
-73.310172
 30
0.0
  0
SPLINE
  5
1c0
100
AcDbEntity
  8
0
 62
7
100
AcDbSpline
 70
8
 71
3
 72
8
 73
4
 74
0
 40
0
 40
0
 40
0
 40
0
 40
1
 40
1
 40
1
 40
1
 10
124.659607
 20
-76.063911
 30
0.0
 10
124.255144
 20
-76.063911
 30
0.0
 10
123.890507
 20
-76.307553
 30
0.0
 10
123.735726
 20
-76.681228
 30
0.0
  0
SPLINE
  5
1c1
100
AcDbEntity
  8
0
 62
7
100
AcDbSpline
 70
8
 71
3
 72
8
 73
4
 74
0
 40
0
 40
0
 40
0
 40
0
 40
1
 40
1
 40
1
 40
1
 10
123.735726
 20
-76.681228
 30
0.0
 10
123.580945
 20
-77.054903
 30
0.0
 10
123.666501
 20
-77.485021
 30
0.0
 10
123.952499
 20
-77.771019
 30
0.0
  0
SPLINE
  5
1c2
100
AcDbEntity
  8
0
 62
7
100
AcDbSpline
 70
8
 71
3
 72
8
 73
4
 74
0
 40
0
 40
0
 40
0
 40
0
 40
1
 40
1
 40
1
 40
1
 10
123.952499
 20
-77.771019
 30
0.0
 10
124.238498
 20
-78.057017
 30
0.0
 10
124.668616
 20
-78.142573
 30
0.0
 10
125.042291
 20
-77.987792
 30
0.0
  0
SPLINE
  5
1c3
100
AcDbEntity
  8
0
 62
7
100
AcDbSpline
 70
8
 71
3
 72
8
 73
4
 74
0
 40
0
 40
0
 40
0
 40
0
 40
1
 40
1
 40
1
 40
1
 10
125.042291
 20
-77.987792
 30
0.0
 10
125.415965
 20
-77.833011
 30
0.0
 10
125.659608
 20
-77.468374
 30
0.0
 10
125.659608
 20
-77.063912
 30
0.0
  0
SPLINE
  5
1c4
100
AcDbEntity
  8
0
 62
7
100
AcDbSpline
 70
8
 71
3
 72
8
 73
4
 74
0
 40
0
 40
0
 40
0
 40
0
 40
1
 40
1
 40
1
 40
1
 10
125.659608
 20
-77.063912
 30
0.0
 10
125.659608
 20
-76.798695
 30
0.0
 10
125.554251
 20
-76.544341
 30
0.0
 10
125.366714
 20
-76.356804
 30
0.0
  0
SPLINE
  5
1c5
100
AcDbEntity
  8
0
 62
7
100
AcDbSpline
 70
8
 71
3
 72
8
 73
4
 74
0
 40
0
 40
0
 40
0
 40
0
 40
1
 40
1
 40
1
 40
1
 10
125.366714
 20
-76.356804
 30
0.0
 10
125.179178
 20
-76.169268
 30
0.0
 10
124.924823
 20
-76.063911
 30
0.0
 10
124.659607
 20
-76.063911
 30
0.0
  0
LWPOLYLINE
  5
1c6
100
AcDbEntity
  8
0
 62
7
100
AcDbPolyline
 90
1
 70
1
 10
132.644758
 20
-73.321620
 30
0.0
  0
SPLINE
  5
1c7
100
AcDbEntity
  8
0
 62
7
100
AcDbSpline
 70
8
 71
3
 72
8
 73
4
 74
0
 40
0
 40
0
 40
0
 40
0
 40
1
 40
1
 40
1
 40
1
 10
129.988804
 20
-76.060503
 30
0.0
 10
129.584341
 20
-76.060503
 30
0.0
 10
129.219705
 20
-76.304145
 30
0.0
 10
129.064923
 20
-76.677820
 30
0.0
  0
SPLINE
  5
1c8
100
AcDbEntity
  8
0
 62
7
100
AcDbSpline
 70
8
 71
3
 72
8
 73
4
 74
0
 40
0
 40
0
 40
0
 40
0
 40
1
 40
1
 40
1
 40
1
 10
129.064923
 20
-76.677820
 30
0.0
 10
128.910142
 20
-77.051495
 30
0.0
 10
128.995698
 20
-77.481613
 30
0.0
 10
129.281696
 20
-77.767611
 30
0.0
  0
SPLINE
  5
1c9
100
AcDbEntity
  8
0
 62
7
100
AcDbSpline
 70
8
 71
3
 72
8
 73
4
 74
0
 40
0
 40
0
 40
0
 40
0
 40
1
 40
1
 40
1
 40
1
 10
129.281696
 20
-77.767611
 30
0.0
 10
129.567695
 20
-78.053609
 30
0.0
 10
129.997813
 20
-78.139165
 30
0.0
 10
130.371488
 20
-77.984384
 30
0.0
  0
SPLINE
  5
1ca
100
AcDbEntity
  8
0
 62
7
100
AcDbSpline
 70
8
 71
3
 72
8
 73
4
 74
0
 40
0
 40
0
 40
0
 40
0
 40
1
 40
1
 40
1
 40
1
 10
130.371488
 20
-77.984384
 30
0.0
 10
130.745162
 20
-77.829603
 30
0.0
 10
130.988805
 20
-77.464966
 30
0.0
 10
130.988805
 20
-77.060504
 30
0.0
  0
SPLINE
  5
1cb
100
AcDbEntity
  8
0
 62
7
100
AcDbSpline
 70
8
 71
3
 72
8
 73
4
 74
0
 40
0
 40
0
 40
0
 40
0
 40
1
 40
1
 40
1
 40
1
 10
130.988805
 20
-77.060504
 30
0.0
 10
130.988805
 20
-76.795287
 30
0.0
 10
130.883448
 20
-76.540933
 30
0.0
 10
130.695911
 20
-76.353396
 30
0.0
  0
SPLINE
  5
1cc
100
AcDbEntity
  8
0
 62
7
100
AcDbSpline
 70
8
 71
3
 72
8
 73
4
 74
0
 40
0
 40
0
 40
0
 40
0
 40
1
 40
1
 40
1
 40
1
 10
130.695911
 20
-76.353396
 30
0.0
 10
130.508375
 20
-76.165860
 30
0.0
 10
130.254021
 20
-76.060503
 30
0.0
 10
129.988804
 20
-76.060503
 30
0.0
  0
LWPOLYLINE
  5
1cd
100
AcDbEntity
  8
0
 62
7
100
AcDbPolyline
 90
1
 70
1
 10
124.659607
 20
-76.063911
 30
0.0
  0
SPLINE
  5
1ce
100
AcDbEntity
  8
0
 62
7
100
AcDbSpline
 70
8
 71
3
 72
8
 73
4
 74
0
 40
0
 40
0
 40
0
 40
0
 40
1
 40
1
 40
1
 40
1
 10
122.011260
 20
-78.820729
 30
0.0
 10
121.606798
 20
-78.820729
 30
0.0
 10
121.242161
 20
-79.064372
 30
0.0
 10
121.087380
 20
-79.438046
 30
0.0
  0
SPLINE
  5
1cf
100
AcDbEntity
  8
0
 62
7
100
AcDbSpline
 70
8
 71
3
 72
8
 73
4
 74
0
 40
0
 40
0
 40
0
 40
0
 40
1
 40
1
 40
1
 40
1
 10
121.087380
 20
-79.438046
 30
0.0
 10
120.932599
 20
-79.811721
 30
0.0
 10
121.018154
 20
-80.241839
 30
0.0
 10
121.304153
 20
-80.527838
 30
0.0
  0
SPLINE
  5
1d0
100
AcDbEntity
  8
0
 62
7
100
AcDbSpline
 70
8
 71
3
 72
8
 73
4
 74
0
 40
0
 40
0
 40
0
 40
0
 40
1
 40
1
 40
1
 40
1
 10
121.304153
 20
-80.527838
 30
0.0
 10
121.590151
 20
-80.813836
 30
0.0
 10
122.020269
 20
-80.899392
 30
0.0
 10
122.393944
 20
-80.744611
 30
0.0
  0
SPLINE
  5
1d1
100
AcDbEntity
  8
0
 62
7
100
AcDbSpline
 70
8
 71
3
 72
8
 73
4
 74
0
 40
0
 40
0
 40
0
 40
0
 40
1
 40
1
 40
1
 40
1
 10
122.393944
 20
-80.744611
 30
0.0
 10
122.767619
 20
-80.589830
 30
0.0
 10
123.011261
 20
-80.225193
 30
0.0
 10
123.011261
 20
-79.820730
 30
0.0
  0
SPLINE
  5
1d2
100
AcDbEntity
  8
0
 62
7
100
AcDbSpline
 70
8
 71
3
 72
8
 73
4
 74
0
 40
0
 40
0
 40
0
 40
0
 40
1
 40
1
 40
1
 40
1
 10
123.011261
 20
-79.820730
 30
0.0
 10
123.011261
 20
-79.268445
 30
0.0
 10
122.563545
 20
-78.820729
 30
0.0
 10
122.011260
 20
-78.820729
 30
0.0
  0
LWPOLYLINE
  5
1d3
100
AcDbEntity
  8
0
 62
7
100
AcDbPolyline
 90
1
 70
1
 10
129.988804
 20
-76.060503
 30
0.0
  0
SPLINE
  5
1d4
100
AcDbEntity
  8
0
 62
7
100
AcDbSpline
 70
8
 71
3
 72
8
 73
4
 74
0
 40
0
 40
0
 40
0
 40
0
 40
1
 40
1
 40
1
 40
1
 10
127.322801
 20
-78.808209
 30
0.0
 10
126.918339
 20
-78.808209
 30
0.0
 10
126.553702
 20
-79.051852
 30
0.0
 10
126.398921
 20
-79.425526
 30
0.0
  0
SPLINE
  5
1d5
100
AcDbEntity
  8
0
 62
7
100
AcDbSpline
 70
8
 71
3
 72
8
 73
4
 74
0
 40
0
 40
0
 40
0
 40
0
 40
1
 40
1
 40
1
 40
1
 10
126.398921
 20
-79.425526
 30
0.0
 10
126.244140
 20
-79.799201
 30
0.0
 10
126.329696
 20
-80.229319
 30
0.0
 10
126.615694
 20
-80.515318
 30
0.0
  0
SPLINE
  5
1d6
100
AcDbEntity
  8
0
 62
7
100
AcDbSpline
 70
8
 71
3
 72
8
 73
4
 74
0
 40
0
 40
0
 40
0
 40
0
 40
1
 40
1
 40
1
 40
1
 10
126.615694
 20
-80.515318
 30
0.0
 10
126.901692
 20
-80.801316
 30
0.0
 10
127.331810
 20
-80.886872
 30
0.0
 10
127.705485
 20
-80.732091
 30
0.0
  0
SPLINE
  5
1d7
100
AcDbEntity
  8
0
 62
7
100
AcDbSpline
 70
8
 71
3
 72
8
 73
4
 74
0
 40
0
 40
0
 40
0
 40
0
 40
1
 40
1
 40
1
 40
1
 10
127.705485
 20
-80.732091
 30
0.0
 10
128.079160
 20
-80.577310
 30
0.0
 10
128.322802
 20
-80.212673
 30
0.0
 10
128.322802
 20
-79.808210
 30
0.0
  0
SPLINE
  5
1d8
100
AcDbEntity
  8
0
 62
7
100
AcDbSpline
 70
8
 71
3
 72
8
 73
4
 74
0
 40
0
 40
0
 40
0
 40
0
 40
1
 40
1
 40
1
 40
1
 10
128.322802
 20
-79.808210
 30
0.0
 10
128.322802
 20
-79.542994
 30
0.0
 10
128.217445
 20
-79.288639
 30
0.0
 10
128.029909
 20
-79.101103
 30
0.0
  0
SPLINE
  5
1d9
100
AcDbEntity
  8
0
 62
7
100
AcDbSpline
 70
8
 71
3
 72
8
 73
4
 74
0
 40
0
 40
0
 40
0
 40
0
 40
1
 40
1
 40
1
 40
1
 10
128.029909
 20
-79.101103
 30
0.0
 10
127.842372
 20
-78.913566
 30
0.0
 10
127.588018
 20
-78.808209
 30
0.0
 10
127.322801
 20
-78.808209
 30
0.0
  0
LWPOLYLINE
  5
1da
100
AcDbEntity
  8
0
 62
7
100
AcDbPolyline
 90
1
 70
1
 10
122.011260
 20
-78.820729
 30
0.0
  0
SPLINE
  5
1db
100
AcDbEntity
  8
0
 62
7
100
AcDbSpline
 70
8
 71
3
 72
8
 73
4
 74
0
 40
0
 40
0
 40
0
 40
0
 40
1
 40
1
 40
1
 40
1
 10
132.644806
 20
-78.809289
 30
0.0
 10
132.240344
 20
-78.809289
 30
0.0
 10
131.875707
 20
-79.052932
 30
0.0
 10
131.720926
 20
-79.426606
 30
0.0
  0
SPLINE
  5
1dc
100
AcDbEntity
  8
0
 62
7
100
AcDbSpline
 70
8
 71
3
 72
8
 73
4
 74
0
 40
0
 40
0
 40
0
 40
0
 40
1
 40
1
 40
1
 40
1
 10
131.720926
 20
-79.426606
 30
0.0
 10
131.566145
 20
-79.800281
 30
0.0
 10
131.651701
 20
-80.230399
 30
0.0
 10
131.937699
 20
-80.516398
 30
0.0
  0
SPLINE
  5
1dd
100
AcDbEntity
  8
0
 62
7
100
AcDbSpline
 70
8
 71
3
 72
8
 73
4
 74
0
 40
0
 40
0
 40
0
 40
0
 40
1
 40
1
 40
1
 40
1
 10
131.937699
 20
-80.516398
 30
0.0
 10
132.223697
 20
-80.802396
 30
0.0
 10
132.653815
 20
-80.887952
 30
0.0
 10
133.027490
 20
-80.733171
 30
0.0
  0
SPLINE
  5
1de
100
AcDbEntity
  8
0
 62
7
100
AcDbSpline
 70
8
 71
3
 72
8
 73
4
 74
0
 40
0
 40
0
 40
0
 40
0
 40
1
 40
1
 40
1
 40
1
 10
133.027490
 20
-80.733171
 30
0.0
 10
133.401165
 20
-80.578390
 30
0.0
 10
133.644807
 20
-80.213753
 30
0.0
 10
133.644807
 20
-79.809290
 30
0.0
  0
SPLINE
  5
1df
100
AcDbEntity
  8
0
 62
7
100
AcDbSpline
 70
8
 71
3
 72
8
 73
4
 74
0
 40
0
 40
0
 40
0
 40
0
 40
1
 40
1
 40
1
 40
1
 10
133.644807
 20
-79.809290
 30
0.0
 10
133.644807
 20
-79.544074
 30
0.0
 10
133.539450
 20
-79.289719
 30
0.0
 10
133.351914
 20
-79.102183
 30
0.0
  0
SPLINE
  5
1e0
100
AcDbEntity
  8
0
 62
7
100
AcDbSpline
 70
8
 71
3
 72
8
 73
4
 74
0
 40
0
 40
0
 40
0
 40
0
 40
1
 40
1
 40
1
 40
1
 10
133.351914
 20
-79.102183
 30
0.0
 10
133.164377
 20
-78.914646
 30
0.0
 10
132.910023
 20
-78.809289
 30
0.0
 10
132.644806
 20
-78.809289
 30
0.0
  0
LWPOLYLINE
  5
1e1
100
AcDbEntity
  8
0
 62
7
100
AcDbPolyline
 90
1
 70
1
 10
127.322801
 20
-78.808209
 30
0.0
  0
SPLINE
  5
1e2
100
AcDbEntity
  8
0
 62
7
100
AcDbSpline
 70
8
 71
3
 72
8
 73
4
 74
0
 40
0
 40
0
 40
0
 40
0
 40
1
 40
1
 40
1
 40
1
 10
149.528062
 20
-29.822613
 30
0.0
 10
149.123600
 20
-29.822613
 30
0.0
 10
148.758963
 20
-30.066255
 30
0.0
 10
148.604182
 20
-30.439930
 30
0.0
  0
SPLINE
  5
1e3
100
AcDbEntity
  8
0
 62
7
100
AcDbSpline
 70
8
 71
3
 72
8
 73
4
 74
0
 40
0
 40
0
 40
0
 40
0
 40
1
 40
1
 40
1
 40
1
 10
148.604182
 20
-30.439930
 30
0.0
 10
148.449401
 20
-30.813605
 30
0.0
 10
148.534957
 20
-31.243723
 30
0.0
 10
148.820955
 20
-31.529721
 30
0.0
  0
SPLINE
  5
1e4
100
AcDbEntity
  8
0
 62
7
100
AcDbSpline
 70
8
 71
3
 72
8
 73
4
 74
0
 40
0
 40
0
 40
0
 40
0
 40
1
 40
1
 40
1
 40
1
 10
148.820955
 20
-31.529721
 30
0.0
 10
149.106953
 20
-31.815719
 30
0.0
 10
149.537071
 20
-31.901275
 30
0.0
 10
149.910746
 20
-31.746494
 30
0.0
  0
SPLINE
  5
1e5
100
AcDbEntity
  8
0
 62
7
100
AcDbSpline
 70
8
 71
3
 72
8
 73
4
 74
0
 40
0
 40
0
 40
0
 40
0
 40
1
 40
1
 40
1
 40
1
 10
149.910746
 20
-31.746494
 30
0.0
 10
150.284421
 20
-31.591713
 30
0.0
 10
150.528063
 20
-31.227076
 30
0.0
 10
150.528063
 20
-30.822614
 30
0.0
  0
SPLINE
  5
1e6
100
AcDbEntity
  8
0
 62
7
100
AcDbSpline
 70
8
 71
3
 72
8
 73
4
 74
0
 40
0
 40
0
 40
0
 40
0
 40
1
 40
1
 40
1
 40
1
 10
150.528063
 20
-30.822614
 30
0.0
 10
150.528063
 20
-30.557397
 30
0.0
 10
150.422706
 20
-30.303043
 30
0.0
 10
150.235170
 20
-30.115506
 30
0.0
  0
SPLINE
  5
1e7
100
AcDbEntity
  8
0
 62
7
100
AcDbSpline
 70
8
 71
3
 72
8
 73
4
 74
0
 40
0
 40
0
 40
0
 40
0
 40
1
 40
1
 40
1
 40
1
 10
150.235170
 20
-30.115506
 30
0.0
 10
150.047633
 20
-29.927970
 30
0.0
 10
149.793279
 20
-29.822613
 30
0.0
 10
149.528062
 20
-29.822613
 30
0.0
  0
LWPOLYLINE
  5
1e8
100
AcDbEntity
  8
0
 62
7
100
AcDbPolyline
 90
1
 70
1
 10
132.644806
 20
-78.809289
 30
0.0
  0
SPLINE
  5
1e9
100
AcDbEntity
  8
0
 62
7
100
AcDbSpline
 70
8
 71
3
 72
8
 73
4
 74
0
 40
0
 40
0
 40
0
 40
0
 40
1
 40
1
 40
1
 40
1
 10
149.439278
 20
-57.887873
 30
0.0
 10
149.034816
 20
-57.887873
 30
0.0
 10
148.670179
 20
-58.131516
 30
0.0
 10
148.515398
 20
-58.505191
 30
0.0
  0
SPLINE
  5
1ea
100
AcDbEntity
  8
0
 62
7
100
AcDbSpline
 70
8
 71
3
 72
8
 73
4
 74
0
 40
0
 40
0
 40
0
 40
0
 40
1
 40
1
 40
1
 40
1
 10
148.515398
 20
-58.505191
 30
0.0
 10
148.360617
 20
-58.878865
 30
0.0
 10
148.446173
 20
-59.308984
 30
0.0
 10
148.732171
 20
-59.594982
 30
0.0
  0
SPLINE
  5
1eb
100
AcDbEntity
  8
0
 62
7
100
AcDbSpline
 70
8
 71
3
 72
8
 73
4
 74
0
 40
0
 40
0
 40
0
 40
0
 40
1
 40
1
 40
1
 40
1
 10
148.732171
 20
-59.594982
 30
0.0
 10
149.018169
 20
-59.880980
 30
0.0
 10
149.448287
 20
-59.966536
 30
0.0
 10
149.821962
 20
-59.811755
 30
0.0
  0
SPLINE
  5
1ec
100
AcDbEntity
  8
0
 62
7
100
AcDbSpline
 70
8
 71
3
 72
8
 73
4
 74
0
 40
0
 40
0
 40
0
 40
0
 40
1
 40
1
 40
1
 40
1
 10
149.821962
 20
-59.811755
 30
0.0
 10
150.195637
 20
-59.656974
 30
0.0
 10
150.439279
 20
-59.292337
 30
0.0
 10
150.439279
 20
-58.887874
 30
0.0
  0
SPLINE
  5
1ed
100
AcDbEntity
  8
0
 62
7
100
AcDbSpline
 70
8
 71
3
 72
8
 73
4
 74
0
 40
0
 40
0
 40
0
 40
0
 40
1
 40
1
 40
1
 40
1
 10
150.439279
 20
-58.887874
 30
0.0
 10
150.439279
 20
-58.622658
 30
0.0
 10
150.333922
 20
-58.368303
 30
0.0
 10
150.146386
 20
-58.180767
 30
0.0
  0
SPLINE
  5
1ee
100
AcDbEntity
  8
0
 62
7
100
AcDbSpline
 70
8
 71
3
 72
8
 73
4
 74
0
 40
0
 40
0
 40
0
 40
0
 40
1
 40
1
 40
1
 40
1
 10
150.146386
 20
-58.180767
 30
0.0
 10
149.958849
 20
-57.993230
 30
0.0
 10
149.704495
 20
-57.887873
 30
0.0
 10
149.439278
 20
-57.887873
 30
0.0
  0
LWPOLYLINE
  5
1ef
100
AcDbEntity
  8
0
 62
7
100
AcDbPolyline
 90
1
 70
1
 10
149.528062
 20
-29.822613
 30
0.0
  0
SPLINE
  5
1f0
100
AcDbEntity
  8
0
 62
7
100
AcDbSpline
 70
8
 71
3
 72
8
 73
4
 74
0
 40
0
 40
0
 40
0
 40
0
 40
1
 40
1
 40
1
 40
1
 10
173.238149
 20
-96.957795
 30
0.0
 10
172.833686
 20
-96.957795
 30
0.0
 10
172.469050
 20
-97.201437
 30
0.0
 10
172.314269
 20
-97.575112
 30
0.0
  0
SPLINE
  5
1f1
100
AcDbEntity
  8
0
 62
7
100
AcDbSpline
 70
8
 71
3
 72
8
 73
4
 74
0
 40
0
 40
0
 40
0
 40
0
 40
1
 40
1
 40
1
 40
1
 10
172.314269
 20
-97.575112
 30
0.0
 10
172.159487
 20
-97.948787
 30
0.0
 10
172.245043
 20
-98.378905
 30
0.0
 10
172.531042
 20
-98.664903
 30
0.0
  0
SPLINE
  5
1f2
100
AcDbEntity
  8
0
 62
7
100
AcDbSpline
 70
8
 71
3
 72
8
 73
4
 74
0
 40
0
 40
0
 40
0
 40
0
 40
1
 40
1
 40
1
 40
1
 10
172.531042
 20
-98.664903
 30
0.0
 10
172.817040
 20
-98.950901
 30
0.0
 10
173.247158
 20
-99.036457
 30
0.0
 10
173.620833
 20
-98.881676
 30
0.0
  0
SPLINE
  5
1f3
100
AcDbEntity
  8
0
 62
7
100
AcDbSpline
 70
8
 71
3
 72
8
 73
4
 74
0
 40
0
 40
0
 40
0
 40
0
 40
1
 40
1
 40
1
 40
1
 10
173.620833
 20
-98.881676
 30
0.0
 10
173.994508
 20
-98.726895
 30
0.0
 10
174.238150
 20
-98.362258
 30
0.0
 10
174.238150
 20
-97.957796
 30
0.0
  0
SPLINE
  5
1f4
100
AcDbEntity
  8
0
 62
7
100
AcDbSpline
 70
8
 71
3
 72
8
 73
4
 74
0
 40
0
 40
0
 40
0
 40
0
 40
1
 40
1
 40
1
 40
1
 10
174.238150
 20
-97.957796
 30
0.0
 10
174.238150
 20
-97.692579
 30
0.0
 10
174.132793
 20
-97.438225
 30
0.0
 10
173.945256
 20
-97.250688
 30
0.0
  0
SPLINE
  5
1f5
100
AcDbEntity
  8
0
 62
7
100
AcDbSpline
 70
8
 71
3
 72
8
 73
4
 74
0
 40
0
 40
0
 40
0
 40
0
 40
1
 40
1
 40
1
 40
1
 10
173.945256
 20
-97.250688
 30
0.0
 10
173.757720
 20
-97.063152
 30
0.0
 10
173.503366
 20
-96.957795
 30
0.0
 10
173.238149
 20
-96.957795
 30
0.0
  0
LWPOLYLINE
  5
1f6
100
AcDbEntity
  8
0
 62
7
100
AcDbPolyline
 90
1
 70
1
 10
149.439278
 20
-57.887873
 30
0.0
  0
SPLINE
  5
1f7
100
AcDbEntity
  8
0
 62
7
100
AcDbSpline
 70
8
 71
3
 72
8
 73
4
 74
0
 40
0
 40
0
 40
0
 40
0
 40
1
 40
1
 40
1
 40
1
 10
205.731252
 20
-47.975360
 30
0.0
 10
205.326789
 20
-47.975360
 30
0.0
 10
204.962153
 20
-48.219002
 30
0.0
 10
204.807372
 20
-48.592677
 30
0.0
  0
SPLINE
  5
1f8
100
AcDbEntity
  8
0
 62
7
100
AcDbSpline
 70
8
 71
3
 72
8
 73
4
 74
0
 40
0
 40
0
 40
0
 40
0
 40
1
 40
1
 40
1
 40
1
 10
204.807372
 20
-48.592677
 30
0.0
 10
204.652590
 20
-48.966352
 30
0.0
 10
204.738146
 20
-49.396470
 30
0.0
 10
205.024144
 20
-49.682468
 30
0.0
  0
SPLINE
  5
1f9
100
AcDbEntity
  8
0
 62
7
100
AcDbSpline
 70
8
 71
3
 72
8
 73
4
 74
0
 40
0
 40
0
 40
0
 40
0
 40
1
 40
1
 40
1
 40
1
 10
205.024144
 20
-49.682468
 30
0.0
 10
205.310143
 20
-49.968467
 30
0.0
 10
205.740261
 20
-50.054022
 30
0.0
 10
206.113936
 20
-49.899241
 30
0.0
  0
SPLINE
  5
1fa
100
AcDbEntity
  8
0
 62
7
100
AcDbSpline
 70
8
 71
3
 72
8
 73
4
 74
0
 40
0
 40
0
 40
0
 40
0
 40
1
 40
1
 40
1
 40
1
 10
206.113936
 20
-49.899241
 30
0.0
 10
206.487610
 20
-49.744460
 30
0.0
 10
206.731253
 20
-49.379824
 30
0.0
 10
206.731253
 20
-48.975361
 30
0.0
  0
SPLINE
  5
1fb
100
AcDbEntity
  8
0
 62
7
100
AcDbSpline
 70
8
 71
3
 72
8
 73
4
 74
0
 40
0
 40
0
 40
0
 40
0
 40
1
 40
1
 40
1
 40
1
 10
206.731253
 20
-48.975361
 30
0.0
 10
206.731253
 20
-48.710144
 30
0.0
 10
206.625896
 20
-48.455790
 30
0.0
 10
206.438359
 20
-48.268253
 30
0.0
  0
SPLINE
  5
1fc
100
AcDbEntity
  8
0
 62
7
100
AcDbSpline
 70
8
 71
3
 72
8
 73
4
 74
0
 40
0
 40
0
 40
0
 40
0
 40
1
 40
1
 40
1
 40
1
 10
206.438359
 20
-48.268253
 30
0.0
 10
206.250823
 20
-48.080717
 30
0.0
 10
205.996469
 20
-47.975360
 30
0.0
 10
205.731252
 20
-47.975360
 30
0.0
  0
LWPOLYLINE
  5
1fd
100
AcDbEntity
  8
0
 62
7
100
AcDbPolyline
 90
1
 70
1
 10
173.238149
 20
-96.957795
 30
0.0
  0
SPLINE
  5
1fe
100
AcDbEntity
  8
0
 62
7
100
AcDbSpline
 70
8
 71
3
 72
8
 73
4
 74
0
 40
0
 40
0
 40
0
 40
0
 40
1
 40
1
 40
1
 40
1
 10
212.323466
 20
-85.495696
 30
0.0
 10
211.919004
 20
-85.495696
 30
0.0
 10
211.554367
 20
-85.739338
 30
0.0
 10
211.399586
 20
-86.113013
 30
0.0
  0
SPLINE
  5
1ff
100
AcDbEntity
  8
0
 62
7
100
AcDbSpline
 70
8
 71
3
 72
8
 73
4
 74
0
 40
0
 40
0
 40
0
 40
0
 40
1
 40
1
 40
1
 40
1
 10
211.399586
 20
-86.113013
 30
0.0
 10
211.244805
 20
-86.486688
 30
0.0
 10
211.330360
 20
-86.916806
 30
0.0
 10
211.616359
 20
-87.202804
 30
0.0
  0
SPLINE
  5
200
100
AcDbEntity
  8
0
 62
7
100
AcDbSpline
 70
8
 71
3
 72
8
 73
4
 74
0
 40
0
 40
0
 40
0
 40
0
 40
1
 40
1
 40
1
 40
1
 10
211.616359
 20
-87.202804
 30
0.0
 10
211.902357
 20
-87.488802
 30
0.0
 10
212.332475
 20
-87.574358
 30
0.0
 10
212.706150
 20
-87.419577
 30
0.0
  0
SPLINE
  5
201
100
AcDbEntity
  8
0
 62
7
100
AcDbSpline
 70
8
 71
3
 72
8
 73
4
 74
0
 40
0
 40
0
 40
0
 40
0
 40
1
 40
1
 40
1
 40
1
 10
212.706150
 20
-87.419577
 30
0.0
 10
213.079825
 20
-87.264796
 30
0.0
 10
213.323467
 20
-86.900159
 30
0.0
 10
213.323467
 20
-86.495697
 30
0.0
  0
SPLINE
  5
202
100
AcDbEntity
  8
0
 62
7
100
AcDbSpline
 70
8
 71
3
 72
8
 73
4
 74
0
 40
0
 40
0
 40
0
 40
0
 40
1
 40
1
 40
1
 40
1
 10
213.323467
 20
-86.495697
 30
0.0
 10
213.323467
 20
-86.230480
 30
0.0
 10
213.218110
 20
-85.976126
 30
0.0
 10
213.030574
 20
-85.788589
 30
0.0
  0
SPLINE
  5
203
100
AcDbEntity
  8
0
 62
7
100
AcDbSpline
 70
8
 71
3
 72
8
 73
4
 74
0
 40
0
 40
0
 40
0
 40
0
 40
1
 40
1
 40
1
 40
1
 10
213.030574
 20
-85.788589
 30
0.0
 10
212.843037
 20
-85.601053
 30
0.0
 10
212.588683
 20
-85.495696
 30
0.0
 10
212.323466
 20
-85.495696
 30
0.0
  0
LWPOLYLINE
  5
204
100
AcDbEntity
  8
0
 62
7
100
AcDbPolyline
 90
1
 70
1
 10
205.731252
 20
-47.975360
 30
0.0
  0
SPLINE
  5
205
100
AcDbEntity
  8
0
 62
7
100
AcDbSpline
 70
8
 71
3
 72
8
 73
4
 74
0
 40
0
 40
0
 40
0
 40
0
 40
1
 40
1
 40
1
 40
1
 10
122.010092
 20
-89.823684
 30
0.0
 10
121.605630
 20
-89.823684
 30
0.0
 10
121.240993
 20
-90.067326
 30
0.0
 10
121.086212
 20
-90.441001
 30
0.0
  0
SPLINE
  5
206
100
AcDbEntity
  8
0
 62
7
100
AcDbSpline
 70
8
 71
3
 72
8
 73
4
 74
0
 40
0
 40
0
 40
0
 40
0
 40
1
 40
1
 40
1
 40
1
 10
121.086212
 20
-90.441001
 30
0.0
 10
120.931431
 20
-90.814676
 30
0.0
 10
121.016986
 20
-91.244794
 30
0.0
 10
121.302985
 20
-91.530792
 30
0.0
  0
SPLINE
  5
207
100
AcDbEntity
  8
0
 62
7
100
AcDbSpline
 70
8
 71
3
 72
8
 73
4
 74
0
 40
0
 40
0
 40
0
 40
0
 40
1
 40
1
 40
1
 40
1
 10
121.302985
 20
-91.530792
 30
0.0
 10
121.588983
 20
-91.816790
 30
0.0
 10
122.019101
 20
-91.902346
 30
0.0
 10
122.392776
 20
-91.747565
 30
0.0
  0
SPLINE
  5
208
100
AcDbEntity
  8
0
 62
7
100
AcDbSpline
 70
8
 71
3
 72
8
 73
4
 74
0
 40
0
 40
0
 40
0
 40
0
 40
1
 40
1
 40
1
 40
1
 10
122.392776
 20
-91.747565
 30
0.0
 10
122.766451
 20
-91.592784
 30
0.0
 10
123.010093
 20
-91.228147
 30
0.0
 10
123.010093
 20
-90.823685
 30
0.0
  0
SPLINE
  5
209
100
AcDbEntity
  8
0
 62
7
100
AcDbSpline
 70
8
 71
3
 72
8
 73
4
 74
0
 40
0
 40
0
 40
0
 40
0
 40
1
 40
1
 40
1
 40
1
 10
123.010093
 20
-90.823685
 30
0.0
 10
123.010093
 20
-90.558468
 30
0.0
 10
122.904736
 20
-90.304114
 30
0.0
 10
122.717200
 20
-90.116577
 30
0.0
  0
SPLINE
  5
20a
100
AcDbEntity
  8
0
 62
7
100
AcDbSpline
 70
8
 71
3
 72
8
 73
4
 74
0
 40
0
 40
0
 40
0
 40
0
 40
1
 40
1
 40
1
 40
1
 10
122.717200
 20
-90.116577
 30
0.0
 10
122.529663
 20
-89.929041
 30
0.0
 10
122.275309
 20
-89.823684
 30
0.0
 10
122.010092
 20
-89.823684
 30
0.0
  0
LWPOLYLINE
  5
20b
100
AcDbEntity
  8
0
 62
7
100
AcDbPolyline
 90
1
 70
1
 10
212.323466
 20
-85.495696
 30
0.0
  0
SPLINE
  5
20c
100
AcDbEntity
  8
0
 62
7
100
AcDbSpline
 70
8
 71
3
 72
8
 73
4
 74
0
 40
0
 40
0
 40
0
 40
0
 40
1
 40
1
 40
1
 40
1
 10
127.321633
 20
-89.811156
 30
0.0
 10
126.917171
 20
-89.811156
 30
0.0
 10
126.552534
 20
-90.054798
 30
0.0
 10
126.397753
 20
-90.428473
 30
0.0
  0
SPLINE
  5
20d
100
AcDbEntity
  8
0
 62
7
100
AcDbSpline
 70
8
 71
3
 72
8
 73
4
 74
0
 40
0
 40
0
 40
0
 40
0
 40
1
 40
1
 40
1
 40
1
 10
126.397753
 20
-90.428473
 30
0.0
 10
126.242972
 20
-90.802148
 30
0.0
 10
126.328528
 20
-91.232266
 30
0.0
 10
126.614526
 20
-91.518264
 30
0.0
  0
SPLINE
  5
20e
100
AcDbEntity
  8
0
 62
7
100
AcDbSpline
 70
8
 71
3
 72
8
 73
4
 74
0
 40
0
 40
0
 40
0
 40
0
 40
1
 40
1
 40
1
 40
1
 10
126.614526
 20
-91.518264
 30
0.0
 10
126.900524
 20
-91.804262
 30
0.0
 10
127.330642
 20
-91.889818
 30
0.0
 10
127.704317
 20
-91.735037
 30
0.0
  0
SPLINE
  5
20f
100
AcDbEntity
  8
0
 62
7
100
AcDbSpline
 70
8
 71
3
 72
8
 73
4
 74
0
 40
0
 40
0
 40
0
 40
0
 40
1
 40
1
 40
1
 40
1
 10
127.704317
 20
-91.735037
 30
0.0
 10
128.077992
 20
-91.580256
 30
0.0
 10
128.321634
 20
-91.215619
 30
0.0
 10
128.321634
 20
-90.811157
 30
0.0
  0
SPLINE
  5
210
100
AcDbEntity
  8
0
 62
7
100
AcDbSpline
 70
8
 71
3
 72
8
 73
4
 74
0
 40
0
 40
0
 40
0
 40
0
 40
1
 40
1
 40
1
 40
1
 10
128.321634
 20
-90.811157
 30
0.0
 10
128.321634
 20
-90.258871
 30
0.0
 10
127.873919
 20
-89.811156
 30
0.0
 10
127.321633
 20
-89.811156
 30
0.0
  0
LWPOLYLINE
  5
211
100
AcDbEntity
  8
0
 62
7
100
AcDbPolyline
 90
1
 70
1
 10
122.010092
 20
-89.823684
 30
0.0
  0
SPLINE
  5
212
100
AcDbEntity
  8
0
 62
7
100
AcDbSpline
 70
8
 71
3
 72
8
 73
4
 74
0
 40
0
 40
0
 40
0
 40
0
 40
1
 40
1
 40
1
 40
1
 10
132.643638
 20
-89.812244
 30
0.0
 10
132.239176
 20
-89.812244
 30
0.0
 10
131.874539
 20
-90.055886
 30
0.0
 10
131.719758
 20
-90.429561
 30
0.0
  0
SPLINE
  5
213
100
AcDbEntity
  8
0
 62
7
100
AcDbSpline
 70
8
 71
3
 72
8
 73
4
 74
0
 40
0
 40
0
 40
0
 40
0
 40
1
 40
1
 40
1
 40
1
 10
131.719758
 20
-90.429561
 30
0.0
 10
131.564977
 20
-90.803236
 30
0.0
 10
131.650533
 20
-91.233354
 30
0.0
 10
131.936531
 20
-91.519352
 30
0.0
  0
SPLINE
  5
214
100
AcDbEntity
  8
0
 62
7
100
AcDbSpline
 70
8
 71
3
 72
8
 73
4
 74
0
 40
0
 40
0
 40
0
 40
0
 40
1
 40
1
 40
1
 40
1
 10
131.936531
 20
-91.519352
 30
0.0
 10
132.222529
 20
-91.805350
 30
0.0
 10
132.652647
 20
-91.890906
 30
0.0
 10
133.026322
 20
-91.736125
 30
0.0
  0
SPLINE
  5
215
100
AcDbEntity
  8
0
 62
7
100
AcDbSpline
 70
8
 71
3
 72
8
 73
4
 74
0
 40
0
 40
0
 40
0
 40
0
 40
1
 40
1
 40
1
 40
1
 10
133.026322
 20
-91.736125
 30
0.0
 10
133.399997
 20
-91.581344
 30
0.0
 10
133.643639
 20
-91.216707
 30
0.0
 10
133.643639
 20
-90.812245
 30
0.0
  0
SPLINE
  5
216
100
AcDbEntity
  8
0
 62
7
100
AcDbSpline
 70
8
 71
3
 72
8
 73
4
 74
0
 40
0
 40
0
 40
0
 40
0
 40
1
 40
1
 40
1
 40
1
 10
133.643639
 20
-90.812245
 30
0.0
 10
133.643639
 20
-90.547028
 30
0.0
 10
133.538282
 20
-90.292674
 30
0.0
 10
133.350746
 20
-90.105137
 30
0.0
  0
SPLINE
  5
217
100
AcDbEntity
  8
0
 62
7
100
AcDbSpline
 70
8
 71
3
 72
8
 73
4
 74
0
 40
0
 40
0
 40
0
 40
0
 40
1
 40
1
 40
1
 40
1
 10
133.350746
 20
-90.105137
 30
0.0
 10
133.163209
 20
-89.917601
 30
0.0
 10
132.908855
 20
-89.812244
 30
0.0
 10
132.643638
 20
-89.812244
 30
0.0
  0
LWPOLYLINE
  5
218
100
AcDbEntity
  8
0
 62
7
100
AcDbPolyline
 90
1
 70
1
 10
127.321633
 20
-89.811156
 30
0.0
  0
SPLINE
  5
219
100
AcDbEntity
  8
0
 62
7
100
AcDbSpline
 70
8
 71
3
 72
8
 73
4
 74
0
 40
0
 40
0
 40
0
 40
0
 40
1
 40
1
 40
1
 40
1
 10
122.021916
 20
-95.320369
 30
0.0
 10
121.617454
 20
-95.320369
 30
0.0
 10
121.252817
 20
-95.564011
 30
0.0
 10
121.098036
 20
-95.937686
 30
0.0
  0
SPLINE
  5
21a
100
AcDbEntity
  8
0
 62
7
100
AcDbSpline
 70
8
 71
3
 72
8
 73
4
 74
0
 40
0
 40
0
 40
0
 40
0
 40
1
 40
1
 40
1
 40
1
 10
121.098036
 20
-95.937686
 30
0.0
 10
120.943255
 20
-96.311361
 30
0.0
 10
121.028810
 20
-96.741479
 30
0.0
 10
121.314809
 20
-97.027477
 30
0.0
  0
SPLINE
  5
21b
100
AcDbEntity
  8
0
 62
7
100
AcDbSpline
 70
8
 71
3
 72
8
 73
4
 74
0
 40
0
 40
0
 40
0
 40
0
 40
1
 40
1
 40
1
 40
1
 10
121.314809
 20
-97.027477
 30
0.0
 10
121.600807
 20
-97.313476
 30
0.0
 10
122.030925
 20
-97.399032
 30
0.0
 10
122.404600
 20
-97.244250
 30
0.0
  0
SPLINE
  5
21c
100
AcDbEntity
  8
0
 62
7
100
AcDbSpline
 70
8
 71
3
 72
8
 73
4
 74
0
 40
0
 40
0
 40
0
 40
0
 40
1
 40
1
 40
1
 40
1
 10
122.404600
 20
-97.244250
 30
0.0
 10
122.778275
 20
-97.089469
 30
0.0
 10
123.021917
 20
-96.724833
 30
0.0
 10
123.021917
 20
-96.320370
 30
0.0
  0
SPLINE
  5
21d
100
AcDbEntity
  8
0
 62
7
100
AcDbSpline
 70
8
 71
3
 72
8
 73
4
 74
0
 40
0
 40
0
 40
0
 40
0
 40
1
 40
1
 40
1
 40
1
 10
123.021917
 20
-96.320370
 30
0.0
 10
123.021917
 20
-96.055153
 30
0.0
 10
122.916560
 20
-95.800799
 30
0.0
 10
122.729024
 20
-95.613263
 30
0.0
  0
SPLINE
  5
21e
100
AcDbEntity
  8
0
 62
7
100
AcDbSpline
 70
8
 71
3
 72
8
 73
4
 74
0
 40
0
 40
0
 40
0
 40
0
 40
1
 40
1
 40
1
 40
1
 10
122.729024
 20
-95.613263
 30
0.0
 10
122.541487
 20
-95.425726
 30
0.0
 10
122.287133
 20
-95.320369
 30
0.0
 10
122.021916
 20
-95.320369
 30
0.0
  0
LWPOLYLINE
  5
21f
100
AcDbEntity
  8
0
 62
7
100
AcDbPolyline
 90
1
 70
1
 10
132.643638
 20
-89.812244
 30
0.0
  0
SPLINE
  5
220
100
AcDbEntity
  8
0
 62
7
100
AcDbSpline
 70
8
 71
3
 72
8
 73
4
 74
0
 40
0
 40
0
 40
0
 40
0
 40
1
 40
1
 40
1
 40
1
 10
127.333457
 20
-95.307849
 30
0.0
 10
126.781172
 20
-95.307849
 30
0.0
 10
126.333456
 20
-95.755565
 30
0.0
 10
126.333456
 20
-96.307850
 30
0.0
  0
SPLINE
  5
221
100
AcDbEntity
  8
0
 62
7
100
AcDbSpline
 70
8
 71
3
 72
8
 73
4
 74
0
 40
0
 40
0
 40
0
 40
0
 40
1
 40
1
 40
1
 40
1
 10
126.333456
 20
-96.307850
 30
0.0
 10
126.333456
 20
-96.860135
 30
0.0
 10
126.781172
 20
-97.307851
 30
0.0
 10
127.333457
 20
-97.307851
 30
0.0
  0
SPLINE
  5
222
100
AcDbEntity
  8
0
 62
7
100
AcDbSpline
 70
8
 71
3
 72
8
 73
4
 74
0
 40
0
 40
0
 40
0
 40
0
 40
1
 40
1
 40
1
 40
1
 10
127.333457
 20
-97.307851
 30
0.0
 10
127.885743
 20
-97.307851
 30
0.0
 10
128.333458
 20
-96.860135
 30
0.0
 10
128.333458
 20
-96.307850
 30
0.0
  0
SPLINE
  5
223
100
AcDbEntity
  8
0
 62
7
100
AcDbSpline
 70
8
 71
3
 72
8
 73
4
 74
0
 40
0
 40
0
 40
0
 40
0
 40
1
 40
1
 40
1
 40
1
 10
128.333458
 20
-96.307850
 30
0.0
 10
128.333458
 20
-96.042633
 30
0.0
 10
128.228101
 20
-95.788279
 30
0.0
 10
128.040565
 20
-95.600743
 30
0.0
  0
SPLINE
  5
224
100
AcDbEntity
  8
0
 62
7
100
AcDbSpline
 70
8
 71
3
 72
8
 73
4
 74
0
 40
0
 40
0
 40
0
 40
0
 40
1
 40
1
 40
1
 40
1
 10
128.040565
 20
-95.600743
 30
0.0
 10
127.853028
 20
-95.413206
 30
0.0
 10
127.598674
 20
-95.307849
 30
0.0
 10
127.333457
 20
-95.307849
 30
0.0
  0
LWPOLYLINE
  5
225
100
AcDbEntity
  8
0
 62
7
100
AcDbPolyline
 90
1
 70
1
 10
122.021916
 20
-95.320369
 30
0.0
  0
SPLINE
  5
226
100
AcDbEntity
  8
0
 62
7
100
AcDbSpline
 70
8
 71
3
 72
8
 73
4
 74
0
 40
0
 40
0
 40
0
 40
0
 40
1
 40
1
 40
1
 40
1
 10
132.655462
 20
-95.308929
 30
0.0
 10
132.251000
 20
-95.308929
 30
0.0
 10
131.886363
 20
-95.552571
 30
0.0
 10
131.731582
 20
-95.926246
 30
0.0
  0
SPLINE
  5
227
100
AcDbEntity
  8
0
 62
7
100
AcDbSpline
 70
8
 71
3
 72
8
 73
4
 74
0
 40
0
 40
0
 40
0
 40
0
 40
1
 40
1
 40
1
 40
1
 10
131.731582
 20
-95.926246
 30
0.0
 10
131.576801
 20
-96.299921
 30
0.0
 10
131.662357
 20
-96.730039
 30
0.0
 10
131.948355
 20
-97.016037
 30
0.0
  0
SPLINE
  5
228
100
AcDbEntity
  8
0
 62
7
100
AcDbSpline
 70
8
 71
3
 72
8
 73
4
 74
0
 40
0
 40
0
 40
0
 40
0
 40
1
 40
1
 40
1
 40
1
 10
131.948355
 20
-97.016037
 30
0.0
 10
132.234353
 20
-97.302036
 30
0.0
 10
132.664471
 20
-97.387592
 30
0.0
 10
133.038146
 20
-97.232810
 30
0.0
  0
SPLINE
  5
229
100
AcDbEntity
  8
0
 62
7
100
AcDbSpline
 70
8
 71
3
 72
8
 73
4
 74
0
 40
0
 40
0
 40
0
 40
0
 40
1
 40
1
 40
1
 40
1
 10
133.038146
 20
-97.232810
 30
0.0
 10
133.411821
 20
-97.078029
 30
0.0
 10
133.655463
 20
-96.713393
 30
0.0
 10
133.655463
 20
-96.308930
 30
0.0
  0
SPLINE
  5
22a
100
AcDbEntity
  8
0
 62
7
100
AcDbSpline
 70
8
 71
3
 72
8
 73
4
 74
0
 40
0
 40
0
 40
0
 40
0
 40
1
 40
1
 40
1
 40
1
 10
133.655463
 20
-96.308930
 30
0.0
 10
133.655463
 20
-96.043713
 30
0.0
 10
133.550106
 20
-95.789359
 30
0.0
 10
133.362570
 20
-95.601823
 30
0.0
  0
SPLINE
  5
22b
100
AcDbEntity
  8
0
 62
7
100
AcDbSpline
 70
8
 71
3
 72
8
 73
4
 74
0
 40
0
 40
0
 40
0
 40
0
 40
1
 40
1
 40
1
 40
1
 10
133.362570
 20
-95.601823
 30
0.0
 10
133.175033
 20
-95.414286
 30
0.0
 10
132.920679
 20
-95.308929
 30
0.0
 10
132.655462
 20
-95.308929
 30
0.0
  0
LWPOLYLINE
  5
22c
100
AcDbEntity
  8
0
 62
7
100
AcDbPolyline
 90
1
 70
1
 10
127.333457
 20
-95.307849
 30
0.0
  0
SPLINE
  5
22d
100
AcDbEntity
  8
0
 62
7
100
AcDbSpline
 70
8
 71
3
 72
8
 73
4
 74
0
 40
0
 40
0
 40
0
 40
0
 40
1
 40
1
 40
1
 40
1
 10
119.346570
 20
-92.572470
 30
0.0
 10
118.942107
 20
-92.572470
 30
0.0
 10
118.577470
 20
-92.816113
 30
0.0
 10
118.422689
 20
-93.189788
 30
0.0
  0
SPLINE
  5
22e
100
AcDbEntity
  8
0
 62
7
100
AcDbSpline
 70
8
 71
3
 72
8
 73
4
 74
0
 40
0
 40
0
 40
0
 40
0
 40
1
 40
1
 40
1
 40
1
 10
118.422689
 20
-93.189788
 30
0.0
 10
118.267908
 20
-93.563462
 30
0.0
 10
118.353464
 20
-93.993581
 30
0.0
 10
118.639462
 20
-94.279579
 30
0.0
  0
SPLINE
  5
22f
100
AcDbEntity
  8
0
 62
7
100
AcDbSpline
 70
8
 71
3
 72
8
 73
4
 74
0
 40
0
 40
0
 40
0
 40
0
 40
1
 40
1
 40
1
 40
1
 10
118.639462
 20
-94.279579
 30
0.0
 10
118.925460
 20
-94.565577
 30
0.0
 10
119.355579
 20
-94.651133
 30
0.0
 10
119.729253
 20
-94.496352
 30
0.0
  0
SPLINE
  5
230
100
AcDbEntity
  8
0
 62
7
100
AcDbSpline
 70
8
 71
3
 72
8
 73
4
 74
0
 40
0
 40
0
 40
0
 40
0
 40
1
 40
1
 40
1
 40
1
 10
119.729253
 20
-94.496352
 30
0.0
 10
120.102928
 20
-94.341571
 30
0.0
 10
120.346571
 20
-93.976934
 30
0.0
 10
120.346571
 20
-93.572471
 30
0.0
  0
SPLINE
  5
231
100
AcDbEntity
  8
0
 62
7
100
AcDbSpline
 70
8
 71
3
 72
8
 73
4
 74
0
 40
0
 40
0
 40
0
 40
0
 40
1
 40
1
 40
1
 40
1
 10
120.346571
 20
-93.572471
 30
0.0
 10
120.346571
 20
-93.307255
 30
0.0
 10
120.241214
 20
-93.052900
 30
0.0
 10
120.053677
 20
-92.865364
 30
0.0
  0
SPLINE
  5
232
100
AcDbEntity
  8
0
 62
7
100
AcDbSpline
 70
8
 71
3
 72
8
 73
4
 74
0
 40
0
 40
0
 40
0
 40
0
 40
1
 40
1
 40
1
 40
1
 10
120.053677
 20
-92.865364
 30
0.0
 10
119.866141
 20
-92.677827
 30
0.0
 10
119.611786
 20
-92.572470
 30
0.0
 10
119.346570
 20
-92.572470
 30
0.0
  0
LWPOLYLINE
  5
233
100
AcDbEntity
  8
0
 62
7
100
AcDbPolyline
 90
1
 70
1
 10
132.655462
 20
-95.308929
 30
0.0
  0
SPLINE
  5
234
100
AcDbEntity
  8
0
 62
7
100
AcDbSpline
 70
8
 71
3
 72
8
 73
4
 74
0
 40
0
 40
0
 40
0
 40
0
 40
1
 40
1
 40
1
 40
1
 10
124.658111
 20
-92.559950
 30
0.0
 10
124.253648
 20
-92.559950
 30
0.0
 10
123.889011
 20
-92.803593
 30
0.0
 10
123.734230
 20
-93.177268
 30
0.0
  0
SPLINE
  5
235
100
AcDbEntity
  8
0
 62
7
100
AcDbSpline
 70
8
 71
3
 72
8
 73
4
 74
0
 40
0
 40
0
 40
0
 40
0
 40
1
 40
1
 40
1
 40
1
 10
123.734230
 20
-93.177268
 30
0.0
 10
123.579449
 20
-93.550942
 30
0.0
 10
123.665005
 20
-93.981061
 30
0.0
 10
123.951003
 20
-94.267059
 30
0.0
  0
SPLINE
  5
236
100
AcDbEntity
  8
0
 62
7
100
AcDbSpline
 70
8
 71
3
 72
8
 73
4
 74
0
 40
0
 40
0
 40
0
 40
0
 40
1
 40
1
 40
1
 40
1
 10
123.951003
 20
-94.267059
 30
0.0
 10
124.237002
 20
-94.553057
 30
0.0
 10
124.667120
 20
-94.638613
 30
0.0
 10
125.040795
 20
-94.483832
 30
0.0
  0
SPLINE
  5
237
100
AcDbEntity
  8
0
 62
7
100
AcDbSpline
 70
8
 71
3
 72
8
 73
4
 74
0
 40
0
 40
0
 40
0
 40
0
 40
1
 40
1
 40
1
 40
1
 10
125.040795
 20
-94.483832
 30
0.0
 10
125.414469
 20
-94.329051
 30
0.0
 10
125.658112
 20
-93.964414
 30
0.0
 10
125.658112
 20
-93.559951
 30
0.0
  0
SPLINE
  5
238
100
AcDbEntity
  8
0
 62
7
100
AcDbSpline
 70
8
 71
3
 72
8
 73
4
 74
0
 40
0
 40
0
 40
0
 40
0
 40
1
 40
1
 40
1
 40
1
 10
125.658112
 20
-93.559951
 30
0.0
 10
125.658112
 20
-93.294735
 30
0.0
 10
125.552755
 20
-93.040380
 30
0.0
 10
125.365218
 20
-92.852844
 30
0.0
  0
SPLINE
  5
239
100
AcDbEntity
  8
0
 62
7
100
AcDbSpline
 70
8
 71
3
 72
8
 73
4
 74
0
 40
0
 40
0
 40
0
 40
0
 40
1
 40
1
 40
1
 40
1
 10
125.365218
 20
-92.852844
 30
0.0
 10
125.177682
 20
-92.665307
 30
0.0
 10
124.923327
 20
-92.559950
 30
0.0
 10
124.658111
 20
-92.559950
 30
0.0
  0
LWPOLYLINE
  5
23a
100
AcDbEntity
  8
0
 62
7
100
AcDbPolyline
 90
1
 70
1
 10
119.346570
 20
-92.572470
 30
0.0
  0
SPLINE
  5
23b
100
AcDbEntity
  8
0
 62
7
100
AcDbSpline
 70
8
 71
3
 72
8
 73
4
 74
0
 40
0
 40
0
 40
0
 40
0
 40
1
 40
1
 40
1
 40
1
 10
129.980116
 20
-92.561030
 30
0.0
 10
129.575653
 20
-92.561030
 30
0.0
 10
129.211017
 20
-92.804673
 30
0.0
 10
129.056235
 20
-93.178348
 30
0.0
  0
SPLINE
  5
23c
100
AcDbEntity
  8
0
 62
7
100
AcDbSpline
 70
8
 71
3
 72
8
 73
4
 74
0
 40
0
 40
0
 40
0
 40
0
 40
1
 40
1
 40
1
 40
1
 10
129.056235
 20
-93.178348
 30
0.0
 10
128.901454
 20
-93.552022
 30
0.0
 10
128.987010
 20
-93.982141
 30
0.0
 10
129.273008
 20
-94.268139
 30
0.0
  0
SPLINE
  5
23d
100
AcDbEntity
  8
0
 62
7
100
AcDbSpline
 70
8
 71
3
 72
8
 73
4
 74
0
 40
0
 40
0
 40
0
 40
0
 40
1
 40
1
 40
1
 40
1
 10
129.273008
 20
-94.268139
 30
0.0
 10
129.559007
 20
-94.554137
 30
0.0
 10
129.989125
 20
-94.639693
 30
0.0
 10
130.362800
 20
-94.484912
 30
0.0
  0
SPLINE
  5
23e
100
AcDbEntity
  8
0
 62
7
100
AcDbSpline
 70
8
 71
3
 72
8
 73
4
 74
0
 40
0
 40
0
 40
0
 40
0
 40
1
 40
1
 40
1
 40
1
 10
130.362800
 20
-94.484912
 30
0.0
 10
130.736474
 20
-94.330131
 30
0.0
 10
130.980117
 20
-93.965494
 30
0.0
 10
130.980117
 20
-93.561031
 30
0.0
  0
SPLINE
  5
23f
100
AcDbEntity
  8
0
 62
7
100
AcDbSpline
 70
8
 71
3
 72
8
 73
4
 74
0
 40
0
 40
0
 40
0
 40
0
 40
1
 40
1
 40
1
 40
1
 10
130.980117
 20
-93.561031
 30
0.0
 10
130.980117
 20
-93.295815
 30
0.0
 10
130.874760
 20
-93.041460
 30
0.0
 10
130.687223
 20
-92.853924
 30
0.0
  0
SPLINE
  5
240
100
AcDbEntity
  8
0
 62
7
100
AcDbSpline
 70
8
 71
3
 72
8
 73
4
 74
0
 40
0
 40
0
 40
0
 40
0
 40
1
 40
1
 40
1
 40
1
 10
130.687223
 20
-92.853924
 30
0.0
 10
130.499687
 20
-92.666387
 30
0.0
 10
130.245333
 20
-92.561030
 30
0.0
 10
129.980116
 20
-92.561030
 30
0.0
  0
LWPOLYLINE
  5
241
100
AcDbEntity
  8
0
 62
7
100
AcDbPolyline
 90
1
 70
1
 10
124.658111
 20
-92.559950
 30
0.0
  0
SPLINE
  5
242
100
AcDbEntity
  8
0
 62
7
100
AcDbSpline
 70
8
 71
3
 72
8
 73
4
 74
0
 40
0
 40
0
 40
0
 40
0
 40
1
 40
1
 40
1
 40
1
 10
135.331921
 20
-92.562662
 30
0.0
 10
134.927458
 20
-92.562662
 30
0.0
 10
134.562822
 20
-92.806305
 30
0.0
 10
134.408040
 20
-93.179980
 30
0.0
  0
SPLINE
  5
243
100
AcDbEntity
  8
0
 62
7
100
AcDbSpline
 70
8
 71
3
 72
8
 73
4
 74
0
 40
0
 40
0
 40
0
 40
0
 40
1
 40
1
 40
1
 40
1
 10
134.408040
 20
-93.179980
 30
0.0
 10
134.253259
 20
-93.553654
 30
0.0
 10
134.338815
 20
-93.983773
 30
0.0
 10
134.624813
 20
-94.269771
 30
0.0
  0
SPLINE
  5
244
100
AcDbEntity
  8
0
 62
7
100
AcDbSpline
 70
8
 71
3
 72
8
 73
4
 74
0
 40
0
 40
0
 40
0
 40
0
 40
1
 40
1
 40
1
 40
1
 10
134.624813
 20
-94.269771
 30
0.0
 10
134.910812
 20
-94.555769
 30
0.0
 10
135.340930
 20
-94.641325
 30
0.0
 10
135.714605
 20
-94.486544
 30
0.0
  0
SPLINE
  5
245
100
AcDbEntity
  8
0
 62
7
100
AcDbSpline
 70
8
 71
3
 72
8
 73
4
 74
0
 40
0
 40
0
 40
0
 40
0
 40
1
 40
1
 40
1
 40
1
 10
135.714605
 20
-94.486544
 30
0.0
 10
136.088279
 20
-94.331763
 30
0.0
 10
136.331922
 20
-93.967126
 30
0.0
 10
136.331922
 20
-93.562663
 30
0.0
  0
SPLINE
  5
246
100
AcDbEntity
  8
0
 62
7
100
AcDbSpline
 70
8
 71
3
 72
8
 73
4
 74
0
 40
0
 40
0
 40
0
 40
0
 40
1
 40
1
 40
1
 40
1
 10
136.331922
 20
-93.562663
 30
0.0
 10
136.331922
 20
-93.297447
 30
0.0
 10
136.226565
 20
-93.043092
 30
0.0
 10
136.039028
 20
-92.855556
 30
0.0
  0
SPLINE
  5
247
100
AcDbEntity
  8
0
 62
7
100
AcDbSpline
 70
8
 71
3
 72
8
 73
4
 74
0
 40
0
 40
0
 40
0
 40
0
 40
1
 40
1
 40
1
 40
1
 10
136.039028
 20
-92.855556
 30
0.0
 10
135.851492
 20
-92.668019
 30
0.0
 10
135.597138
 20
-92.562662
 30
0.0
 10
135.331921
 20
-92.562662
 30
0.0
  0
LWPOLYLINE
  5
248
100
AcDbEntity
  8
0
 62
7
100
AcDbPolyline
 90
1
 70
1
 10
129.980116
 20
-92.561030
 30
0.0
  0
SPLINE
  5
249
100
AcDbEntity
  8
0
 62
7
100
AcDbSpline
 70
8
 71
3
 72
8
 73
4
 74
0
 40
0
 40
0
 40
0
 40
0
 40
1
 40
1
 40
1
 40
1
 10
127.347049
 20
-99.906677
 30
0.0
 10
126.942587
 20
-99.906677
 30
0.0
 10
126.577950
 20
-100.150320
 30
0.0
 10
126.423169
 20
-100.523995
 30
0.0
  0
SPLINE
  5
24a
100
AcDbEntity
  8
0
 62
7
100
AcDbSpline
 70
8
 71
3
 72
8
 73
4
 74
0
 40
0
 40
0
 40
0
 40
0
 40
1
 40
1
 40
1
 40
1
 10
126.423169
 20
-100.523995
 30
0.0
 10
126.268388
 20
-100.897669
 30
0.0
 10
126.353944
 20
-101.327788
 30
0.0
 10
126.639942
 20
-101.613786
 30
0.0
  0
SPLINE
  5
24b
100
AcDbEntity
  8
0
 62
7
100
AcDbSpline
 70
8
 71
3
 72
8
 73
4
 74
0
 40
0
 40
0
 40
0
 40
0
 40
1
 40
1
 40
1
 40
1
 10
126.639942
 20
-101.613786
 30
0.0
 10
126.925940
 20
-101.899784
 30
0.0
 10
127.356058
 20
-101.985340
 30
0.0
 10
127.729733
 20
-101.830559
 30
0.0
  0
SPLINE
  5
24c
100
AcDbEntity
  8
0
 62
7
100
AcDbSpline
 70
8
 71
3
 72
8
 73
4
 74
0
 40
0
 40
0
 40
0
 40
0
 40
1
 40
1
 40
1
 40
1
 10
127.729733
 20
-101.830559
 30
0.0
 10
128.103408
 20
-101.675778
 30
0.0
 10
128.347050
 20
-101.311141
 30
0.0
 10
128.347050
 20
-100.906678
 30
0.0
  0
SPLINE
  5
24d
100
AcDbEntity
  8
0
 62
7
100
AcDbSpline
 70
8
 71
3
 72
8
 73
4
 74
0
 40
0
 40
0
 40
0
 40
0
 40
1
 40
1
 40
1
 40
1
 10
128.347050
 20
-100.906678
 30
0.0
 10
128.347050
 20
-100.641462
 30
0.0
 10
128.241693
 20
-100.387107
 30
0.0
 10
128.054157
 20
-100.199571
 30
0.0
  0
SPLINE
  5
24e
100
AcDbEntity
  8
0
 62
7
100
AcDbSpline
 70
8
 71
3
 72
8
 73
4
 74
0
 40
0
 40
0
 40
0
 40
0
 40
1
 40
1
 40
1
 40
1
 10
128.054157
 20
-100.199571
 30
0.0
 10
127.866620
 20
-100.012034
 30
0.0
 10
127.612266
 20
-99.906677
 30
0.0
 10
127.347049
 20
-99.906677
 30
0.0
  0
LWPOLYLINE
  5
24f
100
AcDbEntity
  8
0
 62
7
100
AcDbPolyline
 90
1
 70
1
 10
135.331921
 20
-92.562662
 30
0.0
  0
SPLINE
  5
250
100
AcDbEntity
  8
0
 62
7
100
AcDbSpline
 70
8
 71
3
 72
8
 73
4
 74
0
 40
0
 40
0
 40
0
 40
0
 40
1
 40
1
 40
1
 40
1
 10
124.672735
 20
-81.576108
 30
0.0
 10
124.268272
 20
-81.576108
 30
0.0
 10
123.903635
 20
-81.819750
 30
0.0
 10
123.748854
 20
-82.193425
 30
0.0
  0
SPLINE
  5
251
100
AcDbEntity
  8
0
 62
7
100
AcDbSpline
 70
8
 71
3
 72
8
 73
4
 74
0
 40
0
 40
0
 40
0
 40
0
 40
1
 40
1
 40
1
 40
1
 10
123.748854
 20
-82.193425
 30
0.0
 10
123.594073
 20
-82.567100
 30
0.0
 10
123.679629
 20
-82.997218
 30
0.0
 10
123.965627
 20
-83.283216
 30
0.0
  0
SPLINE
  5
252
100
AcDbEntity
  8
0
 62
7
100
AcDbSpline
 70
8
 71
3
 72
8
 73
4
 74
0
 40
0
 40
0
 40
0
 40
0
 40
1
 40
1
 40
1
 40
1
 10
123.965627
 20
-83.283216
 30
0.0
 10
124.251626
 20
-83.569215
 30
0.0
 10
124.681744
 20
-83.654770
 30
0.0
 10
125.055419
 20
-83.499989
 30
0.0
  0
SPLINE
  5
253
100
AcDbEntity
  8
0
 62
7
100
AcDbSpline
 70
8
 71
3
 72
8
 73
4
 74
0
 40
0
 40
0
 40
0
 40
0
 40
1
 40
1
 40
1
 40
1
 10
125.055419
 20
-83.499989
 30
0.0
 10
125.429093
 20
-83.345208
 30
0.0
 10
125.672736
 20
-82.980572
 30
0.0
 10
125.672736
 20
-82.576109
 30
0.0
  0
SPLINE
  5
254
100
AcDbEntity
  8
0
 62
7
100
AcDbSpline
 70
8
 71
3
 72
8
 73
4
 74
0
 40
0
 40
0
 40
0
 40
0
 40
1
 40
1
 40
1
 40
1
 10
125.672736
 20
-82.576109
 30
0.0
 10
125.672736
 20
-82.023824
 30
0.0
 10
125.225020
 20
-81.576108
 30
0.0
 10
124.672735
 20
-81.576108
 30
0.0
  0
LWPOLYLINE
  5
255
100
AcDbEntity
  8
0
 62
7
100
AcDbPolyline
 90
1
 70
1
 10
127.347049
 20
-99.906677
 30
0.0
  0
SPLINE
  5
256
100
AcDbEntity
  8
0
 62
7
100
AcDbSpline
 70
8
 71
3
 72
8
 73
4
 74
0
 40
0
 40
0
 40
0
 40
0
 40
1
 40
1
 40
1
 40
1
 10
129.995948
 20
-81.557468
 30
0.0
 10
129.591485
 20
-81.557468
 30
0.0
 10
129.226849
 20
-81.801110
 30
0.0
 10
129.072067
 20
-82.174785
 30
0.0
  0
SPLINE
  5
257
100
AcDbEntity
  8
0
 62
7
100
AcDbSpline
 70
8
 71
3
 72
8
 73
4
 74
0
 40
0
 40
0
 40
0
 40
0
 40
1
 40
1
 40
1
 40
1
 10
129.072067
 20
-82.174785
 30
0.0
 10
128.917286
 20
-82.548460
 30
0.0
 10
129.002842
 20
-82.978578
 30
0.0
 10
129.288840
 20
-83.264576
 30
0.0
  0
SPLINE
  5
258
100
AcDbEntity
  8
0
 62
7
100
AcDbSpline
 70
8
 71
3
 72
8
 73
4
 74
0
 40
0
 40
0
 40
0
 40
0
 40
1
 40
1
 40
1
 40
1
 10
129.288840
 20
-83.264576
 30
0.0
 10
129.574839
 20
-83.550575
 30
0.0
 10
130.004957
 20
-83.636130
 30
0.0
 10
130.378632
 20
-83.481349
 30
0.0
  0
SPLINE
  5
259
100
AcDbEntity
  8
0
 62
7
100
AcDbSpline
 70
8
 71
3
 72
8
 73
4
 74
0
 40
0
 40
0
 40
0
 40
0
 40
1
 40
1
 40
1
 40
1
 10
130.378632
 20
-83.481349
 30
0.0
 10
130.752306
 20
-83.326568
 30
0.0
 10
130.995949
 20
-82.961932
 30
0.0
 10
130.995949
 20
-82.557469
 30
0.0
  0
SPLINE
  5
25a
100
AcDbEntity
  8
0
 62
7
100
AcDbSpline
 70
8
 71
3
 72
8
 73
4
 74
0
 40
0
 40
0
 40
0
 40
0
 40
1
 40
1
 40
1
 40
1
 10
130.995949
 20
-82.557469
 30
0.0
 10
130.995949
 20
-82.292252
 30
0.0
 10
130.890592
 20
-82.037898
 30
0.0
 10
130.703055
 20
-81.850361
 30
0.0
  0
SPLINE
  5
25b
100
AcDbEntity
  8
0
 62
7
100
AcDbSpline
 70
8
 71
3
 72
8
 73
4
 74
0
 40
0
 40
0
 40
0
 40
0
 40
1
 40
1
 40
1
 40
1
 10
130.703055
 20
-81.850361
 30
0.0
 10
130.515519
 20
-81.662825
 30
0.0
 10
130.261165
 20
-81.557468
 30
0.0
 10
129.995948
 20
-81.557468
 30
0.0
  0
LWPOLYLINE
  5
25c
100
AcDbEntity
  8
0
 62
7
100
AcDbPolyline
 90
1
 70
1
 10
124.672735
 20
-81.576108
 30
0.0
  0
SPLINE
  5
25d
100
AcDbEntity
  8
0
 62
7
100
AcDbSpline
 70
8
 71
3
 72
8
 73
4
 74
0
 40
0
 40
0
 40
0
 40
0
 40
1
 40
1
 40
1
 40
1
 10
122.024252
 20
-84.326671
 30
0.0
 10
121.619790
 20
-84.326671
 30
0.0
 10
121.255153
 20
-84.570313
 30
0.0
 10
121.100372
 20
-84.943988
 30
0.0
  0
SPLINE
  5
25e
100
AcDbEntity
  8
0
 62
7
100
AcDbSpline
 70
8
 71
3
 72
8
 73
4
 74
0
 40
0
 40
0
 40
0
 40
0
 40
1
 40
1
 40
1
 40
1
 10
121.100372
 20
-84.943988
 30
0.0
 10
120.945591
 20
-85.317662
 30
0.0
 10
121.031146
 20
-85.747781
 30
0.0
 10
121.317145
 20
-86.033779
 30
0.0
  0
SPLINE
  5
25f
100
AcDbEntity
  8
0
 62
7
100
AcDbSpline
 70
8
 71
3
 72
8
 73
4
 74
0
 40
0
 40
0
 40
0
 40
0
 40
1
 40
1
 40
1
 40
1
 10
121.317145
 20
-86.033779
 30
0.0
 10
121.603143
 20
-86.319777
 30
0.0
 10
122.033261
 20
-86.405333
 30
0.0
 10
122.406936
 20
-86.250552
 30
0.0
  0
SPLINE
  5
260
100
AcDbEntity
  8
0
 62
7
100
AcDbSpline
 70
8
 71
3
 72
8
 73
4
 74
0
 40
0
 40
0
 40
0
 40
0
 40
1
 40
1
 40
1
 40
1
 10
122.406936
 20
-86.250552
 30
0.0
 10
122.780611
 20
-86.095771
 30
0.0
 10
123.024253
 20
-85.731134
 30
0.0
 10
123.024253
 20
-85.326672
 30
0.0
  0
SPLINE
  5
261
100
AcDbEntity
  8
0
 62
7
100
AcDbSpline
 70
8
 71
3
 72
8
 73
4
 74
0
 40
0
 40
0
 40
0
 40
0
 40
1
 40
1
 40
1
 40
1
 10
123.024253
 20
-85.326672
 30
0.0
 10
123.024253
 20
-85.061455
 30
0.0
 10
122.918896
 20
-84.807101
 30
0.0
 10
122.731360
 20
-84.619564
 30
0.0
  0
SPLINE
  5
262
100
AcDbEntity
  8
0
 62
7
100
AcDbSpline
 70
8
 71
3
 72
8
 73
4
 74
0
 40
0
 40
0
 40
0
 40
0
 40
1
 40
1
 40
1
 40
1
 10
122.731360
 20
-84.619564
 30
0.0
 10
122.543823
 20
-84.432028
 30
0.0
 10
122.289469
 20
-84.326671
 30
0.0
 10
122.024252
 20
-84.326671
 30
0.0
  0
LWPOLYLINE
  5
263
100
AcDbEntity
  8
0
 62
7
100
AcDbPolyline
 90
1
 70
1
 10
129.995948
 20
-81.557468
 30
0.0
  0
SPLINE
  5
264
100
AcDbEntity
  8
0
 62
7
100
AcDbSpline
 70
8
 71
3
 72
8
 73
4
 74
0
 40
0
 40
0
 40
0
 40
0
 40
1
 40
1
 40
1
 40
1
 10
132.644198
 20
-84.332607
 30
0.0
 10
132.239736
 20
-84.332607
 30
0.0
 10
131.875099
 20
-84.576249
 30
0.0
 10
131.720318
 20
-84.949924
 30
0.0
  0
SPLINE
  5
265
100
AcDbEntity
  8
0
 62
7
100
AcDbSpline
 70
8
 71
3
 72
8
 73
4
 74
0
 40
0
 40
0
 40
0
 40
0
 40
1
 40
1
 40
1
 40
1
 10
131.720318
 20
-84.949924
 30
0.0
 10
131.565537
 20
-85.323598
 30
0.0
 10
131.651093
 20
-85.753717
 30
0.0
 10
131.937091
 20
-86.039715
 30
0.0
  0
SPLINE
  5
266
100
AcDbEntity
  8
0
 62
7
100
AcDbSpline
 70
8
 71
3
 72
8
 73
4
 74
0
 40
0
 40
0
 40
0
 40
0
 40
1
 40
1
 40
1
 40
1
 10
131.937091
 20
-86.039715
 30
0.0
 10
132.223089
 20
-86.325713
 30
0.0
 10
132.653207
 20
-86.411269
 30
0.0
 10
133.026882
 20
-86.256488
 30
0.0
  0
SPLINE
  5
267
100
AcDbEntity
  8
0
 62
7
100
AcDbSpline
 70
8
 71
3
 72
8
 73
4
 74
0
 40
0
 40
0
 40
0
 40
0
 40
1
 40
1
 40
1
 40
1
 10
133.026882
 20
-86.256488
 30
0.0
 10
133.400557
 20
-86.101707
 30
0.0
 10
133.644199
 20
-85.737070
 30
0.0
 10
133.644199
 20
-85.332608
 30
0.0
  0
SPLINE
  5
268
100
AcDbEntity
  8
0
 62
7
100
AcDbSpline
 70
8
 71
3
 72
8
 73
4
 74
0
 40
0
 40
0
 40
0
 40
0
 40
1
 40
1
 40
1
 40
1
 10
133.644199
 20
-85.332608
 30
0.0
 10
133.644199
 20
-85.067391
 30
0.0
 10
133.538842
 20
-84.813037
 30
0.0
 10
133.351306
 20
-84.625500
 30
0.0
  0
SPLINE
  5
269
100
AcDbEntity
  8
0
 62
7
100
AcDbSpline
 70
8
 71
3
 72
8
 73
4
 74
0
 40
0
 40
0
 40
0
 40
0
 40
1
 40
1
 40
1
 40
1
 10
133.351306
 20
-84.625500
 30
0.0
 10
133.163769
 20
-84.437964
 30
0.0
 10
132.909415
 20
-84.332607
 30
0.0
 10
132.644198
 20
-84.332607
 30
0.0
  0
LWPOLYLINE
  5
26a
100
AcDbEntity
  8
0
 62
7
100
AcDbPolyline
 90
1
 70
1
 10
122.024252
 20
-84.326671
 30
0.0
  0
SPLINE
  5
26b
100
AcDbEntity
  8
0
 62
7
100
AcDbSpline
 70
8
 71
3
 72
8
 73
4
 74
0
 40
0
 40
0
 40
0
 40
0
 40
1
 40
1
 40
1
 40
1
 10
124.673063
 20
-87.051817
 30
0.0
 10
124.268600
 20
-87.051817
 30
0.0
 10
123.903963
 20
-87.295460
 30
0.0
 10
123.749182
 20
-87.669134
 30
0.0
  0
SPLINE
  5
26c
100
AcDbEntity
  8
0
 62
7
100
AcDbSpline
 70
8
 71
3
 72
8
 73
4
 74
0
 40
0
 40
0
 40
0
 40
0
 40
1
 40
1
 40
1
 40
1
 10
123.749182
 20
-87.669134
 30
0.0
 10
123.594401
 20
-88.042809
 30
0.0
 10
123.679957
 20
-88.472927
 30
0.0
 10
123.965955
 20
-88.758926
 30
0.0
  0
SPLINE
  5
26d
100
AcDbEntity
  8
0
 62
7
100
AcDbSpline
 70
8
 71
3
 72
8
 73
4
 74
0
 40
0
 40
0
 40
0
 40
0
 40
1
 40
1
 40
1
 40
1
 10
123.965955
 20
-88.758926
 30
0.0
 10
124.251954
 20
-89.044924
 30
0.0
 10
124.682072
 20
-89.130480
 30
0.0
 10
125.055747
 20
-88.975699
 30
0.0
  0
SPLINE
  5
26e
100
AcDbEntity
  8
0
 62
7
100
AcDbSpline
 70
8
 71
3
 72
8
 73
4
 74
0
 40
0
 40
0
 40
0
 40
0
 40
1
 40
1
 40
1
 40
1
 10
125.055747
 20
-88.975699
 30
0.0
 10
125.429421
 20
-88.820917
 30
0.0
 10
125.673064
 20
-88.456281
 30
0.0
 10
125.673064
 20
-88.051818
 30
0.0
  0
SPLINE
  5
26f
100
AcDbEntity
  8
0
 62
7
100
AcDbSpline
 70
8
 71
3
 72
8
 73
4
 74
0
 40
0
 40
0
 40
0
 40
0
 40
1
 40
1
 40
1
 40
1
 10
125.673064
 20
-88.051818
 30
0.0
 10
125.673064
 20
-87.786601
 30
0.0
 10
125.567707
 20
-87.532247
 30
0.0
 10
125.380170
 20
-87.344711
 30
0.0
  0
SPLINE
  5
270
100
AcDbEntity
  8
0
 62
7
100
AcDbSpline
 70
8
 71
3
 72
8
 73
4
 74
0
 40
0
 40
0
 40
0
 40
0
 40
1
 40
1
 40
1
 40
1
 10
125.380170
 20
-87.344711
 30
0.0
 10
125.192634
 20
-87.157174
 30
0.0
 10
124.938279
 20
-87.051817
 30
0.0
 10
124.673063
 20
-87.051817
 30
0.0
  0
LWPOLYLINE
  5
271
100
AcDbEntity
  8
0
 62
7
100
AcDbPolyline
 90
1
 70
1
 10
132.644198
 20
-84.332607
 30
0.0
  0
SPLINE
  5
272
100
AcDbEntity
  8
0
 62
7
100
AcDbSpline
 70
8
 71
3
 72
8
 73
4
 74
0
 40
0
 40
0
 40
0
 40
0
 40
1
 40
1
 40
1
 40
1
 10
130.001932
 20
-87.050745
 30
0.0
 10
129.597469
 20
-87.050745
 30
0.0
 10
129.232833
 20
-87.294388
 30
0.0
 10
129.078051
 20
-87.668062
 30
0.0
  0
SPLINE
  5
273
100
AcDbEntity
  8
0
 62
7
100
AcDbSpline
 70
8
 71
3
 72
8
 73
4
 74
0
 40
0
 40
0
 40
0
 40
0
 40
1
 40
1
 40
1
 40
1
 10
129.078051
 20
-87.668062
 30
0.0
 10
128.923270
 20
-88.041737
 30
0.0
 10
129.008826
 20
-88.471855
 30
0.0
 10
129.294824
 20
-88.757854
 30
0.0
  0
SPLINE
  5
274
100
AcDbEntity
  8
0
 62
7
100
AcDbSpline
 70
8
 71
3
 72
8
 73
4
 74
0
 40
0
 40
0
 40
0
 40
0
 40
1
 40
1
 40
1
 40
1
 10
129.294824
 20
-88.757854
 30
0.0
 10
129.580823
 20
-89.043852
 30
0.0
 10
130.010941
 20
-89.129408
 30
0.0
 10
130.384616
 20
-88.974627
 30
0.0
  0
SPLINE
  5
275
100
AcDbEntity
  8
0
 62
7
100
AcDbSpline
 70
8
 71
3
 72
8
 73
4
 74
0
 40
0
 40
0
 40
0
 40
0
 40
1
 40
1
 40
1
 40
1
 10
130.384616
 20
-88.974627
 30
0.0
 10
130.758290
 20
-88.819845
 30
0.0
 10
131.001933
 20
-88.455209
 30
0.0
 10
131.001933
 20
-88.050746
 30
0.0
  0
SPLINE
  5
276
100
AcDbEntity
  8
0
 62
7
100
AcDbSpline
 70
8
 71
3
 72
8
 73
4
 74
0
 40
0
 40
0
 40
0
 40
0
 40
1
 40
1
 40
1
 40
1
 10
131.001933
 20
-88.050746
 30
0.0
 10
131.001933
 20
-87.785529
 30
0.0
 10
130.896576
 20
-87.531175
 30
0.0
 10
130.709039
 20
-87.343639
 30
0.0
  0
SPLINE
  5
277
100
AcDbEntity
  8
0
 62
7
100
AcDbSpline
 70
8
 71
3
 72
8
 73
4
 74
0
 40
0
 40
0
 40
0
 40
0
 40
1
 40
1
 40
1
 40
1
 10
130.709039
 20
-87.343639
 30
0.0
 10
130.521503
 20
-87.156102
 30
0.0
 10
130.267149
 20
-87.050745
 30
0.0
 10
130.001932
 20
-87.050745
 30
0.0
  0
LWPOLYLINE
  5
278
100
AcDbEntity
  8
0
 62
7
100
AcDbPolyline
 90
1
 70
1
 10
124.673063
 20
-87.051817
 30
0.0
  0
SPLINE
  5
279
100
AcDbEntity
  8
0
 62
7
100
AcDbSpline
 70
8
 71
3
 72
8
 73
4
 74
0
 40
0
 40
0
 40
0
 40
0
 40
1
 40
1
 40
1
 40
1
 10
130.009644
 20
-70.559049
 30
0.0
 10
129.605181
 20
-70.559049
 30
0.0
 10
129.240545
 20
-70.802692
 30
0.0
 10
129.085763
 20
-71.176367
 30
0.0
  0
SPLINE
  5
27a
100
AcDbEntity
  8
0
 62
7
100
AcDbSpline
 70
8
 71
3
 72
8
 73
4
 74
0
 40
0
 40
0
 40
0
 40
0
 40
1
 40
1
 40
1
 40
1
 10
129.085763
 20
-71.176367
 30
0.0
 10
128.930982
 20
-71.550041
 30
0.0
 10
129.016538
 20
-71.980160
 30
0.0
 10
129.302536
 20
-72.266158
 30
0.0
  0
SPLINE
  5
27b
100
AcDbEntity
  8
0
 62
7
100
AcDbSpline
 70
8
 71
3
 72
8
 73
4
 74
0
 40
0
 40
0
 40
0
 40
0
 40
1
 40
1
 40
1
 40
1
 10
129.302536
 20
-72.266158
 30
0.0
 10
129.588535
 20
-72.552156
 30
0.0
 10
130.018653
 20
-72.637712
 30
0.0
 10
130.392328
 20
-72.482931
 30
0.0
  0
SPLINE
  5
27c
100
AcDbEntity
  8
0
 62
7
100
AcDbSpline
 70
8
 71
3
 72
8
 73
4
 74
0
 40
0
 40
0
 40
0
 40
0
 40
1
 40
1
 40
1
 40
1
 10
130.392328
 20
-72.482931
 30
0.0
 10
130.766002
 20
-72.328150
 30
0.0
 10
131.009645
 20
-71.963513
 30
0.0
 10
131.009645
 20
-71.559050
 30
0.0
  0
SPLINE
  5
27d
100
AcDbEntity
  8
0
 62
7
100
AcDbSpline
 70
8
 71
3
 72
8
 73
4
 74
0
 40
0
 40
0
 40
0
 40
0
 40
1
 40
1
 40
1
 40
1
 10
131.009645
 20
-71.559050
 30
0.0
 10
131.009645
 20
-71.293834
 30
0.0
 10
130.904288
 20
-71.039480
 30
0.0
 10
130.716751
 20
-70.851943
 30
0.0
  0
SPLINE
  5
27e
100
AcDbEntity
  8
0
 62
7
100
AcDbSpline
 70
8
 71
3
 72
8
 73
4
 74
0
 40
0
 40
0
 40
0
 40
0
 40
1
 40
1
 40
1
 40
1
 10
130.716751
 20
-70.851943
 30
0.0
 10
130.529215
 20
-70.664406
 30
0.0
 10
130.274861
 20
-70.559049
 30
0.0
 10
130.009644
 20
-70.559049
 30
0.0
  0
LWPOLYLINE
  5
27f
100
AcDbEntity
  8
0
 62
7
100
AcDbPolyline
 90
1
 70
1
 10
130.001932
 20
-87.050745
 30
0.0
  0
SPLINE
  5
280
100
AcDbEntity
  8
0
 62
7
100
AcDbSpline
 70
8
 71
3
 72
8
 73
4
 74
0
 40
0
 40
0
 40
0
 40
0
 40
1
 40
1
 40
1
 40
1
 10
127.339393
 20
-67.806383
 30
0.0
 10
126.934931
 20
-67.806383
 30
0.0
 10
126.570294
 20
-68.050025
 30
0.0
 10
126.415513
 20
-68.423700
 30
0.0
  0
SPLINE
  5
281
100
AcDbEntity
  8
0
 62
7
100
AcDbSpline
 70
8
 71
3
 72
8
 73
4
 74
0
 40
0
 40
0
 40
0
 40
0
 40
1
 40
1
 40
1
 40
1
 10
126.415513
 20
-68.423700
 30
0.0
 10
126.260732
 20
-68.797375
 30
0.0
 10
126.346288
 20
-69.227493
 30
0.0
 10
126.632286
 20
-69.513491
 30
0.0
  0
SPLINE
  5
282
100
AcDbEntity
  8
0
 62
7
100
AcDbSpline
 70
8
 71
3
 72
8
 73
4
 74
0
 40
0
 40
0
 40
0
 40
0
 40
1
 40
1
 40
1
 40
1
 10
126.632286
 20
-69.513491
 30
0.0
 10
126.918284
 20
-69.799490
 30
0.0
 10
127.348402
 20
-69.885045
 30
0.0
 10
127.722077
 20
-69.730264
 30
0.0
  0
SPLINE
  5
283
100
AcDbEntity
  8
0
 62
7
100
AcDbSpline
 70
8
 71
3
 72
8
 73
4
 74
0
 40
0
 40
0
 40
0
 40
0
 40
1
 40
1
 40
1
 40
1
 10
127.722077
 20
-69.730264
 30
0.0
 10
128.095752
 20
-69.575483
 30
0.0
 10
128.339394
 20
-69.210846
 30
0.0
 10
128.339394
 20
-68.806384
 30
0.0
  0
SPLINE
  5
284
100
AcDbEntity
  8
0
 62
7
100
AcDbSpline
 70
8
 71
3
 72
8
 73
4
 74
0
 40
0
 40
0
 40
0
 40
0
 40
1
 40
1
 40
1
 40
1
 10
128.339394
 20
-68.806384
 30
0.0
 10
128.339394
 20
-68.541167
 30
0.0
 10
128.234037
 20
-68.286813
 30
0.0
 10
128.046501
 20
-68.099276
 30
0.0
  0
SPLINE
  5
285
100
AcDbEntity
  8
0
 62
7
100
AcDbSpline
 70
8
 71
3
 72
8
 73
4
 74
0
 40
0
 40
0
 40
0
 40
0
 40
1
 40
1
 40
1
 40
1
 10
128.046501
 20
-68.099276
 30
0.0
 10
127.858964
 20
-67.911740
 30
0.0
 10
127.604610
 20
-67.806383
 30
0.0
 10
127.339393
 20
-67.806383
 30
0.0
  0
LWPOLYLINE
  5
286
100
AcDbEntity
  8
0
 62
7
100
AcDbPolyline
 90
1
 70
1
 10
130.009644
 20
-70.559049
 30
0.0
  0
SPLINE
  5
287
100
AcDbEntity
  8
0
 62
7
100
AcDbSpline
 70
8
 71
3
 72
8
 73
4
 74
0
 40
0
 40
0
 40
0
 40
0
 40
1
 40
1
 40
1
 40
1
 10
124.648343
 20
-70.559425
 30
0.0
 10
124.243880
 20
-70.559425
 30
0.0
 10
123.879243
 20
-70.803068
 30
0.0
 10
123.724462
 20
-71.176743
 30
0.0
  0
SPLINE
  5
288
100
AcDbEntity
  8
0
 62
7
100
AcDbSpline
 70
8
 71
3
 72
8
 73
4
 74
0
 40
0
 40
0
 40
0
 40
0
 40
1
 40
1
 40
1
 40
1
 10
123.724462
 20
-71.176743
 30
0.0
 10
123.569681
 20
-71.550417
 30
0.0
 10
123.655237
 20
-71.980536
 30
0.0
 10
123.941235
 20
-72.266534
 30
0.0
  0
SPLINE
  5
289
100
AcDbEntity
  8
0
 62
7
100
AcDbSpline
 70
8
 71
3
 72
8
 73
4
 74
0
 40
0
 40
0
 40
0
 40
0
 40
1
 40
1
 40
1
 40
1
 10
123.941235
 20
-72.266534
 30
0.0
 10
124.227234
 20
-72.552532
 30
0.0
 10
124.657352
 20
-72.638088
 30
0.0
 10
125.031027
 20
-72.483307
 30
0.0
  0
SPLINE
  5
28a
100
AcDbEntity
  8
0
 62
7
100
AcDbSpline
 70
8
 71
3
 72
8
 73
4
 74
0
 40
0
 40
0
 40
0
 40
0
 40
1
 40
1
 40
1
 40
1
 10
125.031027
 20
-72.483307
 30
0.0
 10
125.404701
 20
-72.328526
 30
0.0
 10
125.648344
 20
-71.963889
 30
0.0
 10
125.648344
 20
-71.559426
 30
0.0
  0
SPLINE
  5
28b
100
AcDbEntity
  8
0
 62
7
100
AcDbSpline
 70
8
 71
3
 72
8
 73
4
 74
0
 40
0
 40
0
 40
0
 40
0
 40
1
 40
1
 40
1
 40
1
 10
125.648344
 20
-71.559426
 30
0.0
 10
125.648344
 20
-71.294210
 30
0.0
 10
125.542987
 20
-71.039856
 30
0.0
 10
125.355450
 20
-70.852319
 30
0.0
  0
SPLINE
  5
28c
100
AcDbEntity
  8
0
 62
7
100
AcDbSpline
 70
8
 71
3
 72
8
 73
4
 74
0
 40
0
 40
0
 40
0
 40
0
 40
1
 40
1
 40
1
 40
1
 10
125.355450
 20
-70.852319
 30
0.0
 10
125.167914
 20
-70.664782
 30
0.0
 10
124.913559
 20
-70.559425
 30
0.0
 10
124.648343
 20
-70.559425
 30
0.0
  0
LWPOLYLINE
  5
28d
100
AcDbEntity
  8
0
 62
7
100
AcDbPolyline
 90
1
 70
1
 10
127.339393
 20
-67.806383
 30
0.0
  0
SPLINE
  5
28e
100
AcDbEntity
  8
0
 62
7
100
AcDbSpline
 70
8
 71
3
 72
8
 73
4
 74
0
 40
0
 40
0
 40
0
 40
0
 40
1
 40
1
 40
1
 40
1
 10
124.662503
 20
-65.087356
 30
0.0
 10
124.258040
 20
-65.087356
 30
0.0
 10
123.893403
 20
-65.330999
 30
0.0
 10
123.738622
 20
-65.704673
 30
0.0
  0
SPLINE
  5
28f
100
AcDbEntity
  8
0
 62
7
100
AcDbSpline
 70
8
 71
3
 72
8
 73
4
 74
0
 40
0
 40
0
 40
0
 40
0
 40
1
 40
1
 40
1
 40
1
 10
123.738622
 20
-65.704673
 30
0.0
 10
123.583841
 20
-66.078348
 30
0.0
 10
123.669397
 20
-66.508466
 30
0.0
 10
123.955395
 20
-66.794465
 30
0.0
  0
SPLINE
  5
290
100
AcDbEntity
  8
0
 62
7
100
AcDbSpline
 70
8
 71
3
 72
8
 73
4
 74
0
 40
0
 40
0
 40
0
 40
0
 40
1
 40
1
 40
1
 40
1
 10
123.955395
 20
-66.794465
 30
0.0
 10
124.241394
 20
-67.080463
 30
0.0
 10
124.671512
 20
-67.166019
 30
0.0
 10
125.045187
 20
-67.011238
 30
0.0
  0
SPLINE
  5
291
100
AcDbEntity
  8
0
 62
7
100
AcDbSpline
 70
8
 71
3
 72
8
 73
4
 74
0
 40
0
 40
0
 40
0
 40
0
 40
1
 40
1
 40
1
 40
1
 10
125.045187
 20
-67.011238
 30
0.0
 10
125.418861
 20
-66.856456
 30
0.0
 10
125.662504
 20
-66.491820
 30
0.0
 10
125.662504
 20
-66.087357
 30
0.0
  0
SPLINE
  5
292
100
AcDbEntity
  8
0
 62
7
100
AcDbSpline
 70
8
 71
3
 72
8
 73
4
 74
0
 40
0
 40
0
 40
0
 40
0
 40
1
 40
1
 40
1
 40
1
 10
125.662504
 20
-66.087357
 30
0.0
 10
125.662504
 20
-65.535072
 30
0.0
 10
125.214788
 20
-65.087356
 30
0.0
 10
124.662503
 20
-65.087356
 30
0.0
  0
LWPOLYLINE
  5
293
100
AcDbEntity
  8
0
 62
7
100
AcDbPolyline
 90
1
 70
1
 10
124.648343
 20
-70.559425
 30
0.0
  0
SPLINE
  5
294
100
AcDbEntity
  8
0
 62
7
100
AcDbSpline
 70
8
 71
3
 72
8
 73
4
 74
0
 40
0
 40
0
 40
0
 40
0
 40
1
 40
1
 40
1
 40
1
 10
42.314012
 20
-85.491248
 30
0.0
 10
41.909550
 20
-85.491248
 30
0.0
 10
41.544913
 20
-85.734890
 30
0.0
 10
41.390132
 20
-86.108565
 30
0.0
  0
SPLINE
  5
295
100
AcDbEntity
  8
0
 62
7
100
AcDbSpline
 70
8
 71
3
 72
8
 73
4
 74
0
 40
0
 40
0
 40
0
 40
0
 40
1
 40
1
 40
1
 40
1
 10
41.390132
 20
-86.108565
 30
0.0
 10
41.235351
 20
-86.482240
 30
0.0
 10
41.320907
 20
-86.912358
 30
0.0
 10
41.606905
 20
-87.198356
 30
0.0
  0
SPLINE
  5
296
100
AcDbEntity
  8
0
 62
7
100
AcDbSpline
 70
8
 71
3
 72
8
 73
4
 74
0
 40
0
 40
0
 40
0
 40
0
 40
1
 40
1
 40
1
 40
1
 10
41.606905
 20
-87.198356
 30
0.0
 10
41.892903
 20
-87.484354
 30
0.0
 10
42.323021
 20
-87.569910
 30
0.0
 10
42.696696
 20
-87.415129
 30
0.0
  0
SPLINE
  5
297
100
AcDbEntity
  8
0
 62
7
100
AcDbSpline
 70
8
 71
3
 72
8
 73
4
 74
0
 40
0
 40
0
 40
0
 40
0
 40
1
 40
1
 40
1
 40
1
 10
42.696696
 20
-87.415129
 30
0.0
 10
43.070371
 20
-87.260348
 30
0.0
 10
43.314013
 20
-86.895711
 30
0.0
 10
43.314013
 20
-86.491249
 30
0.0
  0
SPLINE
  5
298
100
AcDbEntity
  8
0
 62
7
100
AcDbSpline
 70
8
 71
3
 72
8
 73
4
 74
0
 40
0
 40
0
 40
0
 40
0
 40
1
 40
1
 40
1
 40
1
 10
43.314013
 20
-86.491249
 30
0.0
 10
43.314013
 20
-86.226032
 30
0.0
 10
43.208656
 20
-85.971678
 30
0.0
 10
43.021120
 20
-85.784141
 30
0.0
  0
SPLINE
  5
299
100
AcDbEntity
  8
0
 62
7
100
AcDbSpline
 70
8
 71
3
 72
8
 73
4
 74
0
 40
0
 40
0
 40
0
 40
0
 40
1
 40
1
 40
1
 40
1
 10
43.021120
 20
-85.784141
 30
0.0
 10
42.833583
 20
-85.596605
 30
0.0
 10
42.579229
 20
-85.491248
 30
0.0
 10
42.314012
 20
-85.491248
 30
0.0
  0
LWPOLYLINE
  5
29a
100
AcDbEntity
  8
0
 62
7
100
AcDbPolyline
 90
1
 70
1
 10
124.662503
 20
-65.087356
 30
0.0
  0
SPLINE
  5
29b
100
AcDbEntity
  8
0
 62
7
100
AcDbSpline
 70
8
 71
3
 72
8
 73
4
 74
0
 40
0
 40
0
 40
0
 40
0
 40
1
 40
1
 40
1
 40
1
 10
48.938439
 20
-47.994384
 30
0.0
 10
48.533976
 20
-47.994384
 30
0.0
 10
48.169339
 20
-48.238026
 30
0.0
 10
48.014558
 20
-48.611701
 30
0.0
  0
SPLINE
  5
29c
100
AcDbEntity
  8
0
 62
7
100
AcDbSpline
 70
8
 71
3
 72
8
 73
4
 74
0
 40
0
 40
0
 40
0
 40
0
 40
1
 40
1
 40
1
 40
1
 10
48.014558
 20
-48.611701
 30
0.0
 10
47.859777
 20
-48.985376
 30
0.0
 10
47.945333
 20
-49.415494
 30
0.0
 10
48.231331
 20
-49.701492
 30
0.0
  0
SPLINE
  5
29d
100
AcDbEntity
  8
0
 62
7
100
AcDbSpline
 70
8
 71
3
 72
8
 73
4
 74
0
 40
0
 40
0
 40
0
 40
0
 40
1
 40
1
 40
1
 40
1
 10
48.231331
 20
-49.701492
 30
0.0
 10
48.517329
 20
-49.987491
 30
0.0
 10
48.947448
 20
-50.073046
 30
0.0
 10
49.321122
 20
-49.918265
 30
0.0
  0
SPLINE
  5
29e
100
AcDbEntity
  8
0
 62
7
100
AcDbSpline
 70
8
 71
3
 72
8
 73
4
 74
0
 40
0
 40
0
 40
0
 40
0
 40
1
 40
1
 40
1
 40
1
 10
49.321122
 20
-49.918265
 30
0.0
 10
49.694797
 20
-49.763484
 30
0.0
 10
49.938440
 20
-49.398848
 30
0.0
 10
49.938440
 20
-48.994385
 30
0.0
  0
SPLINE
  5
29f
100
AcDbEntity
  8
0
 62
7
100
AcDbSpline
 70
8
 71
3
 72
8
 73
4
 74
0
 40
0
 40
0
 40
0
 40
0
 40
1
 40
1
 40
1
 40
1
 10
49.938440
 20
-48.994385
 30
0.0
 10
49.938440
 20
-48.729168
 30
0.0
 10
49.833083
 20
-48.474814
 30
0.0
 10
49.645546
 20
-48.287277
 30
0.0
  0
SPLINE
  5
2a0
100
AcDbEntity
  8
0
 62
7
100
AcDbSpline
 70
8
 71
3
 72
8
 73
4
 74
0
 40
0
 40
0
 40
0
 40
0
 40
1
 40
1
 40
1
 40
1
 10
49.645546
 20
-48.287277
 30
0.0
 10
49.458010
 20
-48.099741
 30
0.0
 10
49.203655
 20
-47.994384
 30
0.0
 10
48.938439
 20
-47.994384
 30
0.0
  0
LWPOLYLINE
  5
2a1
100
AcDbEntity
  8
0
 62
7
100
AcDbPolyline
 90
1
 70
1
 10
42.314012
 20
-85.491248
 30
0.0
  0
SPLINE
  5
2a2
100
AcDbEntity
  8
0
 62
7
100
AcDbSpline
 70
8
 71
3
 72
8
 73
4
 74
0
 40
0
 40
0
 40
0
 40
0
 40
1
 40
1
 40
1
 40
1
 10
81.444398
 20
-96.939867
 30
0.0
 10
81.039935
 20
-96.939867
 30
0.0
 10
80.675298
 20
-97.183509
 30
0.0
 10
80.520517
 20
-97.557184
 30
0.0
  0
SPLINE
  5
2a3
100
AcDbEntity
  8
0
 62
7
100
AcDbSpline
 70
8
 71
3
 72
8
 73
4
 74
0
 40
0
 40
0
 40
0
 40
0
 40
1
 40
1
 40
1
 40
1
 10
80.520517
 20
-97.557184
 30
0.0
 10
80.365736
 20
-97.930858
 30
0.0
 10
80.451292
 20
-98.360977
 30
0.0
 10
80.737290
 20
-98.646975
 30
0.0
  0
SPLINE
  5
2a4
100
AcDbEntity
  8
0
 62
7
100
AcDbSpline
 70
8
 71
3
 72
8
 73
4
 74
0
 40
0
 40
0
 40
0
 40
0
 40
1
 40
1
 40
1
 40
1
 10
80.737290
 20
-98.646975
 30
0.0
 10
81.023288
 20
-98.932973
 30
0.0
 10
81.453407
 20
-99.018529
 30
0.0
 10
81.827081
 20
-98.863748
 30
0.0
  0
SPLINE
  5
2a5
100
AcDbEntity
  8
0
 62
7
100
AcDbSpline
 70
8
 71
3
 72
8
 73
4
 74
0
 40
0
 40
0
 40
0
 40
0
 40
1
 40
1
 40
1
 40
1
 10
81.827081
 20
-98.863748
 30
0.0
 10
82.200756
 20
-98.708967
 30
0.0
 10
82.444399
 20
-98.344330
 30
0.0
 10
82.444399
 20
-97.939868
 30
0.0
  0
SPLINE
  5
2a6
100
AcDbEntity
  8
0
 62
7
100
AcDbSpline
 70
8
 71
3
 72
8
 73
4
 74
0
 40
0
 40
0
 40
0
 40
0
 40
1
 40
1
 40
1
 40
1
 10
82.444399
 20
-97.939868
 30
0.0
 10
82.444399
 20
-97.387582
 30
0.0
 10
81.996683
 20
-96.939867
 30
0.0
 10
81.444398
 20
-96.939867
 30
0.0
  0
LWPOLYLINE
  5
2a7
100
AcDbEntity
  8
0
 62
7
100
AcDbPolyline
 90
1
 70
1
 10
48.938439
 20
-47.994384
 30
0.0
  0
SPLINE
  5
2a8
100
AcDbEntity
  8
0
 62
7
100
AcDbSpline
 70
8
 71
3
 72
8
 73
4
 74
0
 40
0
 40
0
 40
0
 40
0
 40
1
 40
1
 40
1
 40
1
 10
105.219428
 20
-57.906213
 30
0.0
 10
104.814966
 20
-57.906213
 30
0.0
 10
104.450329
 20
-58.149856
 30
0.0
 10
104.295548
 20
-58.523531
 30
0.0
  0
SPLINE
  5
2a9
100
AcDbEntity
  8
0
 62
7
100
AcDbSpline
 70
8
 71
3
 72
8
 73
4
 74
0
 40
0
 40
0
 40
0
 40
0
 40
1
 40
1
 40
1
 40
1
 10
104.295548
 20
-58.523531
 30
0.0
 10
104.140767
 20
-58.897205
 30
0.0
 10
104.226322
 20
-59.327324
 30
0.0
 10
104.512321
 20
-59.613322
 30
0.0
  0
SPLINE
  5
2aa
100
AcDbEntity
  8
0
 62
7
100
AcDbSpline
 70
8
 71
3
 72
8
 73
4
 74
0
 40
0
 40
0
 40
0
 40
0
 40
1
 40
1
 40
1
 40
1
 10
104.512321
 20
-59.613322
 30
0.0
 10
104.798319
 20
-59.899320
 30
0.0
 10
105.228437
 20
-59.984876
 30
0.0
 10
105.602112
 20
-59.830095
 30
0.0
  0
SPLINE
  5
2ab
100
AcDbEntity
  8
0
 62
7
100
AcDbSpline
 70
8
 71
3
 72
8
 73
4
 74
0
 40
0
 40
0
 40
0
 40
0
 40
1
 40
1
 40
1
 40
1
 10
105.602112
 20
-59.830095
 30
0.0
 10
105.975787
 20
-59.675314
 30
0.0
 10
106.219429
 20
-59.310677
 30
0.0
 10
106.219429
 20
-58.906214
 30
0.0
  0
SPLINE
  5
2ac
100
AcDbEntity
  8
0
 62
7
100
AcDbSpline
 70
8
 71
3
 72
8
 73
4
 74
0
 40
0
 40
0
 40
0
 40
0
 40
1
 40
1
 40
1
 40
1
 10
106.219429
 20
-58.906214
 30
0.0
 10
106.219429
 20
-58.640998
 30
0.0
 10
106.114072
 20
-58.386643
 30
0.0
 10
105.926536
 20
-58.199107
 30
0.0
  0
SPLINE
  5
2ad
100
AcDbEntity
  8
0
 62
7
100
AcDbSpline
 70
8
 71
3
 72
8
 73
4
 74
0
 40
0
 40
0
 40
0
 40
0
 40
1
 40
1
 40
1
 40
1
 10
105.926536
 20
-58.199107
 30
0.0
 10
105.738999
 20
-58.011570
 30
0.0
 10
105.484645
 20
-57.906213
 30
0.0
 10
105.219428
 20
-57.906213
 30
0.0
  0
LWPOLYLINE
  5
2ae
100
AcDbEntity
  8
0
 62
7
100
AcDbPolyline
 90
1
 70
1
 10
81.444398
 20
-96.939867
 30
0.0
  0
SPLINE
  5
2af
100
AcDbEntity
  8
0
 62
7
100
AcDbSpline
 70
8
 71
3
 72
8
 73
4
 74
0
 40
0
 40
0
 40
0
 40
0
 40
1
 40
1
 40
1
 40
1
 10
111.986203
 20
-42.273675
 30
0.0
 10
111.581740
 20
-42.273675
 30
0.0
 10
111.217103
 20
-42.517317
 30
0.0
 10
111.062322
 20
-42.890992
 30
0.0
  0
SPLINE
  5
2b0
100
AcDbEntity
  8
0
 62
7
100
AcDbSpline
 70
8
 71
3
 72
8
 73
4
 74
0
 40
0
 40
0
 40
0
 40
0
 40
1
 40
1
 40
1
 40
1
 10
111.062322
 20
-42.890992
 30
0.0
 10
110.907541
 20
-43.264666
 30
0.0
 10
110.993097
 20
-43.694785
 30
0.0
 10
111.279095
 20
-43.980783
 30
0.0
  0
SPLINE
  5
2b1
100
AcDbEntity
  8
0
 62
7
100
AcDbSpline
 70
8
 71
3
 72
8
 73
4
 74
0
 40
0
 40
0
 40
0
 40
0
 40
1
 40
1
 40
1
 40
1
 10
111.279095
 20
-43.980783
 30
0.0
 10
111.565093
 20
-44.266781
 30
0.0
 10
111.995212
 20
-44.352337
 30
0.0
 10
112.368886
 20
-44.197556
 30
0.0
  0
SPLINE
  5
2b2
100
AcDbEntity
  8
0
 62
7
100
AcDbSpline
 70
8
 71
3
 72
8
 73
4
 74
0
 40
0
 40
0
 40
0
 40
0
 40
1
 40
1
 40
1
 40
1
 10
112.368886
 20
-44.197556
 30
0.0
 10
112.742561
 20
-44.042775
 30
0.0
 10
112.986204
 20
-43.678138
 30
0.0
 10
112.986204
 20
-43.273675
 30
0.0
  0
SPLINE
  5
2b3
100
AcDbEntity
  8
0
 62
7
100
AcDbSpline
 70
8
 71
3
 72
8
 73
4
 74
0
 40
0
 40
0
 40
0
 40
0
 40
1
 40
1
 40
1
 40
1
 10
112.986204
 20
-43.273675
 30
0.0
 10
112.986204
 20
-42.721390
 30
0.0
 10
112.538488
 20
-42.273675
 30
0.0
 10
111.986203
 20
-42.273675
 30
0.0
  0
LWPOLYLINE
  5
2b4
100
AcDbEntity
  8
0
 62
7
100
AcDbPolyline
 90
1
 70
1
 10
105.219428
 20
-57.906213
 30
0.0
  0
SPLINE
  5
2b5
100
AcDbEntity
  8
0
 62
7
100
AcDbSpline
 70
8
 71
3
 72
8
 73
4
 74
0
 40
0
 40
0
 40
0
 40
0
 40
1
 40
1
 40
1
 40
1
 10
123.234517
 20
-44.286004
 30
0.0
 10
122.830055
 20
-44.286004
 30
0.0
 10
122.465418
 20
-44.529647
 30
0.0
 10
122.310637
 20
-44.903322
 30
0.0
  0
SPLINE
  5
2b6
100
AcDbEntity
  8
0
 62
7
100
AcDbSpline
 70
8
 71
3
 72
8
 73
4
 74
0
 40
0
 40
0
 40
0
 40
0
 40
1
 40
1
 40
1
 40
1
 10
122.310637
 20
-44.903322
 30
0.0
 10
122.155856
 20
-45.276996
 30
0.0
 10
122.241412
 20
-45.707115
 30
0.0
 10
122.527410
 20
-45.993113
 30
0.0
  0
SPLINE
  5
2b7
100
AcDbEntity
  8
0
 62
7
100
AcDbSpline
 70
8
 71
3
 72
8
 73
4
 74
0
 40
0
 40
0
 40
0
 40
0
 40
1
 40
1
 40
1
 40
1
 10
122.527410
 20
-45.993113
 30
0.0
 10
122.813408
 20
-46.279111
 30
0.0
 10
123.243526
 20
-46.364667
 30
0.0
 10
123.617201
 20
-46.209886
 30
0.0
  0
SPLINE
  5
2b8
100
AcDbEntity
  8
0
 62
7
100
AcDbSpline
 70
8
 71
3
 72
8
 73
4
 74
0
 40
0
 40
0
 40
0
 40
0
 40
1
 40
1
 40
1
 40
1
 10
123.617201
 20
-46.209886
 30
0.0
 10
123.990876
 20
-46.055105
 30
0.0
 10
124.234518
 20
-45.690468
 30
0.0
 10
124.234518
 20
-45.286005
 30
0.0
  0
SPLINE
  5
2b9
100
AcDbEntity
  8
0
 62
7
100
AcDbSpline
 70
8
 71
3
 72
8
 73
4
 74
0
 40
0
 40
0
 40
0
 40
0
 40
1
 40
1
 40
1
 40
1
 10
124.234518
 20
-45.286005
 30
0.0
 10
124.234518
 20
-45.020789
 30
0.0
 10
124.129161
 20
-44.766435
 30
0.0
 10
123.941625
 20
-44.578898
 30
0.0
  0
SPLINE
  5
2ba
100
AcDbEntity
  8
0
 62
7
100
AcDbSpline
 70
8
 71
3
 72
8
 73
4
 74
0
 40
0
 40
0
 40
0
 40
0
 40
1
 40
1
 40
1
 40
1
 10
123.941625
 20
-44.578898
 30
0.0
 10
123.754088
 20
-44.391361
 30
0.0
 10
123.499734
 20
-44.286004
 30
0.0
 10
123.234517
 20
-44.286004
 30
0.0
  0
LWPOLYLINE
  5
2bb
100
AcDbEntity
  8
0
 62
7
100
AcDbPolyline
 90
1
 70
1
 10
111.986203
 20
-42.273675
 30
0.0
  0
SPLINE
  5
2bc
100
AcDbEntity
  8
0
 62
7
100
AcDbSpline
 70
8
 71
3
 72
8
 73
4
 74
0
 40
0
 40
0
 40
0
 40
0
 40
1
 40
1
 40
1
 40
1
 10
127.318785
 20
-62.319506
 30
0.0
 10
126.914323
 20
-62.319506
 30
0.0
 10
126.549686
 20
-62.563148
 30
0.0
 10
126.394905
 20
-62.936823
 30
0.0
  0
SPLINE
  5
2bd
100
AcDbEntity
  8
0
 62
7
100
AcDbSpline
 70
8
 71
3
 72
8
 73
4
 74
0
 40
0
 40
0
 40
0
 40
0
 40
1
 40
1
 40
1
 40
1
 10
126.394905
 20
-62.936823
 30
0.0
 10
126.240124
 20
-63.310498
 30
0.0
 10
126.325680
 20
-63.740616
 30
0.0
 10
126.611678
 20
-64.026614
 30
0.0
  0
SPLINE
  5
2be
100
AcDbEntity
  8
0
 62
7
100
AcDbSpline
 70
8
 71
3
 72
8
 73
4
 74
0
 40
0
 40
0
 40
0
 40
0
 40
1
 40
1
 40
1
 40
1
 10
126.611678
 20
-64.026614
 30
0.0
 10
126.897676
 20
-64.312612
 30
0.0
 10
127.327794
 20
-64.398168
 30
0.0
 10
127.701469
 20
-64.243387
 30
0.0
  0
SPLINE
  5
2bf
100
AcDbEntity
  8
0
 62
7
100
AcDbSpline
 70
8
 71
3
 72
8
 73
4
 74
0
 40
0
 40
0
 40
0
 40
0
 40
1
 40
1
 40
1
 40
1
 10
127.701469
 20
-64.243387
 30
0.0
 10
128.075144
 20
-64.088606
 30
0.0
 10
128.318786
 20
-63.723969
 30
0.0
 10
128.318786
 20
-63.319507
 30
0.0
  0
SPLINE
  5
2c0
100
AcDbEntity
  8
0
 62
7
100
AcDbSpline
 70
8
 71
3
 72
8
 73
4
 74
0
 40
0
 40
0
 40
0
 40
0
 40
1
 40
1
 40
1
 40
1
 10
128.318786
 20
-63.319507
 30
0.0
 10
128.318786
 20
-62.767221
 30
0.0
 10
127.871071
 20
-62.319506
 30
0.0
 10
127.318785
 20
-62.319506
 30
0.0
  0
LWPOLYLINE
  5
2c1
100
AcDbEntity
  8
0
 62
7
100
AcDbPolyline
 90
1
 70
1
 10
123.234517
 20
-44.286004
 30
0.0
  0
SPLINE
  5
2c2
100
AcDbEntity
  8
0
 62
7
100
AcDbSpline
 70
8
 71
3
 72
8
 73
4
 74
0
 40
0
 40
0
 40
0
 40
0
 40
1
 40
1
 40
1
 40
1
 10
130.001836
 20
-65.055308
 30
0.0
 10
129.597373
 20
-65.055308
 30
0.0
 10
129.232737
 20
-65.298951
 30
0.0
 10
129.077955
 20
-65.672625
 30
0.0
  0
SPLINE
  5
2c3
100
AcDbEntity
  8
0
 62
7
100
AcDbSpline
 70
8
 71
3
 72
8
 73
4
 74
0
 40
0
 40
0
 40
0
 40
0
 40
1
 40
1
 40
1
 40
1
 10
129.077955
 20
-65.672625
 30
0.0
 10
128.923174
 20
-66.046300
 30
0.0
 10
129.008730
 20
-66.476418
 30
0.0
 10
129.294728
 20
-66.762417
 30
0.0
  0
SPLINE
  5
2c4
100
AcDbEntity
  8
0
 62
7
100
AcDbSpline
 70
8
 71
3
 72
8
 73
4
 74
0
 40
0
 40
0
 40
0
 40
0
 40
1
 40
1
 40
1
 40
1
 10
129.294728
 20
-66.762417
 30
0.0
 10
129.580727
 20
-67.048415
 30
0.0
 10
130.010845
 20
-67.133971
 30
0.0
 10
130.384520
 20
-66.979190
 30
0.0
  0
SPLINE
  5
2c5
100
AcDbEntity
  8
0
 62
7
100
AcDbSpline
 70
8
 71
3
 72
8
 73
4
 74
0
 40
0
 40
0
 40
0
 40
0
 40
1
 40
1
 40
1
 40
1
 10
130.384520
 20
-66.979190
 30
0.0
 10
130.758194
 20
-66.824408
 30
0.0
 10
131.001837
 20
-66.459772
 30
0.0
 10
131.001837
 20
-66.055309
 30
0.0
  0
SPLINE
  5
2c6
100
AcDbEntity
  8
0
 62
7
100
AcDbSpline
 70
8
 71
3
 72
8
 73
4
 74
0
 40
0
 40
0
 40
0
 40
0
 40
1
 40
1
 40
1
 40
1
 10
131.001837
 20
-66.055309
 30
0.0
 10
131.001837
 20
-65.790092
 30
0.0
 10
130.896480
 20
-65.535738
 30
0.0
 10
130.708943
 20
-65.348202
 30
0.0
  0
SPLINE
  5
2c7
100
AcDbEntity
  8
0
 62
7
100
AcDbSpline
 70
8
 71
3
 72
8
 73
4
 74
0
 40
0
 40
0
 40
0
 40
0
 40
1
 40
1
 40
1
 40
1
 10
130.708943
 20
-65.348202
 30
0.0
 10
130.521407
 20
-65.160665
 30
0.0
 10
130.267053
 20
-65.055308
 30
0.0
 10
130.001836
 20
-65.055308
 30
0.0
  0
LWPOLYLINE
  5
2c8
100
AcDbEntity
  8
0
 62
7
100
AcDbPolyline
 90
1
 70
1
 10
127.318785
 20
-62.319506
 30
0.0
  0
LWPOLYLINE
  5
2c9
100
AcDbEntity
  8
0
 62
7
100
AcDbPolyline
 90
1
 70
1
 10
130.001836
 20
-65.055308
 30
0.0
  0
ENDSEC
  0
SECTION
  2
OBJECTS
  0
DICTIONARY
  5
C
330
0
100
AcDbDictionary
  3
ACAD_GROUP
350
D
  3
ACAD_MLINESTYLE
350
17
  0
DICTIONARY
  5
D
330
C
100
AcDbDictionary
  0
DICTIONARY
  5
1A
330
C
100
AcDbDictionary
  0
DICTIONARY
  5
17
330
C
100
AcDbDictionary
  3
STANDARD
350
18
  0
DICTIONARY
  5
19
330
C
100
AcDbDictionary
  0
ENDSEC
  0
EOF
