<?xml version="1.0" encoding="UTF-8" standalone="no"?>
<!-- Created with Inkscape (http://www.inkscape.org/) -->

<svg
   version="1.1"
   id="svg1218"
   xml:space="preserve"
   width="814.02667"
   height="414.69333"
   viewBox="0 0 814.02667 414.69333"
   sodipodi:docname="reviung34-bottom-plate-2mm-ver1.1-alexej.svg"
   inkscape:version="1.1.1 (3bf5ae0d25, 2021-09-20, custom)"
   xmlns:inkscape="http://www.inkscape.org/namespaces/inkscape"
   xmlns:sodipodi="http://sodipodi.sourceforge.net/DTD/sodipodi-0.dtd"
   xmlns="http://www.w3.org/2000/svg"
   xmlns:svg="http://www.w3.org/2000/svg"><defs
     id="defs1222" /><sodipodi:namedview
     id="namedview1220"
     pagecolor="#ffffff"
     bordercolor="#666666"
     borderopacity="1.0"
     inkscape:pageshadow="2"
     inkscape:pageopacity="0.0"
     inkscape:pagecheckerboard="0"
     showgrid="false"
     inkscape:zoom="1.0823418"
     inkscape:cx="546.50021"
     inkscape:cy="308.59014"
     inkscape:window-width="1920"
     inkscape:window-height="1011"
     inkscape:window-x="0"
     inkscape:window-y="0"
     inkscape:window-maximized="1"
     inkscape:current-layer="g1224" /><g
     id="g1224"
     inkscape:groupmode="layer"
     inkscape:label="ink_ext_XXXXXX"
     transform="matrix(1.3333333,0,0,-1.3333333,0,414.69333)"><g
       id="g1226"
       transform="scale(0.1)"><path
         d="m 625.02,1247.81 c 0,18 13.96,32.59 31.179,32.59 17.223,0 31.184,-14.59 31.184,-32.59 0,-18 -13.961,-32.6 -31.184,-32.6 -17.219,0 -31.179,14.6 -31.179,32.6 z m 187.339,1063.36 c 0,18 13.961,32.6 31.18,32.6 17.223,0 31.184,-14.6 31.184,-32.6 0,-18 -13.961,-32.6 -31.184,-32.6 -17.219,0 -31.18,14.6 -31.18,32.6 z M 1733.77,923.5 c 0,18.012 13.96,32.602 31.19,32.602 17.21,0 31.17,-14.59 31.17,-32.602 0,-18 -13.96,-32.602 -31.17,-32.602 -17.23,0 -31.19,14.602 -31.19,32.602 z m 674.06,1106.42 c 0,18 13.96,32.59 31.18,32.59 17.22,0 31.18,-14.59 31.18,-32.59 0,-18.01 -13.96,-32.61 -31.18,-32.61 -17.22,0 -31.18,14.6 -31.18,32.61 z m 627,-1191.049 c 0,18.008 13.96,32.598 31.19,32.598 17.22,0 31.18,-14.59 31.18,-32.598 0,-18 -13.96,-32.601 -31.18,-32.601 -17.23,0 -31.19,14.601 -31.19,32.601 z m 626.62,1191.109 c 0,18 13.96,32.6 31.18,32.6 17.22,0 31.18,-14.6 31.18,-32.6 0,-18 -13.96,-32.6 -31.18,-32.6 -17.22,0 -31.18,14.6 -31.18,32.6 z M 4335.46,923.5 c 0,18.012 13.97,32.602 31.19,32.602 17.21,0 31.18,-14.59 31.18,-32.602 0,-18 -13.97,-32.602 -31.18,-32.602 -17.22,0 -31.19,14.602 -31.19,32.602 z m 921.17,1387.33 c 0,18 13.95,32.6 31.18,32.6 17.21,0 31.18,-14.6 31.18,-32.6 0,-18.01 -13.97,-32.6 -31.18,-32.6 -17.23,0 -31.18,14.59 -31.18,32.6 z m 187.5,-1063.19 c 0,18.01 13.96,32.6 31.18,32.6 17.22,0 31.18,-14.59 31.18,-32.6 0,-18 -13.96,-32.6 -31.18,-32.6 -17.22,0 -31.18,14.6 -31.18,32.6 z M 98.8672,1115.6 637.75,1021.93 c 5.66,-0.99 11.406,-1.4 17.148,-1.22 l 287.032,8.71 c 11.297,0.34 22.547,-1.56 33.093,-5.63 L 1500.52,821.789 c 20.66,-7.937 37.41,-23.617 46.69,-43.711 l 247.58,-535.797 c 3.26,-8.441 10.36,-14.812 19.1,-17.152 L 2448.58,55.0586 h 1234.87 l 634.19,169.4534 c 8.74,2.328 15.84,8.687 19.11,17.117 l 247.56,536.422 c 9.28,20.109 26.04,35.801 46.71,43.738 l 525.7,202.011 c 10.55,4.06 21.79,5.96 33.08,5.62 l 287.05,-8.68 c 5.74,-0.18 11.48,0.23 17.14,1.22 l 539.62,93.8 c 46.28,8.14 77.19,52.28 69,98.55 l -277.04,1565.51 c -7.19,40.62 -42.49,70.23 -83.74,70.23 H 4561.22 l -508.99,-90.19 c -9.36,-1.66 -17.26,-7.9 -21.05,-16.61 l -23.53,-54.14 c -3.78,-8.71 -11.68,-14.94 -21.02,-16.61 l -388.42,-69.2 c -15.43,-2.75 -30.17,7.55 -32.88,22.98 l -77.66,440.49 c -2.71,15.42 -17.42,25.71 -32.83,23 l -1117.61,-195.47 28.81,-163.34 c 4.07,-23.12 -11.37,-45.18 -34.5,-49.26 l -195.41,-34.45 c -23.12,-4.08 -45.18,11.36 -49.25,34.49 l -29.68,168.31 H 389.648 c -41.269,0 -76.582,-29.63 -83.75,-70.28 L 29.875,1214.12 c -8.1562,-46.26 22.7344,-90.37 68.9922,-98.52 z"
         style="fill:none;stroke:#0e0f0e;stroke-width:2.5;stroke-linecap:butt;stroke-linejoin:miter;stroke-miterlimit:10;stroke-dasharray:none;stroke-opacity:1"
         id="path1228" /><path
         d="m 5254.77,2092.67 v -22.77 c 2.99,0 5.09,0.41 6.29,1.24 1.2,0.82 1.81,3.49 1.81,7.99 v 5.63 c 0,3.26 -0.59,5.38 -1.74,6.39 -1.16,1.02 -3.28,1.52 -6.36,1.52"
         style="fill:#ef3025;fill-opacity:1;fill-rule:nonzero;stroke:none"
         id="path1230" /><g
         id="g1234"
         transform="scale(10)" /></g></g></svg>
