  0
SECTION
  2
HEADER
  9
$ACADVER
  1
AC1014
  9
$HANDSEED
  5
FFFF
  9
$MEASUREMENT
 70
     1
  0
ENDSEC
  0
SECTION
  2
TABLES
  0
TABLE
  2
VPORT
  5
8
330
0
100
AcDbSymbolTable
 70
     4
  0
VPORT
  5
2E
330
8
100
AcDbSymbolTableRecord
100
AcDbViewportTableRecord
  2
*ACTIVE
 70
     0
 10
0.0
 20
0.0
 11
1.0
 21
1.0
 12
210.0
 22
148.5
 13
0.0
 23
0.0
 14
10.0
 24
10.0
 15
10.0
 25
10.0
 16
0.0
 26
0.0
 36
1.0
 17
0.0
 27
0.0
 37
0.0
 40
341.0
 41
1.24
 42
50.0
 43
0.0
 44
0.0
 50
0.0
 51
0.0
 71
     0
 72
   100
 73
     1
 74
     3
 75
     0
 76
     0
 77
     0
 78
     0
  0
ENDTAB
  0
TABLE
  2
LTYPE
  5
5
330
0
100
AcDbSymbolTable
 70
     1
  0
LTYPE
  5
14
330
5
100
AcDbSymbolTableRecord
100
AcDbLinetypeTableRecord
  2
BYBLOCK
 70
     0
  3

 72
    65
 73
     0
 40
0.0
  0
LTYPE
  5
15
330
5
100
AcDbSymbolTableRecord
100
AcDbLinetypeTableRecord
  2
BYLAYER
 70
     0
  3

 72
    65
 73
     0
 40
0.0
  0
LTYPE
  5
16
330
5
100
AcDbSymbolTableRecord
100
AcDbLinetypeTableRecord
  2
CONTINUOUS
 70
     0
  3
Solid line
 72
    65
 73
     0
 40
0.0
  0
ENDTAB
  0
TABLE
  2
LAYER
  5
2
100
AcDbSymbolTable
 70
2
  0
LAYER
  5
50
100
AcDbSymbolTableRecord
100
AcDbLayerTableRecord
  2
0
 70
0
  6
CONTINUOUS
  0
LAYER
  5
51
100
AcDbSymbolTableRecord
100
AcDbLayerTableRecord
  2
ink_ext_XXXXXX
 70
0
  6
CONTINUOUS
  0
ENDTAB
  0
TABLE
  2
STYLE
  5
3
330
0
100
AcDbSymbolTable
 70
     1
  0
STYLE
  5
11
330
3
100
AcDbSymbolTableRecord
100
AcDbTextStyleTableRecord
  2
STANDARD
 70
     0
 40
0.0
 41
1.0
 50
0.0
 71
     0
 42
2.5
  3
txt
  4

  0
ENDTAB
  0
TABLE
  2
VIEW
  5
6
330
0
100
AcDbSymbolTable
 70
     0
  0
ENDTAB
  0
TABLE
  2
UCS
  5
7
330
0
100
AcDbSymbolTable
 70
     0
  0
ENDTAB
  0
TABLE
  2
APPID
  5
9
330
0
100
AcDbSymbolTable
 70
     2
  0
APPID
  5
12
330
9
100
AcDbSymbolTableRecord
100
AcDbRegAppTableRecord
  2
ACAD
 70
     0
  0
ENDTAB
  0
TABLE
  2
DIMSTYLE
  5
A
330
0
100
AcDbSymbolTable
 70
     1
  0
DIMSTYLE
105
27
330
A
100
AcDbSymbolTableRecord
100
AcDbDimStyleTableRecord
  2
ISO-25
 70
     0
  3

  4

  5

  6

  7

 40
1.0
 41
2.5
 42
0.625
 43
3.75
 44
1.25
 45
0.0
 46
0.0
 47
0.0
 48
0.0
140
2.5
141
2.5
142
0.0
143
0.03937007874016
144
1.0
145
0.0
146
1.0
147
0.625
 71
     0
 72
     0
 73
     0
 74
     0
 75
     0
 76
     0
 77
     1
 78
     8
170
     0
171
     3
172
     1
173
     0
174
     0
175
     0
176
     0
177
     0
178
     0
270
     2
271
     2
272
     2
273
     2
274
     3
340
11
275
     0
280
     0
281
     0
282
     0
283
     0
284
     8
285
     0
286
     0
287
     3
288
     0
  0
ENDTAB
  0
TABLE
  2
BLOCK_RECORD
  5
1
330
0
100
AcDbSymbolTable
 70
     1
  0
BLOCK_RECORD
  5
1F
330
1
100
AcDbSymbolTableRecord
100
AcDbBlockTableRecord
  2
*MODEL_SPACE
  0
BLOCK_RECORD
  5
1B
330
1
100
AcDbSymbolTableRecord
100
AcDbBlockTableRecord
  2
*PAPER_SPACE
  0
ENDTAB
  0
ENDSEC
  0
SECTION
  2
BLOCKS
  0
BLOCK
  5
20
330
1F
100
AcDbEntity
  8
0
100
AcDbBlockBegin
  2
*MODEL_SPACE
 70
     0
 10
0.0
 20
0.0
 30
0.0
  3
*MODEL_SPACE
  1

  0
ENDBLK
  5
21
330
1F
100
AcDbEntity
  8
0
100
AcDbBlockEnd
  0
BLOCK
  5
1C
330
1B
100
AcDbEntity
 67
     1
  8
0
100
AcDbBlockBegin
  2
*PAPER_SPACE
  1

  0
ENDBLK
  5
1D
330
1B
100
AcDbEntity
 67
     1
  8
0
100
AcDbBlockEnd
  0
ENDSEC
  0
SECTION
  2
ENTITIES
  0
SPLINE
  5
100
100
AcDbEntity
  8
ink_ext_XXXXXX
 62
3
100
AcDbSpline
 70
8
 71
3
 72
8
 73
4
 74
0
 40
0
 40
0
 40
0
 40
0
 40
1
 40
1
 40
1
 40
1
 10
22.049279
 20
44.019976
 30
0.0
 10
22.049279
 20
44.654975
 30
0.0
 10
22.541756
 20
45.169677
 30
0.0
 10
23.149203
 20
45.169677
 30
0.0
  0
SPLINE
  5
101
100
AcDbEntity
  8
ink_ext_XXXXXX
 62
3
100
AcDbSpline
 70
8
 71
3
 72
8
 73
4
 74
0
 40
0
 40
0
 40
0
 40
0
 40
1
 40
1
 40
1
 40
1
 10
23.149203
 20
45.169677
 30
0.0
 10
23.756791
 20
45.169677
 30
0.0
 10
24.249303
 20
44.654975
 30
0.0
 10
24.249303
 20
44.019976
 30
0.0
  0
SPLINE
  5
102
100
AcDbEntity
  8
ink_ext_XXXXXX
 62
3
100
AcDbSpline
 70
8
 71
3
 72
8
 73
4
 74
0
 40
0
 40
0
 40
0
 40
0
 40
1
 40
1
 40
1
 40
1
 10
24.249303
 20
44.019976
 30
0.0
 10
24.249303
 20
43.384977
 30
0.0
 10
23.756791
 20
42.869923
 30
0.0
 10
23.149203
 20
42.869923
 30
0.0
  0
SPLINE
  5
103
100
AcDbEntity
  8
ink_ext_XXXXXX
 62
3
100
AcDbSpline
 70
8
 71
3
 72
8
 73
4
 74
0
 40
0
 40
0
 40
0
 40
0
 40
1
 40
1
 40
1
 40
1
 10
23.149203
 20
42.869923
 30
0.0
 10
22.541756
 20
42.869923
 30
0.0
 10
22.049279
 20
43.384977
 30
0.0
 10
22.049279
 20
44.019976
 30
0.0
  0
SPLINE
  5
104
100
AcDbEntity
  8
ink_ext_XXXXXX
 62
3
100
AcDbSpline
 70
8
 71
3
 72
8
 73
4
 74
0
 40
0
 40
0
 40
0
 40
0
 40
1
 40
1
 40
1
 40
1
 10
28.658171
 20
81.532890
 30
0.0
 10
28.658171
 20
82.167889
 30
0.0
 10
29.150684
 20
82.682944
 30
0.0
 10
29.758131
 20
82.682944
 30
0.0
  0
SPLINE
  5
105
100
AcDbEntity
  8
ink_ext_XXXXXX
 62
3
100
AcDbSpline
 70
8
 71
3
 72
8
 73
4
 74
0
 40
0
 40
0
 40
0
 40
0
 40
1
 40
1
 40
1
 40
1
 10
29.758131
 20
82.682944
 30
0.0
 10
30.365719
 20
82.682944
 30
0.0
 10
30.858231
 20
82.167889
 30
0.0
 10
30.858231
 20
81.532890
 30
0.0
  0
SPLINE
  5
106
100
AcDbEntity
  8
ink_ext_XXXXXX
 62
3
100
AcDbSpline
 70
8
 71
3
 72
8
 73
4
 74
0
 40
0
 40
0
 40
0
 40
0
 40
1
 40
1
 40
1
 40
1
 10
30.858231
 20
81.532890
 30
0.0
 10
30.858231
 20
80.897891
 30
0.0
 10
30.365719
 20
80.382836
 30
0.0
 10
29.758131
 20
80.382836
 30
0.0
  0
SPLINE
  5
107
100
AcDbEntity
  8
ink_ext_XXXXXX
 62
3
100
AcDbSpline
 70
8
 71
3
 72
8
 73
4
 74
0
 40
0
 40
0
 40
0
 40
0
 40
1
 40
1
 40
1
 40
1
 10
29.758131
 20
80.382836
 30
0.0
 10
29.150684
 20
80.382836
 30
0.0
 10
28.658171
 20
80.897891
 30
0.0
 10
28.658171
 20
81.532890
 30
0.0
  0
LWPOLYLINE
  5
108
100
AcDbEntity
  8
ink_ext_XXXXXX
 62
3
100
AcDbPolyline
 90
1
 70
1
 10
22.049279
 20
44.019976
 30
0.0
  0
SPLINE
  5
109
100
AcDbEntity
  8
ink_ext_XXXXXX
 62
3
100
AcDbSpline
 70
8
 71
3
 72
8
 73
4
 74
0
 40
0
 40
0
 40
0
 40
0
 40
1
 40
1
 40
1
 40
1
 10
61.163449
 20
32.579060
 30
0.0
 10
61.163449
 20
33.214482
 30
0.0
 10
61.655925
 20
33.729184
 30
0.0
 10
62.263761
 20
33.729184
 30
0.0
  0
SPLINE
  5
10a
100
AcDbEntity
  8
ink_ext_XXXXXX
 62
3
100
AcDbSpline
 70
8
 71
3
 72
8
 73
4
 74
0
 40
0
 40
0
 40
0
 40
0
 40
1
 40
1
 40
1
 40
1
 10
62.263761
 20
33.729184
 30
0.0
 10
62.870890
 20
33.729184
 30
0.0
 10
63.363367
 20
33.214482
 30
0.0
 10
63.363367
 20
32.579060
 30
0.0
  0
SPLINE
  5
10b
100
AcDbEntity
  8
ink_ext_XXXXXX
 62
3
100
AcDbSpline
 70
8
 71
3
 72
8
 73
4
 74
0
 40
0
 40
0
 40
0
 40
0
 40
1
 40
1
 40
1
 40
1
 10
63.363367
 20
32.579060
 30
0.0
 10
63.363367
 20
31.944061
 30
0.0
 10
62.870890
 20
31.428935
 30
0.0
 10
62.263761
 20
31.428935
 30
0.0
  0
SPLINE
  5
10c
100
AcDbEntity
  8
ink_ext_XXXXXX
 62
3
100
AcDbSpline
 70
8
 71
3
 72
8
 73
4
 74
0
 40
0
 40
0
 40
0
 40
0
 40
1
 40
1
 40
1
 40
1
 10
62.263761
 20
31.428935
 30
0.0
 10
61.655925
 20
31.428935
 30
0.0
 10
61.163449
 20
31.944061
 30
0.0
 10
61.163449
 20
32.579060
 30
0.0
  0
LWPOLYLINE
  5
10d
100
AcDbEntity
  8
ink_ext_XXXXXX
 62
3
100
AcDbPolyline
 90
1
 70
1
 10
28.658171
 20
81.532890
 30
0.0
  0
SPLINE
  5
10e
100
AcDbEntity
  8
ink_ext_XXXXXX
 62
3
100
AcDbSpline
 70
8
 71
3
 72
8
 73
4
 74
0
 40
0
 40
0
 40
0
 40
0
 40
1
 40
1
 40
1
 40
1
 10
84.942747
 20
71.611032
 30
0.0
 10
84.942747
 20
72.246031
 30
0.0
 10
85.435224
 20
72.760733
 30
0.0
 10
86.042706
 20
72.760733
 30
0.0
  0
SPLINE
  5
10f
100
AcDbEntity
  8
ink_ext_XXXXXX
 62
3
100
AcDbSpline
 70
8
 71
3
 72
8
 73
4
 74
0
 40
0
 40
0
 40
0
 40
0
 40
1
 40
1
 40
1
 40
1
 10
86.042706
 20
72.760733
 30
0.0
 10
86.650188
 20
72.760733
 30
0.0
 10
87.142665
 20
72.246031
 30
0.0
 10
87.142665
 20
71.611032
 30
0.0
  0
SPLINE
  5
110
100
AcDbEntity
  8
ink_ext_XXXXXX
 62
3
100
AcDbSpline
 70
8
 71
3
 72
8
 73
4
 74
0
 40
0
 40
0
 40
0
 40
0
 40
1
 40
1
 40
1
 40
1
 10
87.142665
 20
71.611032
 30
0.0
 10
87.142665
 20
70.975680
 30
0.0
 10
86.650188
 20
70.460626
 30
0.0
 10
86.042706
 20
70.460626
 30
0.0
  0
SPLINE
  5
111
100
AcDbEntity
  8
ink_ext_XXXXXX
 62
3
100
AcDbSpline
 70
8
 71
3
 72
8
 73
4
 74
0
 40
0
 40
0
 40
0
 40
0
 40
1
 40
1
 40
1
 40
1
 10
86.042706
 20
70.460626
 30
0.0
 10
85.435224
 20
70.460626
 30
0.0
 10
84.942747
 20
70.975680
 30
0.0
 10
84.942747
 20
71.611032
 30
0.0
  0
LWPOLYLINE
  5
112
100
AcDbEntity
  8
ink_ext_XXXXXX
 62
3
100
AcDbPolyline
 90
1
 70
1
 10
61.163449
 20
32.579060
 30
0.0
  0
SPLINE
  5
113
100
AcDbEntity
  8
ink_ext_XXXXXX
 62
3
100
AcDbSpline
 70
8
 71
3
 72
8
 73
4
 74
0
 40
0
 40
0
 40
0
 40
0
 40
1
 40
1
 40
1
 40
1
 10
107.061876
 20
29.593542
 30
0.0
 10
107.061876
 20
30.228823
 30
0.0
 10
107.554353
 20
30.743525
 30
0.0
 10
108.162188
 20
30.743525
 30
0.0
  0
SPLINE
  5
114
100
AcDbEntity
  8
ink_ext_XXXXXX
 62
3
100
AcDbSpline
 70
8
 71
3
 72
8
 73
4
 74
0
 40
0
 40
0
 40
0
 40
0
 40
1
 40
1
 40
1
 40
1
 10
108.162188
 20
30.743525
 30
0.0
 10
108.769670
 20
30.743525
 30
0.0
 10
109.262147
 20
30.228823
 30
0.0
 10
109.262147
 20
29.593542
 30
0.0
  0
SPLINE
  5
115
100
AcDbEntity
  8
ink_ext_XXXXXX
 62
3
100
AcDbSpline
 70
8
 71
3
 72
8
 73
4
 74
0
 40
0
 40
0
 40
0
 40
0
 40
1
 40
1
 40
1
 40
1
 10
109.262147
 20
29.593542
 30
0.0
 10
109.262147
 20
28.958543
 30
0.0
 10
108.769670
 20
28.443453
 30
0.0
 10
108.162188
 20
28.443453
 30
0.0
  0
SPLINE
  5
116
100
AcDbEntity
  8
ink_ext_XXXXXX
 62
3
100
AcDbSpline
 70
8
 71
3
 72
8
 73
4
 74
0
 40
0
 40
0
 40
0
 40
0
 40
1
 40
1
 40
1
 40
1
 10
108.162188
 20
28.443453
 30
0.0
 10
107.554353
 20
28.443453
 30
0.0
 10
107.061876
 20
28.958543
 30
0.0
 10
107.061876
 20
29.593542
 30
0.0
  0
LWPOLYLINE
  5
117
100
AcDbEntity
  8
ink_ext_XXXXXX
 62
3
100
AcDbPolyline
 90
1
 70
1
 10
84.942747
 20
71.611032
 30
0.0
  0
SPLINE
  5
118
100
AcDbEntity
  8
ink_ext_XXXXXX
 62
3
100
AcDbSpline
 70
8
 71
3
 72
8
 73
4
 74
0
 40
0
 40
0
 40
0
 40
0
 40
1
 40
1
 40
1
 40
1
 10
129.167599
 20
71.613149
 30
0.0
 10
129.167599
 20
72.248148
 30
0.0
 10
129.660076
 20
72.763202
 30
0.0
 10
130.267559
 20
72.763202
 30
0.0
  0
SPLINE
  5
119
100
AcDbEntity
  8
ink_ext_XXXXXX
 62
3
100
AcDbSpline
 70
8
 71
3
 72
8
 73
4
 74
0
 40
0
 40
0
 40
0
 40
0
 40
1
 40
1
 40
1
 40
1
 10
130.267559
 20
72.763202
 30
0.0
 10
130.875041
 20
72.763202
 30
0.0
 10
131.367518
 20
72.248148
 30
0.0
 10
131.367518
 20
71.613149
 30
0.0
  0
SPLINE
  5
11a
100
AcDbEntity
  8
ink_ext_XXXXXX
 62
3
100
AcDbSpline
 70
8
 71
3
 72
8
 73
4
 74
0
 40
0
 40
0
 40
0
 40
0
 40
1
 40
1
 40
1
 40
1
 10
131.367518
 20
71.613149
 30
0.0
 10
131.367518
 20
70.978150
 30
0.0
 10
130.875041
 20
70.463095
 30
0.0
 10
130.267559
 20
70.463095
 30
0.0
  0
SPLINE
  5
11b
100
AcDbEntity
  8
ink_ext_XXXXXX
 62
3
100
AcDbSpline
 70
8
 71
3
 72
8
 73
4
 74
0
 40
0
 40
0
 40
0
 40
0
 40
1
 40
1
 40
1
 40
1
 10
130.267559
 20
70.463095
 30
0.0
 10
129.660076
 20
70.463095
 30
0.0
 10
129.167599
 20
70.978150
 30
0.0
 10
129.167599
 20
71.613149
 30
0.0
  0
LWPOLYLINE
  5
11c
100
AcDbEntity
  8
ink_ext_XXXXXX
 62
3
100
AcDbPolyline
 90
1
 70
1
 10
107.061876
 20
29.593542
 30
0.0
  0
SPLINE
  5
11d
100
AcDbEntity
  8
ink_ext_XXXXXX
 62
3
100
AcDbSpline
 70
8
 71
3
 72
8
 73
4
 74
0
 40
0
 40
0
 40
0
 40
0
 40
1
 40
1
 40
1
 40
1
 10
152.945134
 20
32.579060
 30
0.0
 10
152.945134
 20
33.214482
 30
0.0
 10
153.437964
 20
33.729184
 30
0.0
 10
154.045446
 20
33.729184
 30
0.0
  0
SPLINE
  5
11e
100
AcDbEntity
  8
ink_ext_XXXXXX
 62
3
100
AcDbSpline
 70
8
 71
3
 72
8
 73
4
 74
0
 40
0
 40
0
 40
0
 40
0
 40
1
 40
1
 40
1
 40
1
 10
154.045446
 20
33.729184
 30
0.0
 10
154.652575
 20
33.729184
 30
0.0
 10
155.145405
 20
33.214482
 30
0.0
 10
155.145405
 20
32.579060
 30
0.0
  0
SPLINE
  5
11f
100
AcDbEntity
  8
ink_ext_XXXXXX
 62
3
100
AcDbSpline
 70
8
 71
3
 72
8
 73
4
 74
0
 40
0
 40
0
 40
0
 40
0
 40
1
 40
1
 40
1
 40
1
 10
155.145405
 20
32.579060
 30
0.0
 10
155.145405
 20
31.944061
 30
0.0
 10
154.652575
 20
31.428935
 30
0.0
 10
154.045446
 20
31.428935
 30
0.0
  0
SPLINE
  5
120
100
AcDbEntity
  8
ink_ext_XXXXXX
 62
3
100
AcDbSpline
 70
8
 71
3
 72
8
 73
4
 74
0
 40
0
 40
0
 40
0
 40
0
 40
1
 40
1
 40
1
 40
1
 10
154.045446
 20
31.428935
 30
0.0
 10
153.437964
 20
31.428935
 30
0.0
 10
152.945134
 20
31.944061
 30
0.0
 10
152.945134
 20
32.579060
 30
0.0
  0
LWPOLYLINE
  5
121
100
AcDbEntity
  8
ink_ext_XXXXXX
 62
3
100
AcDbPolyline
 90
1
 70
1
 10
129.167599
 20
71.613149
 30
0.0
  0
SPLINE
  5
122
100
AcDbEntity
  8
ink_ext_XXXXXX
 62
3
100
AcDbSpline
 70
8
 71
3
 72
8
 73
4
 74
0
 40
0
 40
0
 40
0
 40
0
 40
1
 40
1
 40
1
 40
1
 10
185.441909
 20
81.520896
 30
0.0
 10
185.441909
 20
82.155895
 30
0.0
 10
185.934033
 20
82.670949
 30
0.0
 10
186.541868
 20
82.670949
 30
0.0
  0
SPLINE
  5
123
100
AcDbEntity
  8
ink_ext_XXXXXX
 62
3
100
AcDbSpline
 70
8
 71
3
 72
8
 73
4
 74
0
 40
0
 40
0
 40
0
 40
0
 40
1
 40
1
 40
1
 40
1
 10
186.541868
 20
82.670949
 30
0.0
 10
187.148998
 20
82.670949
 30
0.0
 10
187.641827
 20
82.155895
 30
0.0
 10
187.641827
 20
81.520896
 30
0.0
  0
SPLINE
  5
124
100
AcDbEntity
  8
ink_ext_XXXXXX
 62
3
100
AcDbSpline
 70
8
 71
3
 72
8
 73
4
 74
0
 40
0
 40
0
 40
0
 40
0
 40
1
 40
1
 40
1
 40
1
 10
187.641827
 20
81.520896
 30
0.0
 10
187.641827
 20
80.885544
 30
0.0
 10
187.148998
 20
80.370842
 30
0.0
 10
186.541868
 20
80.370842
 30
0.0
  0
SPLINE
  5
125
100
AcDbEntity
  8
ink_ext_XXXXXX
 62
3
100
AcDbSpline
 70
8
 71
3
 72
8
 73
4
 74
0
 40
0
 40
0
 40
0
 40
0
 40
1
 40
1
 40
1
 40
1
 10
186.541868
 20
80.370842
 30
0.0
 10
185.934033
 20
80.370842
 30
0.0
 10
185.441909
 20
80.885544
 30
0.0
 10
185.441909
 20
81.520896
 30
0.0
  0
LWPOLYLINE
  5
126
100
AcDbEntity
  8
ink_ext_XXXXXX
 62
3
100
AcDbPolyline
 90
1
 70
1
 10
152.945134
 20
32.579060
 30
0.0
  0
SPLINE
  5
127
100
AcDbEntity
  8
ink_ext_XXXXXX
 62
3
100
AcDbSpline
 70
8
 71
3
 72
8
 73
4
 74
0
 40
0
 40
0
 40
0
 40
0
 40
1
 40
1
 40
1
 40
1
 10
192.056481
 20
44.013979
 30
0.0
 10
192.056481
 20
44.649331
 30
0.0
 10
192.548958
 20
45.164033
 30
0.0
 10
193.156440
 20
45.164033
 30
0.0
  0
SPLINE
  5
128
100
AcDbEntity
  8
ink_ext_XXXXXX
 62
3
100
AcDbSpline
 70
8
 71
3
 72
8
 73
4
 74
0
 40
0
 40
0
 40
0
 40
0
 40
1
 40
1
 40
1
 40
1
 10
193.156440
 20
45.164033
 30
0.0
 10
193.763923
 20
45.164033
 30
0.0
 10
194.256399
 20
44.649331
 30
0.0
 10
194.256399
 20
44.013979
 30
0.0
  0
SPLINE
  5
129
100
AcDbEntity
  8
ink_ext_XXXXXX
 62
3
100
AcDbSpline
 70
8
 71
3
 72
8
 73
4
 74
0
 40
0
 40
0
 40
0
 40
0
 40
1
 40
1
 40
1
 40
1
 10
194.256399
 20
44.013979
 30
0.0
 10
194.256399
 20
43.378980
 30
0.0
 10
193.763923
 20
42.863925
 30
0.0
 10
193.156440
 20
42.863925
 30
0.0
  0
SPLINE
  5
12a
100
AcDbEntity
  8
ink_ext_XXXXXX
 62
3
100
AcDbSpline
 70
8
 71
3
 72
8
 73
4
 74
0
 40
0
 40
0
 40
0
 40
0
 40
1
 40
1
 40
1
 40
1
 10
193.156440
 20
42.863925
 30
0.0
 10
192.548958
 20
42.863925
 30
0.0
 10
192.056481
 20
43.378980
 30
0.0
 10
192.056481
 20
44.013979
 30
0.0
  0
LWPOLYLINE
  5
12b
100
AcDbEntity
  8
ink_ext_XXXXXX
 62
3
100
AcDbPolyline
 90
1
 70
1
 10
185.441909
 20
81.520896
 30
0.0
  0
LWPOLYLINE
  5
12c
100
AcDbEntity
  8
ink_ext_XXXXXX
 62
3
100
AcDbPolyline
 90
1
 70
1
 10
192.056481
 20
44.013979
 30
0.0
  0
SPLINE
  5
12d
100
AcDbEntity
  8
ink_ext_XXXXXX
 62
3
100
AcDbSpline
 70
8
 71
3
 72
8
 73
4
 74
0
 40
0
 40
0
 40
0
 40
0
 40
1
 40
1
 40
1
 40
1
 10
22.498364
 20
36.051445
 30
0.0
 10
22.698036
 20
36.016520
 30
0.0
 10
22.900742
 20
36.002057
 30
0.0
 10
23.103307
 20
36.008407
 30
0.0
  0
LWPOLYLINE
  5
12e
100
AcDbEntity
  8
ink_ext_XXXXXX
 62
3
100
AcDbPolyline
 90
2
 70
0
 10
3.487809
 20
39.355909
 30
0.0
 10
22.498364
 20
36.051445
 30
0.0
  0
SPLINE
  5
12f
100
AcDbEntity
  8
ink_ext_XXXXXX
 62
3
100
AcDbSpline
 70
8
 71
3
 72
8
 73
4
 74
0
 40
0
 40
0
 40
0
 40
0
 40
1
 40
1
 40
1
 40
1
 10
33.229141
 20
36.315675
 30
0.0
 10
33.627673
 20
36.327670
 30
0.0
 10
34.024547
 20
36.260642
 30
0.0
 10
34.396586
 20
36.117062
 30
0.0
  0
LWPOLYLINE
  5
130
100
AcDbEntity
  8
ink_ext_XXXXXX
 62
3
100
AcDbPolyline
 90
2
 70
0
 10
23.103307
 20
36.008407
 30
0.0
 10
33.229141
 20
36.315675
 30
0.0
  0
SPLINE
  5
131
100
AcDbEntity
  8
ink_ext_XXXXXX
 62
3
100
AcDbSpline
 70
8
 71
3
 72
8
 73
4
 74
0
 40
0
 40
0
 40
0
 40
0
 40
1
 40
1
 40
1
 40
1
 10
52.934921
 20
28.990928
 30
0.0
 10
53.663759
 20
28.710928
 30
0.0
 10
54.254660
 20
28.157774
 30
0.0
 10
54.582038
 20
27.448903
 30
0.0
  0
LWPOLYLINE
  5
132
100
AcDbEntity
  8
ink_ext_XXXXXX
 62
3
100
AcDbPolyline
 90
2
 70
0
 10
34.396586
 20
36.117062
 30
0.0
 10
52.934921
 20
28.990928
 30
0.0
  0
SPLINE
  5
133
100
AcDbEntity
  8
ink_ext_XXXXXX
 62
3
100
AcDbSpline
 70
8
 71
3
 72
8
 73
4
 74
0
 40
0
 40
0
 40
0
 40
0
 40
1
 40
1
 40
1
 40
1
 10
63.316095
 20
8.547208
 30
0.0
 10
63.431100
 20
8.249429
 30
0.0
 10
63.681572
 20
8.024674
 30
0.0
 10
63.989899
 20
7.942125
 30
0.0
  0
LWPOLYLINE
  5
134
100
AcDbEntity
  8
ink_ext_XXXXXX
 62
3
100
AcDbPolyline
 90
2
 70
0
 10
54.582038
 20
27.448903
 30
0.0
 10
63.316095
 20
8.547208
 30
0.0
  0
SPLINE
  5
135
100
AcDbEntity
  8
ink_ext_XXXXXX
 62
3
100
AcDbSpline
 70
8
 71
3
 72
8
 73
4
 74
0
 40
0
 40
0
 40
0
 40
0
 40
1
 40
1
 40
1
 40
1
 10
152.316485
 20
7.920358
 30
0.0
 10
152.624812
 20
8.002485
 30
0.0
 10
152.875284
 20
8.226816
 30
0.0
 10
152.990642
 20
8.524207
 30
0.0
  0
LWPOLYLINE
  5
136
100
AcDbEntity
  8
ink_ext_XXXXXX
 62
3
100
AcDbPolyline
 90
4
 70
0
 10
63.989899
 20
7.942125
 30
0.0
 10
86.380314
 20
1.942429
 30
0.0
 10
129.943709
 20
1.942429
 30
0.0
 10
152.316485
 20
7.920358
 30
0.0
  0
SPLINE
  5
137
100
AcDbEntity
  8
ink_ext_XXXXXX
 62
3
100
AcDbSpline
 70
8
 71
3
 72
8
 73
4
 74
0
 40
0
 40
0
 40
0
 40
0
 40
1
 40
1
 40
1
 40
1
 10
161.723994
 20
27.447951
 30
0.0
 10
162.051371
 20
28.157350
 30
0.0
 10
162.642626
 20
28.710928
 30
0.0
 10
163.371816
 20
28.990928
 30
0.0
  0
LWPOLYLINE
  5
138
100
AcDbEntity
  8
ink_ext_XXXXXX
 62
3
100
AcDbPolyline
 90
2
 70
0
 10
152.990642
 20
8.524207
 30
0.0
 10
161.723994
 20
27.447951
 30
0.0
  0
SPLINE
  5
139
100
AcDbEntity
  8
ink_ext_XXXXXX
 62
3
100
AcDbSpline
 70
8
 71
3
 72
8
 73
4
 74
0
 40
0
 40
0
 40
0
 40
0
 40
1
 40
1
 40
1
 40
1
 10
181.917312
 20
36.117415
 30
0.0
 10
182.289492
 20
36.260642
 30
0.0
 10
182.686014
 20
36.327670
 30
0.0
 10
183.084299
 20
36.315675
 30
0.0
  0
LWPOLYLINE
  5
13a
100
AcDbEntity
  8
ink_ext_XXXXXX
 62
3
100
AcDbPolyline
 90
2
 70
0
 10
163.371816
 20
28.990928
 30
0.0
 10
181.917312
 20
36.117415
 30
0.0
  0
SPLINE
  5
13b
100
AcDbEntity
  8
ink_ext_XXXXXX
 62
3
100
AcDbSpline
 70
8
 71
3
 72
8
 73
4
 74
0
 40
0
 40
0
 40
0
 40
0
 40
1
 40
1
 40
1
 40
1
 10
193.210768
 20
36.009465
 30
0.0
 10
193.413262
 20
36.003115
 30
0.0
 10
193.615756
 20
36.017579
 30
0.0
 10
193.815428
 20
36.052504
 30
0.0
  0
LWPOLYLINE
  5
13c
100
AcDbEntity
  8
ink_ext_XXXXXX
 62
3
100
AcDbPolyline
 90
2
 70
0
 10
183.084299
 20
36.315675
 30
0.0
 10
193.210768
 20
36.009465
 30
0.0
  0
SPLINE
  5
13d
100
AcDbEntity
  8
ink_ext_XXXXXX
 62
3
100
AcDbSpline
 70
8
 71
3
 72
8
 73
4
 74
0
 40
0
 40
0
 40
0
 40
0
 40
1
 40
1
 40
1
 40
1
 10
212.851990
 20
39.361554
 30
0.0
 10
214.484643
 20
39.648714
 30
0.0
 10
215.575077
 20
41.205873
 30
0.0
 10
215.286153
 20
42.838173
 30
0.0
  0
LWPOLYLINE
  5
13e
100
AcDbEntity
  8
ink_ext_XXXXXX
 62
3
100
AcDbPolyline
 90
2
 70
0
 10
193.815428
 20
36.052504
 30
0.0
 10
212.851990
 20
39.361554
 30
0.0
  0
SPLINE
  5
13f
100
AcDbEntity
  8
ink_ext_XXXXXX
 62
3
100
AcDbSpline
 70
8
 71
3
 72
8
 73
4
 74
0
 40
0
 40
0
 40
0
 40
0
 40
1
 40
1
 40
1
 40
1
 10
205.512814
 20
98.065792
 30
0.0
 10
205.259167
 20
99.498773
 30
0.0
 10
204.013863
 20
100.543347
 30
0.0
 10
202.558658
 20
100.543347
 30
0.0
  0
LWPOLYLINE
  5
140
100
AcDbEntity
  8
ink_ext_XXXXXX
 62
3
100
AcDbPolyline
 90
2
 70
0
 10
215.286153
 20
42.838173
 30
0.0
 10
205.512814
 20
98.065792
 30
0.0
  0
SPLINE
  5
141
100
AcDbEntity
  8
ink_ext_XXXXXX
 62
3
100
AcDbSpline
 70
8
 71
3
 72
8
 73
4
 74
0
 40
0
 40
0
 40
0
 40
0
 40
1
 40
1
 40
1
 40
1
 10
142.953426
 20
97.361649
 30
0.0
 10
142.623226
 20
97.303088
 30
0.0
 10
142.344532
 20
97.082955
 30
0.0
 10
142.210830
 20
96.775686
 30
0.0
  0
LWPOLYLINE
  5
142
100
AcDbEntity
  8
ink_ext_XXXXXX
 62
3
100
AcDbPolyline
 90
3
 70
0
 10
202.558658
 20
100.543347
 30
0.0
 10
160.909431
 20
100.543347
 30
0.0
 10
142.953426
 20
97.361649
 30
0.0
  0
SPLINE
  5
143
100
AcDbEntity
  8
ink_ext_XXXXXX
 62
3
100
AcDbSpline
 70
8
 71
3
 72
8
 73
4
 74
0
 40
0
 40
0
 40
0
 40
0
 40
1
 40
1
 40
1
 40
1
 10
141.380745
 20
94.865751
 30
0.0
 10
141.247395
 20
94.558482
 30
0.0
 10
140.968701
 20
94.338702
 30
0.0
 10
140.639208
 20
94.279788
 30
0.0
  0
LWPOLYLINE
  5
144
100
AcDbEntity
  8
ink_ext_XXXXXX
 62
3
100
AcDbPolyline
 90
2
 70
0
 10
142.210830
 20
96.775686
 30
0.0
 10
141.380745
 20
94.865751
 30
0.0
  0
SPLINE
  5
145
100
AcDbEntity
  8
ink_ext_XXXXXX
 62
3
100
AcDbSpline
 70
8
 71
3
 72
8
 73
4
 74
0
 40
0
 40
0
 40
0
 40
0
 40
1
 40
1
 40
1
 40
1
 10
126.936636
 20
91.838570
 30
0.0
 10
126.392301
 20
91.741556
 30
0.0
 10
125.872308
 20
92.104916
 30
0.0
 10
125.776705
 20
92.649252
 30
0.0
  0
LWPOLYLINE
  5
146
100
AcDbEntity
  8
ink_ext_XXXXXX
 62
3
100
AcDbPolyline
 90
2
 70
0
 10
140.639208
 20
94.279788
 30
0.0
 10
126.936636
 20
91.838570
 30
0.0
  0
SPLINE
  5
147
100
AcDbEntity
  8
ink_ext_XXXXXX
 62
3
100
AcDbSpline
 70
8
 71
3
 72
8
 73
4
 74
0
 40
0
 40
0
 40
0
 40
0
 40
1
 40
1
 40
1
 40
1
 10
123.037038
 20
108.188733
 30
0.0
 10
122.941435
 20
108.732716
 30
0.0
 10
122.422500
 20
109.095724
 30
0.0
 10
121.878870
 20
109.000121
 30
0.0
  0
LWPOLYLINE
  5
148
100
AcDbEntity
  8
ink_ext_XXXXXX
 62
3
100
AcDbPolyline
 90
2
 70
0
 10
125.776705
 20
92.649252
 30
0.0
 10
123.037038
 20
108.188733
 30
0.0
  0
SPLINE
  5
149
100
AcDbEntity
  8
ink_ext_XXXXXX
 62
3
100
AcDbSpline
 70
8
 71
3
 72
8
 73
4
 74
0
 40
0
 40
0
 40
0
 40
0
 40
1
 40
1
 40
1
 40
1
 10
83.468491
 20
96.342123
 30
0.0
 10
83.612071
 20
95.526502
 30
0.0
 10
83.067383
 20
94.748276
 30
0.0
 10
82.251410
 20
94.604343
 30
0.0
  0
LWPOLYLINE
  5
14a
100
AcDbEntity
  8
ink_ext_XXXXXX
 62
3
100
AcDbPolyline
 90
3
 70
0
 10
121.878870
 20
109.000121
 30
0.0
 10
82.452140
 20
102.104386
 30
0.0
 10
83.468491
 20
96.342123
 30
0.0
  0
SPLINE
  5
14b
100
AcDbEntity
  8
ink_ext_XXXXXX
 62
3
100
AcDbSpline
 70
8
 71
3
 72
8
 73
4
 74
0
 40
0
 40
0
 40
0
 40
0
 40
1
 40
1
 40
1
 40
1
 10
75.357791
 20
93.389025
 30
0.0
 10
74.542170
 20
93.245092
 30
0.0
 10
73.763944
 20
93.789780
 30
0.0
 10
73.620363
 20
94.605754
 30
0.0
  0
LWPOLYLINE
  5
14c
100
AcDbEntity
  8
ink_ext_XXXXXX
 62
3
100
AcDbPolyline
 90
2
 70
0
 10
82.251410
 20
94.604343
 30
0.0
 10
75.357791
 20
93.389025
 30
0.0
  0
SPLINE
  5
14d
100
AcDbEntity
  8
ink_ext_XXXXXX
 62
3
100
AcDbSpline
 70
8
 71
3
 72
8
 73
4
 74
0
 40
0
 40
0
 40
0
 40
0
 40
1
 40
1
 40
1
 40
1
 10
13.745892
 20
100.543347
 30
0.0
 10
12.290016
 20
100.543347
 30
0.0
 10
11.044254
 20
99.498068
 30
0.0
 10
10.791383
 20
98.064029
 30
0.0
  0
LWPOLYLINE
  5
14e
100
AcDbEntity
  8
ink_ext_XXXXXX
 62
3
100
AcDbPolyline
 90
3
 70
0
 10
73.620363
 20
94.605754
 30
0.0
 10
72.573321
 20
100.543347
 30
0.0
 10
13.745892
 20
100.543347
 30
0.0
  0
SPLINE
  5
14f
100
AcDbEntity
  8
ink_ext_XXXXXX
 62
3
100
AcDbSpline
 70
8
 71
3
 72
8
 73
4
 74
0
 40
0
 40
0
 40
0
 40
0
 40
1
 40
1
 40
1
 40
1
 10
1.053922
 20
42.831470
 30
0.0
 10
0.766190
 20
41.199523
 30
0.0
 10
1.855940
 20
39.643423
 30
0.0
 10
3.487809
 20
39.355909
 30
0.0
  0
LWPOLYLINE
  5
150
100
AcDbEntity
  8
ink_ext_XXXXXX
 62
3
100
AcDbPolyline
 90
2
 70
0
 10
10.791383
 20
98.064029
 30
0.0
 10
1.053922
 20
42.831470
 30
0.0
  0
LWPOLYLINE
  5
151
100
AcDbEntity
  8
ink_ext_XXXXXX
 62
3
100
AcDbPolyline
 90
1
 70
1
 10
3.487809
 20
39.355909
 30
0.0
  0
SPLINE
  5
152
100
AcDbEntity
  8
ink_ext_XXXXXX
 62
7
100
AcDbSpline
 70
8
 71
3
 72
8
 73
4
 74
0
 40
0
 40
0
 40
0
 40
0
 40
1
 40
1
 40
1
 40
1
 10
185.376292
 20
73.021435
 30
0.0
 10
185.481773
 20
73.021435
 30
0.0
 10
185.555856
 20
73.035899
 30
0.0
 10
185.598189
 20
73.065179
 30
0.0
  0
SPLINE
  5
153
100
AcDbEntity
  8
ink_ext_XXXXXX
 62
7
100
AcDbSpline
 70
8
 71
3
 72
8
 73
4
 74
0
 40
0
 40
0
 40
0
 40
0
 40
1
 40
1
 40
1
 40
1
 10
185.598189
 20
73.065179
 30
0.0
 10
185.640523
 20
73.094107
 30
0.0
 10
185.662042
 20
73.188299
 30
0.0
 10
185.662042
 20
73.347048
 30
0.0
  0
LWPOLYLINE
  5
154
100
AcDbEntity
  8
ink_ext_XXXXXX
 62
7
100
AcDbPolyline
 90
2
 70
0
 10
185.376292
 20
73.824709
 30
0.0
 10
185.376292
 20
73.021435
 30
0.0
  0
SPLINE
  5
155
100
AcDbEntity
  8
ink_ext_XXXXXX
 62
7
100
AcDbSpline
 70
8
 71
3
 72
8
 73
4
 74
0
 40
0
 40
0
 40
0
 40
0
 40
1
 40
1
 40
1
 40
1
 10
185.662042
 20
73.545662
 30
0.0
 10
185.662042
 20
73.660667
 30
0.0
 10
185.641228
 20
73.735456
 30
0.0
 10
185.600659
 20
73.771087
 30
0.0
  0
SPLINE
  5
156
100
AcDbEntity
  8
ink_ext_XXXXXX
 62
7
100
AcDbSpline
 70
8
 71
3
 72
8
 73
4
 74
0
 40
0
 40
0
 40
0
 40
0
 40
1
 40
1
 40
1
 40
1
 10
185.600659
 20
73.771087
 30
0.0
 10
185.559737
 20
73.807070
 30
0.0
 10
185.484948
 20
73.824709
 30
0.0
 10
185.376292
 20
73.824709
 30
0.0
  0
LWPOLYLINE
  5
157
100
AcDbEntity
  8
ink_ext_XXXXXX
 62
7
100
AcDbPolyline
 90
2
 70
0
 10
185.662042
 20
73.347048
 30
0.0
 10
185.662042
 20
73.545662
 30
0.0
  0
ENDSEC
  0
SECTION
  2
OBJECTS
  0
DICTIONARY
  5
C
330
0
100
AcDbDictionary
  3
ACAD_GROUP
350
D
  3
ACAD_MLINESTYLE
350
17
  0
DICTIONARY
  5
D
330
C
100
AcDbDictionary
  0
DICTIONARY
  5
1A
330
C
100
AcDbDictionary
  0
DICTIONARY
  5
17
330
C
100
AcDbDictionary
  3
STANDARD
350
18
  0
DICTIONARY
  5
19
330
C
100
AcDbDictionary
  0
ENDSEC
  0
EOF
